{
.appVersion = "3151";
.formatVersion = 3;
axes = (
{
name = Weight;
tag = wght;
},
{
name = Width;
tag = wdth;
},
{
name = Slant;
tag = slnt;
}
);
classes = (
{
code = "zero one two three four five six seven eight nine ";
name = Num;
},
{
code = "zero.canadian one.canadian two.canadian three.canadian four.canadian five.canadian six.canadian seven.canadian eight.canadian nine.canadian 
";
name = Num_can;
},
{

glyphs = (
{
glyphname = idotless;
lastChange = "2023-01-13 15:28:12 +0000";
layers = (
{
layerId = "C6C6CC8B-76AD-4983-B2A6-35FF5D496205";
shapes = (
{
closed = 1;
nodes = (
(141,534,l),
(78,534,l),
(78,0,l),
(141,0,l)
);
}
);
width = 219;
}
);
note = dotlessi;
unicode = 305;
},
{
glyphname = "acuteFinal-canadian";
lastChange = "2023-01-13 15:30:50 +0000";
layers = (
{
layerId = "C6C6CC8B-76AD-4983-B2A6-35FF5D496205";
shapes = (
{
closed = 1;
nodes = (
(100,357,l),
(259,714,l),
(206,714,l),
(48,357,l)
);
}
);
width = 307;
}
);
metricRight = "=|";
note = uni141F;
unicode = 5151;
},
{
glyphname = "graveFinal-canadian";
kernLeft = mwestleft;
kernRight = mwestright;
lastChange = "2023-01-13 15:30:50 +0000";
layers = (
{
layerId = "C6C6CC8B-76AD-4983-B2A6-35FF5D496205";
shapes = (
{
closed = 1;
nodes = (
(259,357,l),
(100,714,l),
(48,714,l),
(206,357,l)
);
}
);
width = 307;
}
);
metricLeft = "=|acuteFinal-canadian";
metricRight = "=|acuteFinal-canadian";
note = uni1420;
unicode = 5152;
},
{
glyphname = "ringBottomhalfFinal-canadian";
kernLeft = mwestleft;
kernRight = mwestright;
lastChange = "2023-01-13 15:28:12 +0000";
layers = (
{
layerId = "C6C6CC8B-76AD-4983-B2A6-35FF5D496205";
shapes = (
{
closed = 1;
nodes = (
(301,351,o),
(355,408,o),
(355,512,cs),
(355,714,l),
(307,714,l),
(307,511,ls),
(307,431,o),
(274,395,o),
(213,395,cs),
(152,395,o),
(118,433,o),
(118,511,cs),
(118,714,l),
(69.995,714,l),
(70,510,ls),
(70,409,o),
(125,351,o),
(212,351,cs)
);
}
);
width = 425;
}
);
metricLeft = "ai-canadian";
metricRight = "==|ai-canadian";
note = uni1421;
unicode = 5153;
},
{
glyphname = "ringTophalfFinal-canadian";
lastChange = "2023-01-13 15:28:12 +0000";
layers = (
{
layerId = "C6C6CC8B-76AD-4983-B2A6-35FF5D496205";
shapes = (
{
closed = 1;
nodes = (
(118,357,l),
(118,560,ls),
(118,638,o),
(152,676,o),
(213,676,cs),
(274,676,o),
(307,640,o),
(307,560,cs),
(307,357,l),
(355,357,l),
(355,559,ls),
(355,663,o),
(301,720,o),
(212,720,cs),
(125,720,o),
(70,662,o),
(70,561,cs),
(69.995,357,l)
);
}
);
width = 425;
}
);
metricLeft = "ai-canadian";
metricRight = "==|ai-canadian";
note = uni1422;
unicode = 5154;
},
{
glyphname = "ringRighthalfFinal-canadian";
kernLeft = mwestleft;
kernRight = mwestright;
lastChange = "2023-01-13 15:28:12 +0000";
layers = (
{
layerId = "C6C6CC8B-76AD-4983-B2A6-35FF5D496205";
shapes = (
{
closed = 1;
nodes = (
(134,357,ls),
(244,357,o),
(306,425,o),
(306,535,cs),
(306,646,o),
(244,714,o),
(133,714,cs),
(66,714,l),
(66,670,l),
(131,670,ls),
(215,670,o),
(258,621,o),
(258,535,cs),
(258,449,o),
(215,401,o),
(131,401,cs),
(66,401,l),
(66,357,l)
);
}
);
width = 374;
}
);
metricLeft = "=|t-canadian";
metricWidth = "t-canadian";
note = uni1423;
unicode = 5155;
},
{
glyphname = "ringFinal-canadian";
kernLeft = mwestleft;
kernRight = mwestright;
lastChange = "2023-01-13 15:28:12 +0000";
layers = (
{
layerId = "C6C6CC8B-76AD-4983-B2A6-35FF5D496205";
shapes = (
{
closed = 1;
nodes = (
(346,372,o),
(421,446,o),
(421,546,cs),
(421,646,o),
(345,720,o),
(244,720,cs),
(144,720,o),
(68,646,o),
(68,546,cs),
(68,446,o),
(142,372,o),
(244,372,cs)
);
},
{
closed = 1;
nodes = (
(167,413,o),
(113,469,o),
(113,546,cs),
(113,623,o),
(168,678,o),
(244,678,cs),
(320,678,o),
(376,623,o),
(376,546,cs),
(376,469,o),
(321,413,o),
(244,413,cs)
);
}
);
width = 489;
}
);
note = uni1424;
unicode = 5156;
},
{
glyphname = "doubleacuteFinal-canadian";
lastChange = "2023-01-13 15:28:12 +0000";
layers = (
{
layerId = "C6C6CC8B-76AD-4983-B2A6-35FF5D496205";
shapes = (
{
closed = 1;
nodes = (
(259,714,l),
(206,714,l),
(48,357,l),
(100,357,l)
);
},
{
closed = 1;
nodes = (
(394,714,l),
(342,714,l),
(184,357,l),
(236,357,l)
);
}
);
width = 442;
}
);
metricLeft = "acuteFinal-canadian";
metricRight = "=|";
note = uni1425;
unicode = 5157;
},
{
glyphname = "doubleshortverticalstrokesFinal-canadian";
kernLeft = mwestleft;
kernRight = mwestright;
lastChange = "2023-01-13 15:28:12 +0000";
layers = (
{
layerId = "C6C6CC8B-76AD-4983-B2A6-35FF5D496205";
shapes = (
{
closed = 1;
nodes = (
(118,714,l),
(69.995,714,l),
(69.995,357,l),
(118,357,l)
);
},
{
closed = 1;
nodes = (
(240,714,l),
(192,714,l),
(192,357,l),
(240,357,l)
);
}
);
width = 310;
}
);
metricLeft = "pWestCree-canadian";
metricRight = "pWestCree-canadian";
note = uni1426;
unicode = 5158;
},
{
glyphname = "middledotFinal-canadian";
lastChange = "2023-01-13 15:28:12 +0000";
layers = (
{
layerId = "C6C6CC8B-76AD-4983-B2A6-35FF5D496205";
shapes = (
{
closed = 1;
nodes = (
(135,322,o),
(155,342,o),
(155,367,cs),
(155,392,o),
(135,412,o),
(110,412,cs),
(85,412,o),
(66,392,o),
(66,367,cs),
(66,342,o),
(85,322,o),
(110,322,cs)
);
}
);
width = 220;
}
);
note = uni1427;
unicode = 5159;
},
{
glyphname = "shorthorizontalstrokeFinal-canadian";
kernLeft = mwestleft;
kernRight = mwestright;
lastChange = "2023-01-13 15:28:12 +0000";
layers = (
{
layerId = "C6C6CC8B-76AD-4983-B2A6-35FF5D496205";
shapes = (
{
closed = 1;
nodes = (
(389,516,l),
(389,563,l),
(68,563,l),
(68,516,l)
);
}
);
width = 457;
}
);
metricRight = "=|";
note = uni1428;
unicode = 5160;
},
{
glyphname = "plusFinal-canadian";
kernLeft = mwestleft;
kernRight = mwestright;
lastChange = "2023-01-13 15:28:12 +0000";
layers = (
{
layerId = "C6C6CC8B-76AD-4983-B2A6-35FF5D496205";
shapes = (
{
closed = 1;
nodes = (
(252,379,l),
(252,525,l),
(389,525,l),
(389,571,l),
(252,571,l),
(252,714,l),
(206,714,l),
(206,571,l),
(68,571,l),
(68,525,l),
(206,525,l),
(206,379,l)
);
}
);
width = 457;
}
);
metricLeft = "shorthorizontalstrokeFinal-canadian";
metricRight = "shorthorizontalstrokeFinal-canadian";
note = uni1429;
unicode = 5161;
},
{
glyphname = "downtackFinal-canadian";
kernLeft = mwestleft;
kernRight = mwestright;
lastChange = "2023-01-13 15:28:12 +0000";
layers = (
{
layerId = "C6C6CC8B-76AD-4983-B2A6-35FF5D496205";
shapes = (
{
closed = 1;
nodes = (
(253,357,l),
(253,669,l),
(389,669,l),
(389,714,l),
(68,714,l),
(68,669,l),
(205,669,l),
(205,357,l)
);
}
);
width = 457;
}
);
metricLeft = "shorthorizontalstrokeFinal-canadian";
metricRight = "shorthorizontalstrokeFinal-canadian";
note = uni142A;
unicode = 5162;
},
{
glyphname = "thFinalWoodScree-canadian";
lastChange = "2023-01-13 15:28:12 +0000";
layers = (
{
layerId = "C6C6CC8B-76AD-4983-B2A6-35FF5D496205";
shapes = (
{
closed = 1;
nodes = (
(255,357,l),
(255,445,l),
(391,445,l),
(391,486,l),
(255,486,l),
(255,585,l),
(391,585,l),
(391,626,l),
(255,626,l),
(255,714,l),
(208,714,l),
(208,626,l),
(70,626,l),
(70,585,l),
(208,585,l),
(208,486,l),
(70,486,l),
(70,445,l),
(208,445,l),
(208,357,l)
);
}
);
width = 461;
}
);
metricLeft = "hyphen-canadian";
metricRight = "hyphen-canadian";
note = uni167E;
unicode = 5758;
},
{
glyphname = "ringSmallFinal-canadian";
kernLeft = mwestleft;
kernRight = mwestright;
lastChange = "2023-01-13 15:28:12 +0000";
layers = (
{
layerId = "C6C6CC8B-76AD-4983-B2A6-35FF5D496205";
shapes = (
{
closed = 1;
nodes = (
(225,529,o),
(270,570,o),
(270,628,cs),
(270,686,o),
(225,727,o),
(170,727,cs),
(115,727,o),
(70,686,o),
(70,628,cs),
(70,570,o),
(115,529,o),
(170,529,cs)
);
},
{
closed = 1;
nodes = (
(131,564,o),
(106,591,o),
(106,628,cs),
(106,665,o),
(132,693,o),
(170,693,cs),
(208,693,o),
(233,665,o),
(233,628,cs),
(233,591,o),
(209,564,o),
(170,564,cs)
);
}
);
width = 340;
}
);
note = g725;
unicode = 6366;
},
{
glyphname = "raiseddotFinal-canadian";
kernLeft = mwestleft;
kernRight = mwestright;
lastChange = "2023-01-13 15:28:12 +0000";
layers = (
{
layerId = "C6C6CC8B-76AD-4983-B2A6-35FF5D496205";
shapes = (
{
closed = 1;
nodes = (
(137,637,o),
(156,657,o),
(156,682,cs),
(156,707,o),
(137,727,o),
(112,727,cs),
(86,727,o),
(67,707,o),
(67,682,cs),
(67,657,o),
(86,637,o),
(112,637,cs)
);
}
);
width = 223;
}
);
note = g725;
unicode = 6367;
},
{
glyphname = "plusFinal-canadian.base";
lastChange = "2023-01-13 15:28:12 +0000";
layers = (
{
layerId = "C6C6CC8B-76AD-4983-B2A6-35FF5D496205";
shapes = (
{
closed = 1;
nodes = (
(252,0,l),
(252,146,l),
(389,146,l),
(389,192,l),
(252,192,l),
(252,335,l),
(206,335,l),
(206,192,l),
(68,192,l),
(68,146,l),
(206,146,l),
(206,0,l)
);
}
);
width = 457;
}
);
metricLeft = "shorthorizontalstrokeFinal-canadian";
metricRight = "shorthorizontalstrokeFinal-canadian";
note = uni1429;
},
{
glyphname = "e-canadian";
kernLeft = ecanleft;
kernRight = ecanright;
lastChange = "2023-01-13 15:28:12 +0000";
layers = (
{
anchors = (
{
name = middle_center_can;
pos = (354,470);
},
{
name = top_center_can;
pos = (354,714);
},
{
name = top_left_can;
pos = (125,714);
},
{
name = top_right_can;
pos = (584,714);
}
);
layerId = "C6C6CC8B-76AD-4983-B2A6-35FF5D496205";
shapes = (
{
closed = 1;
nodes = (
(372,0,l),
(678,694,l),
(678,714,l),
(37,714,l),
(37,694,l),
(343,0,l)
);
},
{
closed = 1;
nodes = (
(369,73,l),
(109,677,l),
(102,660,l),
(613,660,l),
(608,677,l),
(348,73,l)
);
}
);
width = 715;
}
);
metricRight = "=|";
note = uni1401;
unicode = 5121;
},
{
glyphname = "i-canadian";
kernLeft = icanleft;
kernRight = icanright;
lastChange = "2023-01-13 15:28:12 +0000";
layers = (
{
anchors = (
{
name = middle_center_can;
pos = (357,417);
},
{
name = top_center_can;
pos = (358,714);
},
{
name = top_left_can;
pos = (126,714);
},
{
name = top_right_can;
pos = (584,714);
}
);
layerId = "C6C6CC8B-76AD-4983-B2A6-35FF5D496205";
shapes = (
{
closed = 1;
nodes = (
(678,0,l),
(678,20,l),
(372,714,l),
(343,714,l),
(37,20,l),
(37,0,l)
);
},
{
closed = 1;
nodes = (
(368,641,l),
(346,641,l),
(607,37,l),
(613,54,l),
(102,54,l),
(107,37,l)
);
}
);
width = 715;
}
);
metricLeft = "e-canadian";
metricWidth = "e-canadian";
note = uni1403;
unicode = 5123;
},
{
glyphname = "o-canadian";
kernLeft = ocanleft;
kernRight = ocanright;
lastChange = "2023-01-13 15:28:12 +0000";
layers = (
{
anchors = (
{
name = middle_center_can;
pos = (278,357);
},
{
name = top_center_can;
pos = (366,714);
},
{
name = top_double;
pos = (454,714);
},
{
name = top_left_can;
pos = (111,714);
},
{
name = top_right_can;
pos = (613,714);
}
);
layerId = "C6C6CC8B-76AD-4983-B2A6-35FF5D496205";
shapes = (
{
closed = 1;
nodes = (
(103,0,l),
(651,343,l),
(651,371,l),
(103,714,l),
(83,714,l),
(83,0,l)
);
},
{
closed = 1;
nodes = (
(139,642,l),
(121,640,l),
(589,346,l),
(589,369,l),
(121,75,l),
(139,72,l)
);
}
);
width = 688;
}
);
metricLeft = "nunavuth-canadian";
note = uni1405;
unicode = 5125;
},
{
glyphname = "eeCarrier-canadian";
lastChange = "2023-01-13 15:28:12 +0000";
layers = (
{
layerId = "C6C6CC8B-76AD-4983-B2A6-35FF5D496205";
shapes = (
{
closed = 1;
nodes = (
(103,0,l),
(651,343,l),
(651,371,l),
(103,714,l),
(83,714,l),
(83,0,l)
);
},
{
closed = 1;
nodes = (
(138,642,l),
(121,641,l),
(589,348,l),
(589,367,l),
(121,74,l),
(138,72,l)
);
},
{
closed = 1;
nodes = (
(293,454,l),
(262,454,l),
(262,260,l),
(293,260,l)
);
}
);
width = 688;
}
);
metricLeft = "nunavuth-canadian";
metricRight = "o-canadian";
note = uni1408;
unicode = 5128;
},
{
glyphname = "a-canadian";
kernLeft = acanleft;
kernRight = acanright;
lastChange = "2023-01-13 15:28:12 +0000";
layers = (
{
anchors = (
{
name = middle_center_can;
pos = (404,357);
},
{
name = top_center_can;
pos = (318,714);
},
{
name = top_left_can;
pos = (67,714);
},
{
name = top_right_can;
pos = (577,714);
}
);
layerId = "C6C6CC8B-76AD-4983-B2A6-35FF5D496205";
shapes = (
{
closed = 1;
nodes = (
(605,0,l),
(605,714,l),
(585,714,l),
(38,371,l),
(38,343,l),
(585,0,l)
);
},
{
closed = 1;
nodes = (
(567,74,l),
(99,368,l),
(99,346,l),
(566,640,l),
(549,643,l),
(549,71,l)
);
}
);
width = 688;
}
);
metricRight = "nunavuth-canadian";
note = uni140A;
unicode = 5130;
},
{
glyphname = "ai-canadian";
lastChange = "2023-01-13 15:28:12 +0000";
layers = (
{
layerId = "C6C6CC8B-76AD-4983-B2A6-35FF5D496205";
shapes = (
{
closed = 1;
nodes = (
(270,351,o),
(312,387,o),
(328,454,c),
(311,454,l),
(328,386,o),
(372,351,o),
(435,351,cs),
(517,351,o),
(570,404,o),
(570,510,cs),
(570,714,l),
(524,714,l),
(524,510,ls),
(524,425,o),
(489,393,o),
(434,393,cs),
(379,393,o),
(343,427,o),
(343,509,cs),
(343,714,l),
(297,714,l),
(297,510,ls),
(297,425,o),
(261,393,o),
(206,393,cs),
(151,393,o),
(116,427,o),
(116,509,cs),
(116,714,l),
(69.995,714,l),
(70,508,ls),
(70,404,o),
(125,351,o),
(205,351,cs)
);
}
);
width = 640;
}
);
metricRight = "=|";
note = uni141C;
unicode = 5148;
},
{
glyphname = "ycreew-canadian";
lastChange = "2023-01-13 15:30:50 +0000";
layers = (
{
layerId = "C6C6CC8B-76AD-4983-B2A6-35FF5D496205";
shapes = (
{
closed = 1;
nodes = (
(357,528,o),
(394,568,o),
(394,624,cs),
(394,681,o),
(357,720,o),
(307,720,cs),
(258,720,o),
(220,681,o),
(220,624,cs),
(220,568,o),
(258,528,o),
(307,528,cs)
);
},
{
closed = 1;
nodes = (
(205,351,o),
(242,391,o),
(242,447,cs),
(242,504,o),
(205,543,o),
(156,543,cs),
(106,543,o),
(69,504,o),
(69,447,cs),
(69,391,o),
(106,351,o),
(155,351,cs)
);
},
{
closed = 1;
nodes = (
(122,380,o),
(99,407,o),
(99,447,cs),
(99,487,o),
(122,514,o),
(155,514,cs),
(188,514,o),
(211,487,o),
(211,447,cs),
(211,407,o),
(188,380,o),
(155,380,cs)
);
},
{
closed = 1;
nodes = (
(274,557,o),
(251,584,o),
(251,624,cs),
(251,664,o),
(274,691,o),
(307,691,cs),
(340,691,o),
(363,664,o),
(363,624,cs),
(363,584,o),
(340,557,o),
(307,557,cs)
);
}
);
width = 463;
}
);
metricRight = "=|";
note = uni141D;
unicode = 5149;
},
{
glyphname = "glottalstop-canadian";
lastChange = "2023-01-13 15:28:12 +0000";
layers = (
{
layerId = "C6C6CC8B-76AD-4983-B2A6-35FF5D496205";
shapes = (
{
closed = 1;
nodes = (
(384,357,l),
(384,369,l),
(232,714,l),
(216,714,l),
(63,369,l),
(63,357,l)
);
},
{
closed = 1;
nodes = (
(237,672,l),
(211,672,l),
(339,376,l),
(350,395,l),
(98,395,l),
(108,376,l)
);
}
);
width = 447;
}
);
metricRight = "=|";
note = uni141E;
unicode = 5150;
},
{
glyphname = "pe-canadian";
kernLeft = ecanleft;
kernRight = ecanright;
lastChange = "2023-01-13 15:28:12 +0000";
layers = (
{
anchors = (
{
name = middle_center_can;
pos = (354,470);
},
{
name = top_center_can;
pos = (354,714);
},
{
name = top_left_can;
pos = (125,714);
},
{
name = top_right_can;
pos = (584,714);
}
);
layerId = "C6C6CC8B-76AD-4983-B2A6-35FF5D496205";
shapes = (
{
closed = 1;
nodes = (
(372,0,l),
(678,694,l),
(678,714,l),
(620,714,l),
(343,75,l),
(374,75,l),
(97,714,l),
(37,714,l),
(37,694,l),
(343,0,l)
);
}
);
width = 715;
}
);
metricLeft = "e-canadian";
metricRight = "e-canadian";
note = uni142F;
unicode = 5167;
},
{
glyphname = "pi-canadian";
kernLeft = icanleft;
kernRight = icanright;
lastChange = "2023-01-13 15:28:12 +0000";
layers = (
{
anchors = (
{
name = middle_center_can;
pos = (355,417);
},
{
name = top_center_can;
pos = (358,714);
},
{
name = top_left_can;
pos = (128,714);
},
{
name = top_right_can;
pos = (587,714);
}
);
layerId = "C6C6CC8B-76AD-4983-B2A6-35FF5D496205";
shapes = (
{
closed = 1;
nodes = (
(95,0,l),
(373,639,l),
(342,639,l),
(618,0,l),
(678,0,l),
(678,20,l),
(372,714,l),
(343,714,l),
(37,20,l),
(37,0,l)
);
}
);
width = 715;
}
);
metricLeft = "e-canadian";
metricRight = "e-canadian";
note = uni1431;
unicode = 5169;
},
{
glyphname = "po-canadian";
kernLeft = ocanleft;
kernRight = ocanright;
lastChange = "2023-01-13 15:30:50 +0000";
layers = (
{
anchors = (
{
name = middle_center_can;
pos = (228,357);
},
{
name = top_center_can;
pos = (339,714);
},
{
name = top_double;
pos = (433,714);
},
{
name = top_left_can;
pos = (88,714);
},
{
name = top_right_can;
pos = (583,714);
}
);
layerId = "C6C6CC8B-76AD-4983-B2A6-35FF5D496205";
shapes = (
{
closed = 1;
nodes = (
(78.995,0,l),
(620,343,l),
(620,371,l),
(78.995,714,l),
(59,714,l),
(59,657,l),
(555,342,l),
(555,372,l),
(59,58,l),
(59,0,l)
);
}
);
width = 657;
}
);
metricRight = "o-canadian";
note = uni1433;
unicode = 5171;
},
{
glyphname = "pa-canadian";
kernLeft = acanleft;
kernRight = acanright;
lastChange = "2023-01-13 15:30:50 +0000";
layers = (
{
anchors = (
{
name = middle_center_can;
pos = (291,357);
},
{
name = top_center_can;
pos = (319,714);
},
{
name = top_left_can;
pos = (67,714);
},
{
name = top_right_can;
pos = (570,714);
}
);
layerId = "C6C6CC8B-76AD-4983-B2A6-35FF5D496205";
shapes = (
{
closed = 1;
nodes = (
(598,0,l),
(598,57,l),
(103,372,l),
(103,342,l),
(598,656,l),
(598,714,l),
(579,714,l),
(38,371,l),
(38,343,l),
(579,0,l)
);
}
);
width = 657;
}
);
metricRight = "=|po-canadian";
note = uni1438;
unicode = 5176;
},
{
glyphname = "p-canadian";
kernLeft = mwestleft;
kernRight = mwestright;
lastChange = "2023-01-13 15:28:12 +0000";
layers = (
{
layerId = "C6C6CC8B-76AD-4983-B2A6-35FF5D496205";
shapes = (
{
closed = 1;
nodes = (
(349,357,l),
(349,399,l),
(110,552,l),
(110,520,l),
(349,671,l),
(349,714,l),
(336,714,l),
(70,545,l),
(70,527,l),
(336,357,l)
);
}
);
width = 419;
}
);
note = uni1449;
unicode = 5193;
},
{
glyphname = "pWestCree-canadian";
kernLeft = mwestleft;
kernRight = mwestright;
lastChange = "2023-01-13 15:28:12 +0000";
layers = (
{
layerId = "C6C6CC8B-76AD-4983-B2A6-35FF5D496205";
shapes = (
{
closed = 1;
nodes = (
(118,357,l),
(118,714,l),
(69.995,714,l),
(69.995,357,l)
);
}
);
width = 188;
}
);
metricRight = "=|";
note = uni144A;
unicode = 5194;
},
{
color = 6;
glyphname = "hCarrier-canadian";
lastChange = "2023-01-13 15:28:12 +0000";
layers = (
{
layerId = "C6C6CC8B-76AD-4983-B2A6-35FF5D496205";
shapes = (
{
closed = 1;
nodes = (
(118,189,l),
(118,330,ls),
(118,378,o),
(146,406,o),
(191,406,cs),
(232,406,o),
(254,380,o),
(254,327,cs),
(254,189,l),
(302,189,l),
(302,336,ls),
(302,410,o),
(258,449,o),
(198,449,cs),
(147,449,o),
(108,418,o),
(103,373,c),
(118,367,l),
(118,546,l),
(69.995,546,l),
(69.995,189,l)
);
}
);
width = 350;
}
);
metricLeft = "pWestCree-canadian";
note = uni144B;
unicode = 5195;
},
{
glyphname = "te-canadian";
lastChange = "2023-01-13 15:28:12 +0000";
layers = (
{
anchors = (
{
name = middle_center_can;
pos = (356,357);
},
{
name = top_center_can;
pos = (356,714);
},
{
name = top_left_can;
pos = (108,714);
},
{
name = top_right_can;
pos = (605,714);
}
);
layerId = "C6C6CC8B-76AD-4983-B2A6-35FF5D496205";
shapes = (
{
closed = 1;
nodes = (
(530,-13,o),
(637,102,o),
(637,303,cs),
(637,714,l),
(573,714,l),
(573,300,ls),
(573,134,o),
(494,47,o),
(356,47,cs),
(222,47,o),
(140,135,o),
(140,300,cs),
(140,714,l),
(76,714,l),
(76,299,ls),
(76,101,o),
(185,-13,o),
(356,-13,cs)
);
}
);
width = 713;
}
);
metricRight = "=|";
note = uni144C;
unicode = 5196;
},
{
glyphname = "ti-canadian";
lastChange = "2023-01-13 15:28:12 +0000";
layers = (
{
anchors = (
{
name = middle_center_can;
pos = (356,357);
},
{
name = middle_right_can;
pos = (801,357);
},
{
name = top_center_can;
pos = (356,714);
},
{
name = top_left_can;
pos = (108,714);
},
{
name = top_right_can;
pos = (605,714);
}
);
layerId = "C6C6CC8B-76AD-4983-B2A6-35FF5D496205";
shapes = (
{
closed = 1;
nodes = (
(140,0,l),
(140,414,ls),
(140,580,o),
(221,667,o),
(357,667,cs),
(491,667,o),
(573,579,o),
(573,414,cs),
(573,0,l),
(637,0,l),
(637,415,ls),
(637,612,o),
(529,727,o),
(358,727,cs),
(184,727,o),
(76,613,o),
(76,411,cs),
(76,0,l)
);
}
);
width = 713;
}
);
metricLeft = "te-canadian";
metricRight = "te-canadian";
note = uni144E;
unicode = 5198;
},
{
glyphname = "to-canadian";
kernLeft = toleft;
lastChange = "2023-01-13 15:28:12 +0000";
layers = (
{
anchors = (
{
name = middle_center_can;
pos = (268,357);
},
{
name = middle_right_can;
pos = (700,357);
},
{
name = top_center_can;
pos = (273,714);
},
{
name = top_double;
pos = (329,714);
},
{
name = top_left_can;
pos = (90,714);
},
{
name = top_right_can;
pos = (508,714);
}
);
layerId = "C6C6CC8B-76AD-4983-B2A6-35FF5D496205";
shapes = (
{
closed = 1;
nodes = (
(210,0,ls),
(420,0,o),
(537,134,o),
(537,358,cs),
(537,582,o),
(420,714,o),
(206,714,cs),
(61,714,l),
(61,656,l),
(206,656,ls),
(382,656,o),
(473,549,o),
(473,358,cs),
(473,167,o),
(382,58,o),
(208,58,cs),
(61,58,l),
(61,0,l)
);
}
);
width = 606;
}
);
note = uni1450;
unicode = 5200;
},
{
glyphname = "ta-canadian";
kernRight = taright;
lastChange = "2023-01-13 15:28:12 +0000";
layers = (
{
anchors = (
{
name = middle_center_can;
pos = (339,357);
},
{
name = top_center_can;
pos = (334,714);
},
{
name = top_left_can;
pos = (98,714);
},
{
name = top_right_can;
pos = (516,714);
}
);
layerId = "C6C6CC8B-76AD-4983-B2A6-35FF5D496205";
shapes = (
{
closed = 1;
nodes = (
(545,0,l),
(545,58,l),
(400,58,ls),
(224,58,o),
(133,166,o),
(133,357,cs),
(133,548,o),
(224,656,o),
(399,656,cs),
(545,656,l),
(545,714,l),
(399,714,ls),
(186,714,o),
(69,581,o),
(69,357,cs),
(69,133,o),
(186,0,o),
(398,0,cs)
);
}
);
width = 606;
}
);
metricLeft = "=|to-canadian";
metricRight = "=|to-canadian";
note = uni1455;
unicode = 5205;
},
{
glyphname = "t-canadian";
kernLeft = mwestleft;
kernRight = mwestright;
lastChange = "2023-01-13 15:28:12 +0000";
layers = (
{
layerId = "C6C6CC8B-76AD-4983-B2A6-35FF5D496205";
shapes = (
{
closed = 1;
nodes = (
(308,357,l),
(308,401,l),
(243,401,ls),
(159,401,o),
(116,448,o),
(116,535,cs),
(116,621,o),
(159,670,o),
(243,670,cs),
(308,670,l),
(308,714,l),
(239,714,ls),
(130,714,o),
(68,646,o),
(68,535,cs),
(68,424,o),
(130,357,o),
(241,357,cs)
);
}
);
width = 374;
}
);
note = uni1466;
unicode = 5222;
},
{
glyphname = "ke-canadian";
lastChange = "2023-01-13 15:28:12 +0000";
layers = (
{
anchors = (
{
name = middle_center_can;
pos = (313,457);
},
{
name = top_center_can;
pos = (291,714);
},
{
name = top_left_can;
pos = (102,714);
},
{
name = top_right_can;
pos = (480,714);
}
);
layerId = "C6C6CC8B-76AD-4983-B2A6-35FF5D496205";
shapes = (
{
closed = 1;
nodes = (
(512,0,l),
(512,464,ls),
(512,628,o),
(429,727,o),
(293,727,cs),
(157,727,o),
(70,628,o),
(70,467,cs),
(70,311,o),
(156,213,o),
(285,213,cs),
(374,213,o),
(440,266,o),
(456,338,c),
(448,353,l),
(448,0,l)
);
},
{
closed = 1;
nodes = (
(194,269,o),
(133,342,o),
(133,470,cs),
(133,598,o),
(193,671,o),
(291,671,cs),
(391,671,o),
(449,599,o),
(449,470,cs),
(449,342,o),
(389,269,o),
(291,269,cs)
);
}
);
width = 588;
}
);
metricRight = "te-canadian";
note = uni146B;
unicode = 5227;
},
{
glyphname = "ki-canadian";
lastChange = "2023-01-13 15:28:12 +0000";
layers = (
{
anchors = (
{
name = middle_center_can;
pos = (318,457);
},
{
name = top_center_can;
pos = (296,714);
},
{
name = top_left_can;
pos = (108,714);
},
{
name = top_right_can;
pos = (486,714);
}
);
layerId = "C6C6CC8B-76AD-4983-B2A6-35FF5D496205";
shapes = (
{
closed = 1;
nodes = (
(140,0,l),
(140,353,l),
(132,338,l),
(148,266,o),
(214,213,o),
(303,213,cs),
(432,213,o),
(518,312,o),
(518,469,cs),
(518,628,o),
(431,727,o),
(297,727,cs),
(160,727,o),
(76,628,o),
(76,464,cs),
(76,0,l)
);
},
{
closed = 1;
nodes = (
(199,269,o),
(139,342,o),
(139,470,cs),
(139,599,o),
(197,671,o),
(296,671,cs),
(395,671,o),
(455,598,o),
(455,470,cs),
(455,342,o),
(394,269,o),
(296,269,cs)
);
}
);
width = 588;
}
);
metricLeft = "te-canadian";
metricRight = "=|ke-canadian";
note = uni146D;
unicode = 5229;
},
{
glyphname = "ko-canadian";
lastChange = "2023-01-13 15:28:12 +0000";
layers = (
{
anchors = (
{
name = middle_center_can;
pos = (313,411);
},
{
name = top_center_can;
pos = (291,714);
},
{
name = top_double;
pos = (481,714);
},
{
name = top_left_can;
pos = (102,714);
},
{
name = top_right_can;
pos = (480,714);
}
);
layerId = "C6C6CC8B-76AD-4983-B2A6-35FF5D496205";
shapes = (
{
closed = 1;
nodes = (
(429,-13,o),
(512,86,o),
(512,250,cs),
(512,714,l),
(448,714,l),
(448,361,l),
(456,376,l),
(440,448,o),
(374,501,o),
(285,501,cs),
(156,501,o),
(70,401,o),
(70,244,cs),
(70,85,o),
(155,-13,o),
(291,-13,cs)
);
},
{
closed = 1;
nodes = (
(193,43,o),
(133,116,o),
(133,244,cs),
(133,372,o),
(194,445,o),
(291,445,cs),
(389,445,o),
(449,372,o),
(449,244,cs),
(449,115,o),
(391,43,o),
(291,43,cs)
);
}
);
width = 588;
}
);
metricLeft = "ke-canadian";
metricRight = "te-canadian";
note = uni146F;
unicode = 5231;
},
{
glyphname = "ka-canadian";
lastChange = "2023-01-13 15:28:12 +0000";
layers = (
{
anchors = (
{
name = middle_center_can;
pos = (318,412);
},
{
name = top_center_can;
pos = (297,714);
},
{
name = top_left_can;
pos = (108,714);
},
{
name = top_right_can;
pos = (486,714);
}
);
layerId = "C6C6CC8B-76AD-4983-B2A6-35FF5D496205";
shapes = (
{
closed = 1;
nodes = (
(431,-13,o),
(518,86,o),
(518,246,cs),
(518,402,o),
(432,501,o),
(304,501,cs),
(215,501,o),
(148,448,o),
(132,376,c),
(140,361,l),
(140,714,l),
(76,714,l),
(76,250,ls),
(76,86,o),
(158,-13,o),
(295,-13,cs)
);
},
{
closed = 1;
nodes = (
(197,43,o),
(139,115,o),
(139,244,cs),
(139,372,o),
(199,445,o),
(296,445,cs),
(394,445,o),
(455,372,o),
(455,244,cs),
(455,116,o),
(395,43,o),
(296,43,cs)
);
}
);
width = 588;
}
);
metricLeft = "te-canadian";
metricRight = "==|ke-canadian";
note = uni1472;
unicode = 5234;
},
{
glyphname = "k-canadian";
kernLeft = mwestleft;
kernRight = mwestright;
lastChange = "2023-01-13 15:28:12 +0000";
layers = (
{
layerId = "C6C6CC8B-76AD-4983-B2A6-35FF5D496205";
shapes = (
{
closed = 1;
nodes = (
(261,351,o),
(314,402,o),
(314,488,cs),
(314,571,o),
(264,622,o),
(199.002,622,cs),
(150,622,o),
(112,588,o),
(105,541,c),
(118,535,l),
(118,714,l),
(69.995,714,l),
(70,488,ls),
(70,402,o),
(119,351,o),
(193,351,cs)
);
},
{
closed = 1;
nodes = (
(144,389,o),
(114,422,o),
(114,487,cs),
(114,549,o),
(147,584,o),
(192,584,cs),
(238,584,o),
(270,549,o),
(270,488,cs),
(270,425,o),
(239,389,o),
(193,389,cs)
);
}
);
width = 374;
}
);
note = uni1483;
unicode = 5251;
},
{
glyphname = "kw-canadian";
kernLeft = mwestleft;
kernRight = mwestright;
lastChange = "2023-01-13 15:28:12 +0000";
layers = (
{
layerId = "C6C6CC8B-76AD-4983-B2A6-35FF5D496205";
shapes = (
{
closed = 1;
nodes = (
(254,351,o),
(304,402,o),
(304,488,cs),
(304,714,l),
(256,714,l),
(256,535,l),
(269,541,l),
(262,588,o),
(224,622,o),
(175,622,cs),
(109,622,o),
(60,571,o),
(60,488,cs),
(60,402,o),
(112,351,o),
(181,351,cs)
);
},
{
closed = 1;
nodes = (
(135,389,o),
(104,425,o),
(104,488,cs),
(104,549,o),
(136,584,o),
(182,584,cs),
(227,584,o),
(259,549,o),
(259,487,cs),
(259,422,o),
(230,389,o),
(181,389,cs)
);
}
);
width = 374;
}
);
metricLeft = "=|k-canadian";
metricRight = "=|k-canadian";
note = uni1484;
unicode = 5252;
},
{
glyphname = "ce-canadian";
kernLeft = celeft;
lastChange = "2023-01-13 15:30:50 +0000";
layers = (
{
anchors = (
{
name = middle_center_can;
pos = (311,434);
},
{
name = top_center_can;
pos = (291,714);
},
{
name = top_left_can;
pos = (102,714);
},
{
name = top_right_can;
pos = (477,714);
}
);
layerId = "C6C6CC8B-76AD-4983-B2A6-35FF5D496205";
shapes = (
{
closed = 1;
nodes = (
(509,0,l),
(509,472,ls),
(509,631,o),
(427,727,o),
(292,727,cs),
(153,727,o),
(70,631,o),
(70,474,cs),
(70,405,l),
(133,405,l),
(133,479,ls),
(133,599,o),
(190,670,o),
(291,670,cs),
(388,670,o),
(445,599,o),
(445,478,cs),
(445,0,l)
);
}
);
width = 585;
}
);
metricRight = "te-canadian";
note = uni1489;
unicode = 5257;
},
{
glyphname = "ci-canadian";
kernRight = ciright;
lastChange = "2023-01-13 15:28:12 +0000";
layers = (
{
anchors = (
{
name = middle_center_can;
pos = (314,434);
},
{
name = top_center_can;
pos = (297,714);
},
{
name = top_left_can;
pos = (108,714);
},
{
name = top_right_can;
pos = (484,714);
}
);
layerId = "C6C6CC8B-76AD-4983-B2A6-35FF5D496205";
shapes = (
{
closed = 1;
nodes = (
(140,0,l),
(140,478,ls),
(140,599,o),
(196,670,o),
(296,670,cs),
(396,670,o),
(451,600,o),
(451,479,cs),
(451,405,l),
(514,405,l),
(514,474,ls),
(514,630,o),
(434,727,o),
(297,727,cs),
(157,727,o),
(76,630,o),
(76,471,cs),
(76,0,l)
);
}
);
width = 584;
}
);
metricLeft = "te-canadian";
metricRight = "=|ce-canadian";
note = uni148B;
unicode = 5259;
},
{
glyphname = "co-canadian";
kernLeft = coleft;
lastChange = "2023-01-13 15:30:50 +0000";
layers = (
{
anchors = (
{
name = middle_center_can;
pos = (311,434);
},
{
name = top_center_can;
pos = (290,714);
},
{
name = top_double;
pos = (477,714);
},
{
name = top_left_can;
pos = (102,714);
},
{
name = top_right_can;
pos = (477,714);
}
);
layerId = "C6C6CC8B-76AD-4983-B2A6-35FF5D496205";
shapes = (
{
closed = 1;
nodes = (
(427,-13,o),
(509,81,o),
(509,243,cs),
(509,714,l),
(445,714,l),
(445,236,ls),
(445,112,o),
(388,44,o),
(291,44,cs),
(188,44,o),
(133,114,o),
(133,238,cs),
(133,309,l),
(70,309,l),
(70,239,ls),
(70,83,o),
(150,-13,o),
(292,-13,cs)
);
}
);
width = 585;
}
);
metricLeft = "ce-canadian";
metricRight = "te-canadian";
note = uni148D;
unicode = 5261;
},
{
glyphname = "ca-canadian";
kernRight = caright;
lastChange = "2023-01-13 15:28:12 +0000";
layers = (
{
anchors = (
{
name = middle_center_can;
pos = (314,434);
},
{
name = top_center_can;
pos = (297,714);
},
{
name = top_left_can;
pos = (108,714);
},
{
name = top_right_can;
pos = (484,714);
}
);
layerId = "C6C6CC8B-76AD-4983-B2A6-35FF5D496205";
shapes = (
{
closed = 1;
nodes = (
(434,-13,o),
(514,82,o),
(514,240,cs),
(514,309,l),
(451,309,l),
(451,237,ls),
(451,112,o),
(397,44,o),
(296,44,cs),
(195,44,o),
(140,114,o),
(140,237,cs),
(140,714,l),
(76,714,l),
(76,242,ls),
(76,81,o),
(156,-13,o),
(296,-13,cs)
);
}
);
width = 584;
}
);
metricLeft = "te-canadian";
metricRight = "=|ce-canadian";
note = uni1490;
unicode = 5264;
},
{
glyphname = "c-canadian";
kernLeft = mwestleft;
kernRight = mwestright;
lastChange = "2023-01-13 15:28:12 +0000";
layers = (
{
layerId = "C6C6CC8B-76AD-4983-B2A6-35FF5D496205";
shapes = (
{
closed = 1;
nodes = (
(264,351,o),
(315,398,o),
(315,481,cs),
(315,502,l),
(270,502,l),
(270,476,ls),
(270,420,o),
(240,391,o),
(193,391,cs),
(145,391,o),
(118,420,o),
(118,484,cs),
(118,714,l),
(69.995,714,l),
(70,489,ls),
(70,398,o),
(117,351,o),
(193,351,cs)
);
}
);
width = 364;
}
);
note = uni14A1;
unicode = 5281;
},
{
glyphname = "thSayisi-canadian";
lastChange = "2023-01-13 15:28:12 +0000";
layers = (
{
layerId = "C6C6CC8B-76AD-4983-B2A6-35FF5D496205";
shapes = (
{
closed = 1;
nodes = (
(247,351,o),
(294,398,o),
(294,489,cs),
(294,714,l),
(246,714,l),
(246,484,ls),
(246,420,o),
(219,391,o),
(171,391,cs),
(124,391,o),
(94,420,o),
(94,476,cs),
(94,502,l),
(49,502,l),
(49,481,ls),
(49,398,o),
(100,351,o),
(171,351,cs)
);
}
);
width = 364;
}
);
metricLeft = "=|c-canadian";
metricRight = "=|c-canadian";
note = uni14A2;
unicode = 5282;
},
{
glyphname = "me-canadian";
kernLeft = meleft;
lastChange = "2023-01-13 15:28:12 +0000";
layers = (
{
anchors = (
{
name = middle_center_can;
pos = (208,357);
},
{
name = top_center_can;
pos = (241,714);
},
{
name = top_left_can;
pos = (75,714);
},
{
name = top_right_can;
pos = (405,714);
}
);
layerId = "C6C6CC8B-76AD-4983-B2A6-35FF5D496205";
shapes = (
{
closed = 1;
nodes = (
(437,0,l),
(437,714,l),
(43,714,l),
(43,656,l),
(373,656,l),
(373,0,l)
);
}
);
width = 520;
}
);
metricRight = "nunavuth-canadian";
note = uni14A3;
unicode = 5283;
},
{
glyphname = "mi-canadian";
kernRight = miright;
lastChange = "2023-01-13 15:28:12 +0000";
layers = (
{
anchors = (
{
name = middle_center_can;
pos = (313,357);
},
{
name = top_center_can;
pos = (280,714);
},
{
name = top_left_can;
pos = (116,714);
},
{
name = top_right_can;
pos = (445,714);
}
);
layerId = "C6C6CC8B-76AD-4983-B2A6-35FF5D496205";
shapes = (
{
closed = 1;
nodes = (
(147,0,l),
(147,656,l),
(477,656,l),
(477,714,l),
(83,714,l),
(83,0,l)
);
}
);
width = 520;
}
);
metricLeft = "nunavuth-canadian";
metricRight = "=|me-canadian";
note = uni14A5;
unicode = 5285;
},
{
glyphname = "mo-canadian";
kernLeft = moleft;
lastChange = "2023-01-13 15:28:12 +0000";
layers = (
{
anchors = (
{
name = middle_center_can;
pos = (208,357);
},
{
name = top_center_can;
pos = (241,714);
},
{
name = top_double;
pos = (405,714);
},
{
name = top_left_can;
pos = (75,714);
},
{
name = top_right_can;
pos = (405,714);
}
);
layerId = "C6C6CC8B-76AD-4983-B2A6-35FF5D496205";
shapes = (
{
closed = 1;
nodes = (
(437,0,l),
(437,714,l),
(373,714,l),
(373,58,l),
(43,58,l),
(43,0,l)
);
}
);
width = 520;
}
);
metricLeft = "me-canadian";
metricRight = "nunavuth-canadian";
note = uni14A7;
unicode = 5287;
},
{
glyphname = "ma-canadian";
kernRight = maright;
lastChange = "2023-01-13 15:28:12 +0000";
layers = (
{
anchors = (
{
name = middle_center_can;
pos = (313,357);
},
{
name = top_center_can;
pos = (280,714);
},
{
name = top_left_can;
pos = (116,714);
},
{
name = top_right_can;
pos = (445,714);
}
);
layerId = "C6C6CC8B-76AD-4983-B2A6-35FF5D496205";
shapes = (
{
closed = 1;
nodes = (
(477,0,l),
(477,58,l),
(147,58,l),
(147,714,l),
(83,714,l),
(83,0,l)
);
}
);
width = 520;
}
);
metricLeft = "nunavuth-canadian";
metricRight = "=|me-canadian";
note = uni14AA;
unicode = 5290;
},
{
glyphname = "m-canadian";
kernLeft = mwestleft;
kernRight = mwestright;
lastChange = "2023-01-13 15:28:12 +0000";
layers = (
{
layerId = "C6C6CC8B-76AD-4983-B2A6-35FF5D496205";
shapes = (
{
closed = 1;
nodes = (
(286,401,l),
(118,401,l),
(118,714,l),
(69.995,714,l),
(69.995,357,l),
(286,357,l)
);
}
);
width = 337;
}
);
metricLeft = "pWestCree-canadian";
note = uni14BB;
unicode = 5307;
},
{
glyphname = "mh-canadian";
kernLeft = mwestleft;
kernRight = mwestright;
lastChange = "2023-01-13 15:30:50 +0000";
layers = (
{
layerId = "C6C6CC8B-76AD-4983-B2A6-35FF5D496205";
shapes = (
{
closed = 1;
nodes = (
(268,357,l),
(268,714,l),
(221,714,l),
(221,401,l),
(51,401,l),
(51,357,l)
);
}
);
width = 338;
}
);
metricLeft = "=|m-canadian";
metricRight = "=|m-canadian";
note = uni14BD;
unicode = 5309;
},
{
glyphname = "mAthapascan-canadian";
lastChange = "2023-01-13 15:28:12 +0000";
layers = (
{
layerId = "C6C6CC8B-76AD-4983-B2A6-35FF5D496205";
shapes = (
{
closed = 1;
nodes = (
(304,357,l),
(304,397,l),
(125,397,l),
(125,375,l),
(238,499,ls),
(274,540,o),
(285,575,o),
(285,616,cs),
(285,678,o),
(243,720,o),
(176,720,cs),
(104,720,o),
(61,672,o),
(61,594,c),
(104,594,l),
(104,654,o),
(129,682,o),
(176,682,cs),
(219,682,o),
(242,658,o),
(242,615,cs),
(242,579,o),
(233,554,o),
(198,514,cs),
(75,379,l),
(75,357,l)
);
}
);
width = 357;
}
);
note = uni14BE;
unicode = 5310;
},
{
glyphname = "ne-canadian";
kernLeft = neleft;
lastChange = "2023-01-13 15:28:12 +0000";
layers = (
{
anchors = (
{
name = middle_center_can;
pos = (518,254);
},
{
name = top_center_can;
pos = (509,507);
},
{
name = top_left_can;
pos = (96,507);
},
{
name = top_right_can;
pos = (714,507);
}
);
layerId = "C6C6CC8B-76AD-4983-B2A6-35FF5D496205";
shapes = (
{
closed = 1;
nodes = (
(655,-13,o),
(745,83,o),
(745,239,cs),
(745,394,o),
(657,489,o),
(509,489,cs),
(64,489,l),
(64,431,l),
(413,431,l),
(407,447,l),
(330,415,o),
(291,331,o),
(291,236,cs),
(291,82,o),
(380,-13,o),
(518,-13,cs)
);
},
{
closed = 1;
nodes = (
(414,43,o),
(354,116,o),
(354,238,cs),
(354,357,o),
(414,433,o),
(516,433,cs),
(621,433,o),
(682,360,o),
(682,238,cs),
(682,117,o),
(622,43,o),
(518,43,cs)
);
}
);
width = 815;
}
);
metricRight = "=|ke-canadian";
note = uni14C0;
unicode = 5312;
},
{
glyphname = "ni-canadian";
kernRight = niright;
lastChange = "2023-01-13 15:28:12 +0000";
layers = (
{
anchors = (
{
name = middle_center_can;
pos = (298,254);
},
{
name = top_center_can;
pos = (307,507);
},
{
name = top_left_can;
pos = (102,507);
},
{
name = top_right_can;
pos = (720,507);
}
);
layerId = "C6C6CC8B-76AD-4983-B2A6-35FF5D496205";
shapes = (
{
closed = 1;
nodes = (
(436,-13,o),
(524,82,o),
(524,237,cs),
(524,332,o),
(485,416,o),
(407,448,c),
(403,431,l),
(751,431,l),
(751,489,l),
(306,489,ls),
(157,489,o),
(70,391,o),
(70,237,cs),
(70,83,o),
(160,-13,o),
(297,-13,cs)
);
},
{
closed = 1;
nodes = (
(193,43,o),
(133,117,o),
(133,238,cs),
(133,360,o),
(194,433,o),
(299,433,cs),
(401,433,o),
(461,358,o),
(461,238,cs),
(461,116,o),
(402,43,o),
(297,43,cs)
);
}
);
width = 815;
}
);
metricLeft = "ke-canadian";
metricRight = "=|ne-canadian";
note = uni14C2;
unicode = 5314;
},
{
glyphname = "no-canadian";
kernLeft = noleft;
lastChange = "2023-01-13 15:28:12 +0000";
layers = (
{
anchors = (
{
name = middle_center_can;
pos = (517,254);
},
{
name = top_center_can;
pos = (514,507);
},
{
name = top_double;
pos = (518,507);
},
{
name = top_left_can;
pos = (96,507);
},
{
name = top_right_can;
pos = (714,507);
}
);
layerId = "C6C6CC8B-76AD-4983-B2A6-35FF5D496205";
shapes = (
{
closed = 1;
nodes = (
(512,0,ls),
(658,0,o),
(745,95,o),
(745,250,cs),
(745,406,o),
(656,501,o),
(518,501,cs),
(380,501,o),
(291,406,o),
(291,252,cs),
(291,158,o),
(330,74,o),
(406,41,c),
(413,58,l),
(64,58,l),
(64,0,l)
);
},
{
closed = 1;
nodes = (
(414,56,o),
(354,131,o),
(354,250,cs),
(354,373,o),
(414,445,o),
(518,445,cs),
(622,445,o),
(682,372,o),
(682,250,cs),
(682,128,o),
(621,56,o),
(516,56,cs)
);
}
);
width = 815;
}
);
metricLeft = "ne-canadian";
metricRight = "=|ke-canadian";
note = uni14C4;
unicode = 5316;
},
{
glyphname = "na-canadian";
kernRight = naright;
lastChange = "2023-01-13 15:28:12 +0000";
layers = (
{
anchors = (
{
name = middle_center_can;
pos = (298,254);
},
{
name = top_center_can;
pos = (301,507);
},
{
name = top_double;
pos = (447,507);
},
{
name = top_left_can;
pos = (102,507);
},
{
name = top_right_can;
pos = (720,507);
}
);
layerId = "C6C6CC8B-76AD-4983-B2A6-35FF5D496205";
shapes = (
{
closed = 1;
nodes = (
(751,0,l),
(751,58,l),
(403,58,l),
(408,41,l),
(485,73,o),
(524,157,o),
(524,252,cs),
(524,407,o),
(436,501,o),
(297,501,cs),
(160,501,o),
(70,406,o),
(70,250,cs),
(70,96,o),
(157,0,o),
(304,0,cs)
);
},
{
closed = 1;
nodes = (
(194,56,o),
(133,128,o),
(133,250,cs),
(133,372,o),
(193,445,o),
(297,445,cs),
(402,445,o),
(461,373,o),
(461,250,cs),
(461,131,o),
(401,56,o),
(299,56,cs)
);
}
);
width = 815;
}
);
metricLeft = "ke-canadian";
metricRight = "=|ne-canadian";
note = uni14C7;
unicode = 5319;
},
{
glyphname = "n-canadian";
kernLeft = mwestleft;
kernRight = mwestright;
lastChange = "2023-01-13 15:28:12 +0000";
layers = (
{
layerId = "C6C6CC8B-76AD-4983-B2A6-35FF5D496205";
shapes = (
{
closed = 1;
nodes = (
(433,449,l),
(433,494,l),
(238,494,l),
(240,473,l),
(279,487,o),
(302,535,o),
(302,587,cs),
(302,669,o),
(253,720,o),
(181,720,cs),
(110,720,o),
(60,669,o),
(60,586,cs),
(60,503,o),
(109,449,o),
(187,449,cs)
);
},
{
closed = 1;
nodes = (
(135,487,o),
(103,524,o),
(103,586,cs),
(103,647,o),
(135,683,o),
(182,683,cs),
(228,683,o),
(259,647,o),
(259,585,cs),
(259,523,o),
(228,487,o),
(181,487,cs)
);
}
);
width = 484;
}
);
metricLeft = "=|k-canadian";
note = uni14D0;
unicode = 5328;
},
{
glyphname = "nh-canadian";
kernLeft = mwestleft;
kernRight = mwestright;
lastChange = "2023-01-13 15:30:50 +0000";
layers = (
{
layerId = "C6C6CC8B-76AD-4983-B2A6-35FF5D496205";
shapes = (
{
closed = 1;
nodes = (
(298,449,ls),
(376,449,o),
(425,503,o),
(425,586,cs),
(425,669,o),
(375,720,o),
(304,720,cs),
(232,720,o),
(182,669,o),
(182,587,cs),
(182,535,o),
(206,487,o),
(245,473,c),
(247,494,l),
(51,494,l),
(51,449,l)
);
},
{
closed = 1;
nodes = (
(257,487,o),
(226,523,o),
(226,585,cs),
(226,647,o),
(257,683,o),
(303,683,cs),
(350,683,o),
(382,647,o),
(382,586,cs),
(382,524,o),
(350,487,o),
(304,487,cs)
);
}
);
width = 485;
}
);
metricLeft = "=|n-canadian";
metricRight = "=|n-canadian";
note = uni14D2;
unicode = 5330;
},
{
glyphname = "le-canadian";
kernLeft = neleft;
lastChange = "2023-01-13 15:28:12 +0000";
layers = (
{
anchors = (
{
name = middle_center_can;
pos = (517,254);
},
{
name = top_center_can;
pos = (509,507);
},
{
name = top_left_can;
pos = (96,507);
},
{
name = top_right_can;
pos = (714,507);
}
);
layerId = "C6C6CC8B-76AD-4983-B2A6-35FF5D496205";
shapes = (
{
closed = 1;
nodes = (
(500,0,ls),
(652,0,o),
(745,93,o),
(745,244,cs),
(745,396,o),
(657,489,o),
(497,489,cs),
(64,489,l),
(64,430,l),
(498,430,ls),
(617,430,o),
(682,362,o),
(682,243,cs),
(682,126,o),
(615,57,o),
(497,57,cs),
(454,57,l),
(454,0,l)
);
}
);
width = 815;
}
);
metricLeft = "ne-canadian";
metricRight = "=|ke-canadian";
note = uni14D3;
unicode = 5331;
},
{
glyphname = "li-canadian";
kernRight = niright;
lastChange = "2023-01-13 15:28:12 +0000";
layers = (
{
anchors = (
{
name = middle_center_can;
pos = (298,254);
},
{
name = top_center_can;
pos = (307,507);
},
{
name = top_left_can;
pos = (102,507);
},
{
name = top_right_can;
pos = (720,507);
}
);
layerId = "C6C6CC8B-76AD-4983-B2A6-35FF5D496205";
shapes = (
{
closed = 1;
nodes = (
(362,0,l),
(362,57,l),
(320,57,ls),
(198,57,o),
(134,126,o),
(134,242,cs),
(134,356,o),
(192,430,o),
(319,430,cs),
(751,430,l),
(751,489,l),
(318,489,ls),
(156,489,o),
(70,390,o),
(70,243,cs),
(70,93,o),
(162,0,o),
(315,0,cs)
);
}
);
width = 815;
}
);
metricLeft = "ke-canadian";
metricRight = "=|ne-canadian";
note = uni14D5;
unicode = 5333;
},
{
glyphname = "lo-canadian";
kernLeft = noleft;
lastChange = "2023-01-13 15:28:12 +0000";
layers = (
{
anchors = (
{
name = middle_center_can;
pos = (517,254);
},
{
name = top_center_can;
pos = (514,507);
},
{
name = top_double;
pos = (500,507);
},
{
name = top_left_can;
pos = (96,507);
},
{
name = top_right_can;
pos = (714,507);
}
);
layerId = "C6C6CC8B-76AD-4983-B2A6-35FF5D496205";
shapes = (
{
closed = 1;
nodes = (
(495,0,ls),
(655,0,o),
(745,93,o),
(745,245,cs),
(745,396,o),
(653,489,o),
(500,489,cs),
(454,489,l),
(454,431,l),
(496,431,ls),
(617,431,o),
(682,363,o),
(682,245,cs),
(682,127,o),
(617,58,o),
(496,58,cs),
(64,58,l),
(64,0,l)
);
}
);
width = 815;
}
);
metricLeft = "ne-canadian";
metricRight = "=|ke-canadian";
note = uni14D7;
unicode = 5335;
},
{
glyphname = "la-canadian";
kernRight = naright;
lastChange = "2023-01-13 15:28:12 +0000";
layers = (
{
anchors = (
{
name = middle_center_can;
pos = (298,254);
},
{
name = top_center_can;
pos = (301,507);
},
{
name = top_left_can;
pos = (102,507);
},
{
name = top_right_can;
pos = (720,507);
}
);
layerId = "C6C6CC8B-76AD-4983-B2A6-35FF5D496205";
shapes = (
{
closed = 1;
nodes = (
(751,0,l),
(751,58,l),
(322,58,ls),
(200,58,o),
(134,126,o),
(134,246,cs),
(134,363,o),
(197,431,o),
(317,431,cs),
(362,431,l),
(362,489,l),
(317,489,ls),
(159,489,o),
(70,395,o),
(70,245,cs),
(70,91,o),
(162,0,o),
(321,0,cs)
);
}
);
width = 815;
}
);
metricLeft = "ke-canadian";
metricRight = "=|ne-canadian";
note = uni14DA;
unicode = 5338;
},
{
glyphname = "l-canadian";
kernLeft = mwestleft;
kernRight = mwestright;
lastChange = "2023-01-13 15:28:12 +0000";
layers = (
{
layerId = "C6C6CC8B-76AD-4983-B2A6-35FF5D496205";
shapes = (
{
closed = 1;
nodes = (
(433,357,l),
(433,401,l),
(248,401,ls),
(159,401,o),
(115,449,o),
(115,536,cs),
(115,622,o),
(159,670,o),
(245,670,cs),
(259,670,l),
(259,714,l),
(242,714,ls),
(130,714,o),
(68,646,o),
(68,535,cs),
(68,425,o),
(130,357,o),
(244,357,cs)
);
}
);
width = 484;
}
);
metricLeft = "t-canadian";
metricRight = "m-canadian";
note = uni14EA;
unicode = 5354;
},
{
glyphname = "lWestCree-canadian";
kernLeft = mwestleft;
kernRight = mwestright;
lastChange = "2023-01-13 15:28:12 +0000";
layers = (
{
layerId = "C6C6CC8B-76AD-4983-B2A6-35FF5D496205";
shapes = (
{
closed = 1;
nodes = (
(312,357,l),
(312,389,l),
(108,470,l),
(108,447,l),
(312,523,l),
(312,547,l),
(108,624,l),
(108,601,l),
(312,682,l),
(312,714,l),
(301,714,l),
(70,623,l),
(70,603,l),
(275,526,l),
(275,544,l),
(70,468,l),
(70,448,l),
(301,357,l)
);
}
);
width = 382;
}
);
metricRight = "=|";
note = uni14EB;
unicode = 5355;
},
{
glyphname = "mediall-canadian";
lastChange = "2023-01-13 15:28:12 +0000";
layers = (
{
layerId = "C6C6CC8B-76AD-4983-B2A6-35FF5D496205";
shapes = (
{
closed = 1;
nodes = (
(580,-13,l),
(580,35,l),
(137,207,l),
(137,177,l),
(580,340,l),
(580,373,l),
(137,537,l),
(137,508,l),
(580,680,l),
(580,727,l),
(561,727,l),
(78,539,l),
(78,508,l),
(521,344,l),
(521,369,l),
(78,206,l),
(78,175,l),
(561,-13,l)
);
}
);
width = 658;
}
);
metricRight = "=|";
note = uni14EC;
unicode = 5356;
},
{
glyphname = "se-canadian";
kernRight = seright;
lastChange = "2023-01-13 15:28:12 +0000";
layers = (
{
anchors = (
{
name = top_left_can;
pos = (112,714);
},
{
name = top_right_can;
pos = (420,714);
}
);
layerId = "C6C6CC8B-76AD-4983-B2A6-35FF5D496205";
shapes = (
{
closed = 1;
nodes = (
(452,0,l),
(452,325,l),
(414,325,ls),
(237,325,o),
(144,418,o),
(144,607,cs),
(144,714,l),
(80,714,l),
(80,601,ls),
(80,387,o),
(200,267,o),
(403,267,cs),
(433,267,l),
(388,293,l),
(388,0,l)
);
}
);
width = 535;
}
);
note = uni14ED;
unicode = 5357;
},
{
glyphname = "si-canadian";
kernLeft = sileft;
lastChange = "2023-01-13 15:28:12 +0000";
layers = (
{
anchors = (
{
name = top_left_can;
pos = (116,714);
},
{
name = top_right_can;
pos = (423,714);
}
);
layerId = "C6C6CC8B-76AD-4983-B2A6-35FF5D496205";
shapes = (
{
closed = 1;
nodes = (
(147,0,l),
(147,293,l),
(102,267,l),
(132,267,ls),
(335,267,o),
(455,387,o),
(455,601,cs),
(455,714,l),
(391,714,l),
(391,607,ls),
(391,418,o),
(298,325,o),
(121,325,cs),
(83,325,l),
(83,0,l)
);
}
);
width = 535;
}
);
metricLeft = "=|se-canadian";
metricRight = "=|se-canadian";
note = uni14EF;
unicode = 5359;
},
{
glyphname = "so-canadian";
kernRight = soright;
lastChange = "2023-01-13 15:28:12 +0000";
layers = (
{
anchors = (
{
name = top_double;
pos = (420,714);
},
{
name = top_left_can;
pos = (112,714);
},
{
name = top_right_can;
pos = (420,714);
}
);
layerId = "C6C6CC8B-76AD-4983-B2A6-35FF5D496205";
shapes = (
{
closed = 1;
nodes = (
(144,0,l),
(144,107,ls),
(144,296,o),
(237,389,o),
(414,389,cs),
(452,389,l),
(452,714,l),
(388,714,l),
(388,421,l),
(433,447,l),
(403,447,ls),
(200,447,o),
(80,327,o),
(80,113,cs),
(80,0,l)
);
}
);
width = 535;
}
);
metricLeft = "se-canadian";
metricRight = "se-canadian";
note = uni14F1;
unicode = 5361;
},
{
glyphname = "sa-canadian";
kernLeft = saleft;
kernRight = saright;
lastChange = "2023-01-13 15:28:12 +0000";
layers = (
{
anchors = (
{
name = top_left_can;
pos = (116,714);
},
{
name = top_right_can;
pos = (423,714);
}
);
layerId = "C6C6CC8B-76AD-4983-B2A6-35FF5D496205";
shapes = (
{
closed = 1;
nodes = (
(455,0,l),
(455,113,ls),
(455,327,o),
(335,447,o),
(132,447,cs),
(102,447,l),
(147,421,l),
(147,714,l),
(83,714,l),
(83,389,l),
(121,389,ls),
(298,389,o),
(391,296,o),
(391,107,cs),
(391,0,l)
);
}
);
width = 535;
}
);
metricLeft = "=|se-canadian";
metricRight = "=|se-canadian";
note = uni14F4;
unicode = 5364;
},
{
glyphname = "s-canadian";
kernLeft = mwestleft;
kernRight = mwestright;
lastChange = "2023-01-13 15:28:12 +0000";
layers = (
{
layerId = "C6C6CC8B-76AD-4983-B2A6-35FF5D496205";
shapes = (
{
closed = 1;
nodes = (
(287,357,l),
(287,416,ls),
(287,523,o),
(230,593,o),
(123,593,cs),
(92,593,l),
(118,568,l),
(118,714,l),
(69.995,714,l),
(70,552,l),
(108,552,ls),
(199,552,o),
(240,504,o),
(240,413,cs),
(240,357,l)
);
}
);
width = 357;
}
);
metricRight = "=|";
note = uni1505;
unicode = 5381;
},
{
color = 6;
glyphname = "sAthapascan-canadian";
lastChange = "2023-01-13 15:28:12 +0000";
layers = (
{
layerId = "C6C6CC8B-76AD-4983-B2A6-35FF5D496205";
shapes = (
{
closed = 1;
nodes = (
(267,183,o),
(312,224,o),
(312,279,cs),
(312,323,o),
(290,352,o),
(240,371,cs),
(166,397,ls),
(130,412,o),
(119,429,o),
(119,455,cs),
(119,491,o),
(145,515,o),
(193,515,cs),
(242,515,o),
(269,493,o),
(270,444,c),
(313,444,l),
(312,510,o),
(269,552,o),
(193,552,cs),
(120,552,o),
(76,512,o),
(76,456,cs),
(76,412,o),
(100,381,o),
(147,363,cs),
(220,336,ls),
(256,322,o),
(269,307,o),
(269,278,cs),
(269,241,o),
(241,220,o),
(193,220,cs),
(142,220,o),
(114,241,o),
(113,294,c),
(70,294,l),
(71,223,o),
(113,183,o),
(192,183,cs)
);
}
);
width = 383;
}
);
metricRight = "=|";
note = uni1506;
unicode = 5382;
},
{
glyphname = "sw-canadian";
kernLeft = mwestleft;
kernRight = mwestright;
lastChange = "2023-01-13 15:28:12 +0000";
layers = (
{
layerId = "C6C6CC8B-76AD-4983-B2A6-35FF5D496205";
shapes = (
{
closed = 1;
nodes = (
(118,357,l),
(118,413,ls),
(118,504,o),
(159,552,o),
(250,552,cs),
(287,552,l),
(287,714,l),
(240,714,l),
(240,568,l),
(266,593,l),
(234,593,ls),
(127,593,o),
(70,523,o),
(70,416,cs),
(69.995,357,l)
);
}
);
width = 357;
}
);
metricLeft = "=|s-canadian";
metricRight = "=|s-canadian";
note = uni1507;
unicode = 5383;
},
{
glyphname = "sBlackfoot-canadian";
lastChange = "2023-01-13 15:28:12 +0000";
layers = (
{
layerId = "C6C6CC8B-76AD-4983-B2A6-35FF5D496205";
shapes = (
{
closed = 1;
nodes = (
(295,357,l),
(295,401,l),
(210,401,ls),
(147,401,o),
(118,431,o),
(118,499,cs),
(118,714,l),
(69.995,714,l),
(70,495,ls),
(70,405,o),
(116,357,o),
(206,357,c)
);
}
);
width = 346;
}
);
metricLeft = "ai-canadian";
metricRight = "m-canadian";
note = uni1508;
unicode = 5384;
},
{
glyphname = "moosecreesk-canadian";
kernLeft = mwestleft;
kernRight = mwestright;
lastChange = "2023-01-13 15:28:12 +0000";
layers = (
{
layerId = "C6C6CC8B-76AD-4983-B2A6-35FF5D496205";
shapes = (
{
closed = 1;
nodes = (
(262,225,o),
(314,278,o),
(314,374,cs),
(314,516,o),
(255,592,o),
(129,592,cs),
(98,592,l),
(118,567,l),
(118,714,l),
(71,714,l),
(71,552,l),
(122,552,ls),
(225,552,o),
(258,502,o),
(265,423,c),
(282,414,l),
(274,460,o),
(236,495,o),
(188,495,cs),
(120,495,o),
(70,444,o),
(70,362,cs),
(70,276,o),
(123,225,o),
(191,225,cs)
);
},
{
closed = 1;
nodes = (
(145,262,o),
(113,299,o),
(113,362,cs),
(113,423,o),
(145,459,o),
(192,459,cs),
(237,459,o),
(270,423,o),
(270,361,cs),
(270,300,o),
(241,262,o),
(191,262,cs)
);
}
);
width = 384;
}
);
metricRight = "=|";
note = uni1509;
unicode = 5385;
},
{
glyphname = "skwNaskapi-canadian";
kernLeft = mwestleft;
kernRight = mwestright;
lastChange = "2023-01-13 15:28:12 +0000";
layers = (
{
layerId = "C6C6CC8B-76AD-4983-B2A6-35FF5D496205";
shapes = (
{
closed = 1;
nodes = (
(261,225,o),
(314,276,o),
(314,362,cs),
(314,444,o),
(264,495,o),
(196,495,cs),
(147,495,o),
(110,460,o),
(102,414,c),
(119,423,l),
(126,502,o),
(159,552,o),
(262,552,cs),
(313,552,l),
(313,714,l),
(265,714,l),
(265,567,l),
(286,592,l),
(255,592,ls),
(129,592,o),
(70,516,o),
(70,374,cs),
(70,278,o),
(122,225,o),
(192,225,cs)
);
},
{
closed = 1;
nodes = (
(144,262,o),
(114,300,o),
(114,361,cs),
(114,423,o),
(147,459,o),
(192,459,cs),
(238,459,o),
(270,423,o),
(270,362,cs),
(270,299,o),
(239,262,o),
(192,262,cs)
);
}
);
width = 384;
}
);
metricLeft = "=|moosecreesk-canadian";
metricRight = "=|moosecreesk-canadian";
note = uni150A;
unicode = 5386;
},
{
glyphname = "swNaskapi-canadian";
lastChange = "2023-01-13 15:30:50 +0000";
layers = (
{
layerId = "C6C6CC8B-76AD-4983-B2A6-35FF5D496205";
shapes = (
{
closed = 1;
nodes = (
(305,184,l),
(305,240,ls),
(305,344,o),
(248,413,o),
(141,413,cs),
(111.999,412.992,l),
(132,389,l),
(132,531,l),
(85,531,l),
(85,373,l),
(126,373,ls),
(216,373,o),
(258,327,o),
(258,237,cs),
(258,184,l)
);
},
{
closed = 1;
nodes = (
(305,64,o),
(324,83,o),
(324,108,cs),
(324,132,o),
(305,151,o),
(281,151,cs),
(258,151,o),
(238,132,o),
(238,108,cs),
(238,83,o),
(258,64,o),
(281,64,cs)
);
},
{
closed = 1;
nodes = (
(132,564,o),
(152,583,o),
(152,607,cs),
(152,631,o),
(132,650,o),
(108,650,cs),
(85,650,o),
(65,631,o),
(65,607,cs),
(65,583,o),
(85,564,o),
(108,564,cs)
);
}
);
width = 389;
}
);
metricRight = "=|";
note = uni150B;
unicode = 5387;
},
{
glyphname = "spwaNaskapi-canadian";
lastChange = "2023-01-13 15:30:50 +0000";
layers = (
{
layerId = "C6C6CC8B-76AD-4983-B2A6-35FF5D496205";
shapes = (
{
closed = 1;
nodes = (
(598,0,l),
(598,58,l),
(103,372,l),
(103,342,l),
(598,656,l),
(598,714,l),
(579,714,l),
(38,371,l),
(38,343,l),
(579,0,l)
);
},
{
closed = 1;
nodes = (
(159,506,o),
(178,525,o),
(178,549,cs),
(178,574,o),
(159,593,o),
(135,593,cs),
(112,593,o),
(92,574,o),
(92,549,cs),
(92,525,o),
(112,506,o),
(135,506,cs)
);
},
{
closed = 1;
nodes = (
(341,618,l),
(341,661,ls),
(341,737,o),
(301,786,o),
(223,786,cs),
(200,786,l),
(227,766,l),
(227,866,l),
(181,866,l),
(181,748,l),
(210,748,ls),
(269,748,o),
(294,716,o),
(294,659,cs),
(294,618,l)
);
},
{
closed = 1;
nodes = (
(505,724,o),
(525,742,o),
(525,767,cs),
(525,791,o),
(505,810,o),
(481,810,cs),
(458,810,o),
(438,791,o),
(438,767,cs),
(438,742,o),
(458,724,o),
(481,724,cs)
);
}
);
width = 657;
}
);
metricRight = "pa-canadian";
metricWidth = "pa-canadian";
note = uni150C;
unicode = 5388;
},
{
glyphname = "she-canadian";
kernRight = caright;
lastChange = "2023-01-13 15:28:12 +0000";
layers = (
{
anchors = (
{
name = top_left_can;
pos = (284,714);
},
{
name = top_right_can;
pos = (688,714);
}
);
layerId = "C6C6CC8B-76AD-4983-B2A6-35FF5D496205";
shapes = (
{
closed = 1;
nodes = (
(779,-13,o),
(857,79,o),
(857,243,cs),
(857,309,l),
(793,309,l),
(793,240,ls),
(793,110,o),
(742,44,o),
(650,44,cs),
(554,44,o),
(510,111,o),
(502,241,cs),
(489,471,ls),
(479,635,o),
(413,727,o),
(283,727,cs),
(151,727,o),
(71,634,o),
(71,471,cs),
(71,405,l),
(135,405,l),
(135,476,ls),
(135,602,o),
(188,670,o),
(281,670,cs),
(372,670,o),
(419,602,o),
(426,474,cs),
(439,243,ls),
(449,77,o),
(515,-13,o),
(649,-13,cs)
);
}
);
width = 928;
}
);
metricRight = "=|";
note = uni1510;
unicode = 5392;
},
{
glyphname = "shi-canadian";
kernLeft = coleft;
lastChange = "2023-01-13 15:28:12 +0000";
layers = (
{
anchors = (
{
name = top_left_can;
pos = (243,714);
},
{
name = top_right_can;
pos = (647,714);
}
);
layerId = "C6C6CC8B-76AD-4983-B2A6-35FF5D496205";
shapes = (
{
closed = 1;
nodes = (
(414,-13,o),
(479,77,o),
(489,243,cs),
(502,474,ls),
(510,602,o),
(556,670,o),
(648,670,cs),
(740,670,o),
(793,602,o),
(793,476,cs),
(793,405,l),
(857,405,l),
(857,471,ls),
(857,634,o),
(777,727,o),
(645,727,cs),
(515,727,o),
(449,635,o),
(439,471,cs),
(426,241,ls),
(418,111,o),
(374,44,o),
(278,44,cs),
(186,44,o),
(135,110,o),
(135,240,cs),
(135,309,l),
(71,309,l),
(71,243,ls),
(71,79,o),
(149,-13,o),
(280,-13,cs)
);
}
);
width = 928;
}
);
metricLeft = "she-canadian";
metricRight = "she-canadian";
note = uni1511;
unicode = 5393;
},
{
glyphname = "sho-canadian";
lastChange = "2023-01-13 15:28:12 +0000";
layers = (
{
anchors = (
{
name = top_center_can;
pos = (476,507);
},
{
name = top_left_can;
pos = (281,507);
},
{
name = top_right_can;
pos = (670,507);
}
);
layerId = "C6C6CC8B-76AD-4983-B2A6-35FF5D496205";
shapes = (
{
closed = 1;
nodes = (
(342,43,l),
(205,43,o),
(133,90,o),
(133,180,cs),
(133,251,o),
(173,297,o),
(260,297,cs),
(396,297,o),
(537,134,o),
(696,134,cs),
(813,134,o),
(881,204,o),
(881,307,cs),
(881,431,o),
(781,502,o),
(612,501,c),
(610,446,l),
(747,446,o),
(818,398,o),
(818,309,cs),
(818,238,o),
(778,192,o),
(691,192,cs),
(556,192,o),
(414,354,o),
(255,354,cs),
(138,354,o),
(70,284,o),
(70,182,cs),
(70,57,o),
(171,-13,o),
(340,-13,c)
);
}
);
width = 951;
}
);
metricLeft = "ke-canadian";
metricRight = "=|ke-canadian";
note = uni1513;
unicode = 5395;
},
{
glyphname = "sha-canadian";
lastChange = "2023-01-13 15:28:12 +0000";
layers = (
{
anchors = (
{
name = top_center_can;
pos = (476,507);
},
{
name = top_left_can;
pos = (281,507);
},
{
name = top_right_can;
pos = (671,507);
}
);
layerId = "C6C6CC8B-76AD-4983-B2A6-35FF5D496205";
shapes = (
{
closed = 1;
nodes = (
(781,-14,o),
(881,57,o),
(881,182,cs),
(881,284,o),
(814,354,o),
(696,354,cs),
(537,354,o),
(396,192,o),
(260,192,cs),
(173,192,o),
(133,238,o),
(133,309,cs),
(133,398,o),
(205,447,o),
(342,446,c),
(340,501,l),
(171,502,o),
(70,431,o),
(70,307,cs),
(70,204,o),
(137,134,o),
(255,134,cs),
(414,134,o),
(556,297,o),
(691,297,cs),
(778,297,o),
(818,251,o),
(818,180,cs),
(818,90,o),
(747,42,o),
(610,43,c),
(612,-13,l)
);
}
);
width = 951;
}
);
metricLeft = "ke-canadian";
metricRight = "=|ke-canadian";
note = uni1515;
unicode = 5397;
},
{
glyphname = "sh-canadian";
kernLeft = mwestleft;
kernRight = mwestright;
lastChange = "2023-01-13 15:28:12 +0000";
layers = (
{
layerId = "C6C6CC8B-76AD-4983-B2A6-35FF5D496205";
shapes = (
{
closed = 1;
nodes = (
(587,301,o),
(664,357,o),
(664,455,cs),
(664,533,o),
(610,589,o),
(522,589,cs),
(402,589,o),
(316,479,o),
(213,479,cs),
(151,479,o),
(116,513,o),
(116,568,cs),
(116,638,o),
(172,678,o),
(273,678,c),
(271,722,l),
(146,722,o),
(68,665,o),
(68,567,cs),
(68,489,o),
(123,433,o),
(210,433,cs),
(330,433,o),
(417,544,o),
(519,544,cs),
(582,544,o),
(616,509,o),
(616,454,cs),
(616,384,o),
(560,344,o),
(459,344,c),
(461,301,l)
);
}
);
width = 732;
}
);
metricLeft = "t-canadian";
metricRight = "=|";
note = uni1525;
unicode = 5413;
},
{
glyphname = "ye-canadian";
kernLeft = yeleft;
lastChange = "2023-01-13 15:28:12 +0000";
layers = (
{
anchors = (
{
name = middle_right_can;
pos = (632,357);
},
{
name = top_left_can;
pos = (81,714);
},
{
name = top_right_can;
pos = (456,714);
}
);
layerId = "C6C6CC8B-76AD-4983-B2A6-35FF5D496205";
shapes = (
{
closed = 1;
nodes = (
(487,0,l),
(487,321,l),
(122,321,l),
(125,288,l),
(501,687,l),
(457,726,l),
(49,290,l),
(49,264,l),
(423,264,l),
(423,0,l)
);
}
);
width = 569;
}
);
note = uni1526;
unicode = 5414;
},
{
glyphname = "yi-canadian";
kernRight = yiright;
lastChange = "2023-01-13 15:28:12 +0000";
layers = (
{
anchors = (
{
name = top_left_can;
pos = (114,714);
},
{
name = top_right_can;
pos = (489,714);
}
);
layerId = "C6C6CC8B-76AD-4983-B2A6-35FF5D496205";
shapes = (
{
closed = 1;
nodes = (
(146,0,l),
(146,264,l),
(520,264,l),
(520,290,l),
(113,726,l),
(70,687,l),
(446,289,l),
(447,321,l),
(82,321,l),
(82,0,l)
);
}
);
width = 569;
}
);
metricRight = "=|ye-canadian";
metricWidth = "ye-canadian";
note = uni1528;
unicode = 5416;
},
{
glyphname = "yo-canadian";
kernLeft = yoleft;
lastChange = "2023-01-13 15:28:12 +0000";
layers = (
{
anchors = (
{
name = middle_right_can;
pos = (632,357);
},
{
name = top_double;
pos = (456,714);
},
{
name = top_left_can;
pos = (81,714);
},
{
name = top_right_can;
pos = (456,714);
}
);
layerId = "C6C6CC8B-76AD-4983-B2A6-35FF5D496205";
shapes = (
{
closed = 1;
nodes = (
(500,27,l),
(124,425,l),
(122,393,l),
(487,393,l),
(487,714,l),
(423,714,l),
(423,450,l),
(49,450,l),
(49,424,l),
(457,-12,l)
);
}
);
width = 569;
}
);
metricLeft = "ye-canadian";
metricWidth = "ye-canadian";
note = uni152A;
unicode = 5418;
},
{
glyphname = "ya-canadian";
kernRight = yaright;
lastChange = "2023-01-13 15:28:12 +0000";
layers = (
{
anchors = (
{
name = top_left_can;
pos = (114,714);
},
{
name = top_right_can;
pos = (489,714);
}
);
layerId = "C6C6CC8B-76AD-4983-B2A6-35FF5D496205";
shapes = (
{
closed = 1;
nodes = (
(520,424,l),
(520,450,l),
(146,450,l),
(146,714,l),
(82,714,l),
(82,393,l),
(447,393,l),
(445,426,l),
(69,27,l),
(113,-12,l)
);
}
);
width = 569;
}
);
metricRight = "=|ye-canadian";
metricWidth = "ye-canadian";
note = uni152D;
unicode = 5421;
},
{
glyphname = "y-canadian";
kernLeft = mwestleft;
kernRight = mwestright;
lastChange = "2023-01-13 15:28:12 +0000";
layers = (
{
layerId = "C6C6CC8B-76AD-4983-B2A6-35FF5D496205";
shapes = (
{
closed = 1;
nodes = (
(303,565,l),
(303,582,l),
(119,582,l),
(119,714,l),
(71,714,l),
(71,542,l),
(255,542,l),
(254,572,l),
(70,375,l),
(102,348,l)
);
}
);
width = 346;
}
);
note = uni153E;
unicode = 5438;
},
{
glyphname = "biblecreey-canadian";
lastChange = "2023-01-13 15:28:12 +0000";
layers = (
{
layerId = "C6C6CC8B-76AD-4983-B2A6-35FF5D496205";
shapes = (
{
closed = 1;
nodes = (
(176,661,l),
(150,661,l),
(248,357,l),
(275,357,l),
(373,661,l),
(347,661,l),
(419,357,l),
(461,357,l),
(461,370,l),
(380,714,l),
(348,714,l),
(249,408,l),
(274,408,l),
(175,714,l),
(143,714,l),
(62,370,l),
(62,357,l),
(104,357,l)
);
}
);
width = 523;
}
);
metricRight = "=|";
note = uni153F;
unicode = 5439;
},
{
glyphname = "yWestCree-canadian";
lastChange = "2023-01-13 15:28:12 +0000";
layers = (
{
layerId = "C6C6CC8B-76AD-4983-B2A6-35FF5D496205";
shapes = (
{
closed = 1;
nodes = (
(252,196,l),
(252,342,l),
(389,342,l),
(389,387,l),
(252,387,l),
(252,531,l),
(206,531,l),
(206,387,l),
(68,387,l),
(68,342,l),
(206,342,l),
(206,196,l)
);
}
);
width = 457;
}
);
metricLeft = "shorthorizontalstrokeFinal-canadian";
metricRight = "shorthorizontalstrokeFinal-canadian";
note = uni1540;
unicode = 5440;
},
{
glyphname = "re-canadian";
kernRight = niright;
lastChange = "2023-01-13 15:28:12 +0000";
layers = (
{
anchors = (
{
name = top_center_can;
pos = (300,507);
},
{
name = top_left_can;
pos = (112,507);
},
{
name = top_right_can;
pos = (764,507);
}
);
layerId = "C6C6CC8B-76AD-4983-B2A6-35FF5D496205";
shapes = (
{
closed = 1;
nodes = (
(439,-13,o),
(519,82,o),
(519,237,cs),
(519,431,l),
(796,431,l),
(796,489,l),
(456,489,l),
(456,237,ls),
(456,113,o),
(402,44,o),
(300,44,cs),
(198,44,o),
(143,114,o),
(143,237,cs),
(143,489,l),
(79,489,l),
(79,237,ls),
(79,81,o),
(161,-13,o),
(300,-13,cs)
);
}
);
width = 860;
}
);
metricRight = "=|ne-canadian";
note = uni1542;
unicode = 5442;
},
{
glyphname = "reRCree-canadian";
kernLeft = neleft;
lastChange = "2023-01-13 15:30:50 +0000";
layers = (
{
anchors = (
{
name = top_center_can;
pos = (560,507);
},
{
name = top_left_can;
pos = (96,507);
},
{
name = top_right_can;
pos = (748,507);
}
);
layerId = "C6C6CC8B-76AD-4983-B2A6-35FF5D496205";
shapes = (
{
closed = 1;
nodes = (
(700,-13,o),
(780,81,o),
(780,237,cs),
(780,489,l),
(716,489,l),
(716,237,ls),
(716,114,o),
(663,44,o),
(561,44,cs),
(459,44,o),
(404,111,o),
(404,234,cs),
(404,489,l),
(64,489,l),
(64,431,l),
(341,431,l),
(341,235,ls),
(341,80,o),
(422,-13,o),
(561,-13,cs)
);
}
);
width = 859;
}
);
metricLeft = "ne-canadian";
metricRight = "=|re-canadian";
note = uni1543;
unicode = 5443;
},
{
glyphname = "leWestCree-canadian";
kernLeft = noleft;
lastChange = "2023-01-13 15:30:50 +0000";
layers = (
{
anchors = (
{
name = top_center_can;
pos = (560,507);
},
{
name = top_left_can;
pos = (96,507);
},
{
name = top_right_can;
pos = (748,507);
}
);
layerId = "C6C6CC8B-76AD-4983-B2A6-35FF5D496205";
shapes = (
{
closed = 1;
nodes = (
(404,0,l),
(404,251,ls),
(404,375,o),
(458,445,o),
(560,445,cs),
(662,445,o),
(716,375,o),
(716,252,cs),
(716,0,l),
(780,0,l),
(780,252,ls),
(780,407,o),
(700,501,o),
(561,501,cs),
(422,501,o),
(341,406,o),
(341,250,cs),
(341,58,l),
(64,58,l),
(64,0,l)
);
}
);
width = 859;
}
);
metricLeft = "ne-canadian";
metricRight = "=|re-canadian";
note = uni1544;
unicode = 5444;
},
{
glyphname = "ri-canadian";
kernRight = naright;
lastChange = "2023-01-13 15:28:12 +0000";
layers = (
{
anchors = (
{
name = top_center_can;
pos = (300,507);
},
{
name = top_left_can;
pos = (112,507);
},
{
name = top_right_can;
pos = (764,507);
}
);
layerId = "C6C6CC8B-76AD-4983-B2A6-35FF5D496205";
shapes = (
{
closed = 1;
nodes = (
(143,0,l),
(143,252,ls),
(143,375,o),
(197,445,o),
(299,445,cs),
(401,445,o),
(456,378,o),
(456,254,cs),
(456,0,l),
(796,0,l),
(796,58,l),
(519,58,l),
(519,254,ls),
(519,409,o),
(439,501,o),
(299,501,cs),
(161,501,o),
(79,407,o),
(79,251,cs),
(79,0,l)
);
}
);
width = 860;
}
);
metricLeft = "re-canadian";
metricRight = "=|ne-canadian";
note = uni1546;
unicode = 5446;
},
{
glyphname = "ro-canadian";
lastChange = "2023-01-13 15:28:12 +0000";
layers = (
{
anchors = (
{
name = top_center_can;
pos = (233,714);
}
);
layerId = "C6C6CC8B-76AD-4983-B2A6-35FF5D496205";
shapes = (
{
closed = 1;
nodes = (
(147,0,l),
(147,286,l),
(128,264,l),
(235,264,ls),
(382,264,o),
(473,354,o),
(473,488,cs),
(473,625,o),
(387,714,o),
(226,714,cs),
(83,714,l),
(83,656,l),
(227,656,ls),
(346,656,o),
(409,591,o),
(409,489,cs),
(409,387,o),
(344,322,o),
(228,322,cs),
(83,322,l),
(83,0,l)
);
}
);
width = 540;
}
);
metricLeft = "nunavuth-canadian";
note = uni1548;
unicode = 5448;
},
{
glyphname = "loWestCree-canadian";
lastChange = "2023-01-13 15:28:12 +0000";
layers = (
{
anchors = (
{
name = top_center_can;
pos = (261,714);
},
{
name = top_left_can;
pos = (116,714);
}
);
layerId = "C6C6CC8B-76AD-4983-B2A6-35FF5D496205";
shapes = (
{
closed = 1;
nodes = (
(226,0,ls),
(387,0,o),
(473,89,o),
(473,226,cs),
(473,360,o),
(382,450,o),
(235,450,cs),
(128,450,l),
(147,428,l),
(147,714,l),
(83,714,l),
(83,392,l),
(228,392,ls),
(344,392,o),
(409,327,o),
(409,225,cs),
(409,123,o),
(346,58,o),
(227,58,cs),
(83,58,l),
(83,0,l)
);
}
);
width = 540;
}
);
metricLeft = "nunavuth-canadian";
metricRight = "ro-canadian";
note = uni154A;
unicode = 5450;
},
{
glyphname = "ra-canadian";
lastChange = "2023-01-13 15:30:50 +0000";
layers = (
{
anchors = (
{
name = top_center_can;
pos = (306,714);
},
{
name = top_right_can;
pos = (425,714);
}
);
layerId = "C6C6CC8B-76AD-4983-B2A6-35FF5D496205";
shapes = (
{
closed = 1;
nodes = (
(456,0,l),
(456,322,l),
(312,322,ls),
(195,322,o),
(130,387,o),
(130,489,cs),
(130,591,o),
(194,656,o),
(312,656,cs),
(456,656,l),
(456,714,l),
(314,714,ls),
(153,714,o),
(67,625,o),
(67,488,cs),
(67,354,o),
(158,264,o),
(305,264,cs),
(412,264,l),
(393,286,l),
(393,0,l)
);
}
);
width = 539;
}
);
metricLeft = "=|ro-canadian";
metricRight = "nunavuth-canadian";
note = uni154B;
unicode = 5451;
},
{
glyphname = "laWestCree-canadian";
lastChange = "2023-01-13 15:30:50 +0000";
layers = (
{
anchors = (
{
name = top_center_can;
pos = (425,714);
}
);
layerId = "C6C6CC8B-76AD-4983-B2A6-35FF5D496205";
shapes = (
{
closed = 1;
nodes = (
(456,0,l),
(456,58,l),
(312,58,ls),
(194,58,o),
(130,123,o),
(130,225,cs),
(130,327,o),
(195,392,o),
(312,392,cs),
(456,392,l),
(456,714,l),
(393,714,l),
(393,428,l),
(412,450,l),
(305,450,ls),
(158,450,o),
(67,360,o),
(67,226,cs),
(67,89,o),
(153,0,o),
(314,0,cs)
);
}
);
width = 539;
}
);
metricLeft = "=|ro-canadian";
metricRight = "nunavuth-canadian";
note = uni154D;
unicode = 5453;
},
{
glyphname = "r-canadian";
kernLeft = mwestleft;
kernRight = mwestright;
lastChange = "2023-01-13 15:28:12 +0000";
layers = (
{
layerId = "C6C6CC8B-76AD-4983-B2A6-35FF5D496205";
shapes = (
{
closed = 1;
nodes = (
(259,357,l),
(259,527,l),
(188,527,ls),
(132,527,o),
(105,553,o),
(105,600,cs),
(105,647,o),
(131,674,o),
(188,674,cs),
(259,674,l),
(259,714,l),
(189,714,ls),
(106,714,o),
(60,671,o),
(60,600,cs),
(60,531,o),
(107,487,o),
(184,487,cs),
(238,487,l),
(211,507,l),
(211,357,l)
);
}
);
width = 329;
}
);
metricLeft = "=|k-canadian";
note = uni1550;
unicode = 5456;
},
{
glyphname = "rWestCree-canadian";
kernLeft = mwestleft;
kernRight = mwestright;
lastChange = "2023-01-13 15:28:12 +0000";
layers = (
{
layerId = "C6C6CC8B-76AD-4983-B2A6-35FF5D496205";
shapes = (
{
closed = 1;
nodes = (
(81,357,l),
(312,448,l),
(312,468,l),
(106,544,l),
(106,526,l),
(312,603,l),
(312,623,l),
(81,714,l),
(69.995,714,l),
(70,682,l),
(273,601,l),
(273,624,l),
(70,547,l),
(70,523,l),
(273,447,l),
(273,470,l),
(70,389,l),
(69.995,357,l)
);
}
);
width = 382;
}
);
metricLeft = "=|lWestCree-canadian";
metricRight = "=|lWestCree-canadian";
note = uni1551;
unicode = 5457;
},
{
glyphname = "rMedial-canadian";
lastChange = "2023-01-13 15:28:12 +0000";
layers = (
{
layerId = "C6C6CC8B-76AD-4983-B2A6-35FF5D496205";
shapes = (
{
closed = 1;
nodes = (
(97,-13,l),
(585,175,l),
(585,205,l),
(139,368,l),
(139,345,l),
(585,509,l),
(585,539,l),
(97,727,l),
(78,727,l),
(78,680,l),
(525,508,l),
(525,537,l),
(78,373,l),
(78,340,l),
(525,177,l),
(525,207,l),
(78,35,l),
(78,-13,l)
);
}
);
width = 663;
}
);
metricLeft = "mediall-canadian";
metricRight = "mediall-canadian";
note = uni1552;
unicode = 5458;
},
{
glyphname = "fe-canadian";
kernLeft = ecanleft;
kernRight = ecanright;
lastChange = "2023-01-13 15:28:12 +0000";
layers = (
{
layerId = "C6C6CC8B-76AD-4983-B2A6-35FF5D496205";
shapes = (
{
closed = 1;
nodes = (
(383,0,l),
(722,694,l),
(722,714,l),
(668,714,l),
(357,68,l),
(373,68,l),
(209,373,l),
(178,365,l),
(204,341,o),
(233,331,o),
(265,331,cs),
(356,331,o),
(421,411,o),
(421,529,cs),
(421,649,o),
(359,727,o),
(260,727,cs),
(161,727,o),
(99,649,o),
(99,533,cs),
(99,483,o),
(111,432,o),
(146,371,cs),
(353,0,l)
);
},
{
closed = 1;
nodes = (
(193,380,o),
(153,440,o),
(153,532,cs),
(153,623,o),
(192,677,o),
(260,677,cs),
(329,677,o),
(367,624,o),
(367,529,cs),
(367,434,o),
(328,380,o),
(261,380,cs)
);
}
);
width = 759;
}
);
metricRight = "e-canadian";
note = uni1553;
unicode = 5459;
},
{
glyphname = "fi-canadian";
kernLeft = icanleft;
kernRight = icanright;
lastChange = "2023-01-13 15:28:12 +0000";
layers = (
{
anchors = (
{
name = top_center_can;
pos = (369,714);
},
{
name = top_left_can;
pos = (131,714);
},
{
name = top_right_can;
pos = (636,714);
}
);
layerId = "C6C6CC8B-76AD-4983-B2A6-35FF5D496205";
shapes = (
{
closed = 1;
nodes = (
(359,-13,o),
(421,65,o),
(421,185,cs),
(421,303,o),
(356,383,o),
(265,383,cs),
(233,383,o),
(204,373,o),
(178,349,c),
(209,341,l),
(373,646,l),
(357,646,l),
(668,0,l),
(722,0,l),
(722,20,l),
(383,714,l),
(353,714,l),
(146,343,ls),
(111,282,o),
(99,231,o),
(99,181,cs),
(99,65,o),
(161,-13,o),
(260,-13,cs)
);
},
{
closed = 1;
nodes = (
(192,37,o),
(153,91,o),
(153,182,cs),
(153,274,o),
(193,334,o),
(261,334,cs),
(328,334,o),
(367,280,o),
(367,185,cs),
(367,90,o),
(329,37,o),
(260,37,cs)
);
}
);
width = 759;
}
);
metricLeft = "fe-canadian";
metricRight = "e-canadian";
note = uni1555;
unicode = 5461;
},
{
glyphname = "fo-canadian";
kernLeft = ocanleft;
kernRight = ocanright;
lastChange = "2023-01-13 15:28:12 +0000";
layers = (
{
anchors = (
{
name = top_center_can;
pos = (224,714);
}
);
layerId = "C6C6CC8B-76AD-4983-B2A6-35FF5D496205";
shapes = (
{
closed = 1;
nodes = (
(119,0,l),
(658,343,l),
(658,371,l),
(339,679,ls),
(307,711,o),
(266,727,o),
(223,727,cs),
(128,727,o),
(63,653,o),
(63,528,cs),
(63,409,o),
(125,331,o),
(222,331,cs),
(319,331,o),
(379,410,o),
(379,528,cs),
(379,578,o),
(367,620,o),
(349,649,c),
(332,611,l),
(598,354,l),
(598,370,l),
(99,53,l),
(99,0,l)
);
},
{
closed = 1;
nodes = (
(156,380,o),
(117,434,o),
(117,529,cs),
(117,625,o),
(156,677,o),
(224,677,cs),
(292,677,o),
(330,626,o),
(330,529,cs),
(330,434,o),
(291,380,o),
(224,380,cs)
);
}
);
width = 695;
}
);
metricRight = "o-canadian";
note = uni1557;
unicode = 5463;
},
{
glyphname = "fa-canadian";
kernLeft = acanleft;
kernRight = acanright;
lastChange = "2023-01-13 15:28:12 +0000";
layers = (
{
anchors = (
{
name = top_center_can;
pos = (472,714);
}
);
layerId = "C6C6CC8B-76AD-4983-B2A6-35FF5D496205";
shapes = (
{
closed = 1;
nodes = (
(596,0,l),
(596,53,l),
(95,371,l),
(97,355,l),
(363,613,l),
(346,649,l),
(328,620,o),
(316,578,o),
(316,528,cs),
(316,410,o),
(377,331,o),
(473,331,cs),
(570,331,o),
(632,409,o),
(632,528,cs),
(632,653,o),
(567,727,o),
(472,727,cs),
(429,727,o),
(388,711,o),
(357,679,cs),
(38,371,l),
(38,343,l),
(577,0,l)
);
},
{
closed = 1;
nodes = (
(404,380,o),
(366,434,o),
(366,529,cs),
(366,625,o),
(404,677,o),
(472,677,cs),
(540,677,o),
(578,625,o),
(578,529,cs),
(578,433,o),
(540,380,o),
(472,380,cs)
);
}
);
width = 695;
}
);
metricRight = "=|fo-canadian";
note = uni1559;
unicode = 5465;
},
{
glyphname = "f-canadian";
kernLeft = mwestleft;
kernRight = mwestright;
lastChange = "2023-01-13 15:28:12 +0000";
layers = (
{
layerId = "C6C6CC8B-76AD-4983-B2A6-35FF5D496205";
shapes = (
{
closed = 1;
nodes = (
(344,357,l),
(344,389,l),
(101,544,l),
(101,534,l),
(225,653,l),
(220,681,l),
(210,666,o),
(204,645,o),
(204,620,cs),
(204,558,o),
(236,522,o),
(283,522,cs),
(330,522,o),
(361,559,o),
(361,621,cs),
(361,685,o),
(328,720,o),
(282,720,cs),
(261,720,o),
(240,711,o),
(219,692,cs),
(65,544,l),
(65,527,l),
(331,357,l)
);
},
{
closed = 1;
nodes = (
(252,552,o),
(235,576,o),
(235,621,cs),
(235,665,o),
(252,690,o),
(282,690,cs),
(312,690,o),
(329,667,o),
(329,621,cs),
(329,575,o),
(312,552,o),
(282,552,cs)
);
}
);
width = 424;
}
);
note = uni155D;
unicode = 5469;
},
{
glyphname = "the-canadian";
lastChange = "2023-01-13 15:28:12 +0000";
layers = (
{
anchors = (
{
name = middle_right_can;
pos = (810,357);
},
{
name = top_center_can;
pos = (361,714);
},
{
name = top_left_can;
pos = (107,714);
},
{
name = top_right_can;
pos = (614,714);
}
);
layerId = "C6C6CC8B-76AD-4983-B2A6-35FF5D496205";
shapes = (
{
closed = 1;
nodes = (
(539,-13,o),
(646,102,o),
(646,303,cs),
(646,714,l),
(582,714,l),
(582,299,ls),
(582,133,o),
(502,46,o),
(361,46,cs),
(222,46,o),
(138,132,o),
(138,295,cs),
(138,445,l),
(115,430,l),
(127,368,o),
(179,327,o),
(241,327,cs),
(335,327,o),
(396,405,o),
(396,527,cs),
(396,649,o),
(336,727,o),
(237,727,cs),
(136,727,o),
(76,649,o),
(76,517,cs),
(76,307,ls),
(76,102,o),
(185,-13,o),
(361,-13,cs)
);
},
{
closed = 1;
nodes = (
(168,377,o),
(129,429,o),
(129,527,cs),
(129,623,o),
(168,677,o),
(236,677,cs),
(304,677,o),
(342,623,o),
(342,527,cs),
(342,430,o),
(304,377,o),
(236,377,cs)
);
}
);
width = 722;
}
);
metricLeft = "te-canadian";
metricRight = "te-canadian";
note = uni155E;
unicode = 5470;
},
{
glyphname = "theNCree-canadian";
lastChange = "2023-01-13 15:28:12 +0000";
layers = (
{
layerId = "C6C6CC8B-76AD-4983-B2A6-35FF5D496205";
shapes = (
{
closed = 1;
nodes = (
(540,-13,o),
(646,102,o),
(646,309,cs),
(646,517,ls),
(646,649,o),
(586,727,o),
(485,727,cs),
(386,727,o),
(326,649,o),
(326,527,cs),
(326,406,o),
(387,327,o),
(481,327,cs),
(543,327,o),
(595,368,o),
(607,430,c),
(584,445,l),
(584,295,ls),
(584,131,o),
(502,46,o),
(361,46,cs),
(222,46,o),
(140,134,o),
(140,298,cs),
(140,714,l),
(76,714,l),
(76,299,ls),
(76,101,o),
(185,-13,o),
(361,-13,cs)
);
},
{
closed = 1;
nodes = (
(418,377,o),
(380,432,o),
(380,527,cs),
(380,623,o),
(418,677,o),
(486,677,cs),
(554,677,o),
(592,623,o),
(592,527,cs),
(592,430,o),
(553,377,o),
(486,377,cs)
);
}
);
width = 722;
}
);
metricLeft = "te-canadian";
metricRight = "te-canadian";
note = uni155F;
unicode = 5471;
},
{
glyphname = "thi-canadian";
lastChange = "2023-01-13 15:28:12 +0000";
layers = (
{
anchors = (
{
name = top_center_can;
pos = (359,714);
}
);
layerId = "C6C6CC8B-76AD-4983-B2A6-35FF5D496205";
shapes = (
{
closed = 1;
nodes = (
(336,-13,o),
(396,65,o),
(396,187,cs),
(396,308,o),
(335,387,o),
(241,387,cs),
(179,387,o),
(127,346,o),
(115,284,c),
(138,269,l),
(138,419,ls),
(138,583,o),
(220,668,o),
(361,668,cs),
(500,668,o),
(582,580,o),
(582,416,cs),
(582,0,l),
(646,0,l),
(646,415,ls),
(646,613,o),
(537,727,o),
(361,727,cs),
(182,727,o),
(76,612,o),
(76,405,cs),
(76,197,ls),
(76,65,o),
(136,-13,o),
(237,-13,cs)
);
},
{
closed = 1;
nodes = (
(168,37,o),
(129,91,o),
(129,187,cs),
(129,284,o),
(168,337,o),
(236,337,cs),
(304,337,o),
(342,282,o),
(342,187,cs),
(342,91,o),
(304,37,o),
(236,37,cs)
);
}
);
width = 722;
}
);
metricLeft = "te-canadian";
metricRight = "te-canadian";
note = uni1560;
unicode = 5472;
},
{
glyphname = "thiNCree-canadian";
lastChange = "2023-01-13 15:28:12 +0000";
layers = (
{
anchors = (
{
name = top_center_can;
pos = (359,714);
}
);
layerId = "C6C6CC8B-76AD-4983-B2A6-35FF5D496205";
shapes = (
{
closed = 1;
nodes = (
(586,-13,o),
(646,65,o),
(646,197,cs),
(646,405,ls),
(646,612,o),
(540,727,o),
(361,727,cs),
(185,727,o),
(76,613,o),
(76,415,cs),
(76,0,l),
(140,0,l),
(140,416,ls),
(140,580,o),
(222,668,o),
(361,668,cs),
(502,668,o),
(584,583,o),
(584,419,cs),
(584,269,l),
(607,284,l),
(595,346,o),
(543,387,o),
(481,387,cs),
(387,387,o),
(326,308,o),
(326,187,cs),
(326,65,o),
(386,-13,o),
(485,-13,cs)
);
},
{
closed = 1;
nodes = (
(418,37,o),
(380,91,o),
(380,187,cs),
(380,282,o),
(418,337,o),
(486,337,cs),
(553,337,o),
(592,284,o),
(592,187,cs),
(592,91,o),
(554,37,o),
(486,37,cs)
);
}
);
width = 722;
}
);
metricLeft = "te-canadian";
metricRight = "te-canadian";
note = uni1561;
unicode = 5473;
},
{
glyphname = "tho-canadian";
lastChange = "2023-01-13 15:30:50 +0000";
layers = (
{
anchors = (
{
name = top_center_can;
pos = (307,714);
}
);
layerId = "C6C6CC8B-76AD-4983-B2A6-35FF5D496205";
shapes = (
{
closed = 1;
nodes = (
(271,0,ls),
(490,0,o),
(605,129,o),
(605,363,cs),
(605,583,o),
(498,727,o),
(309,727,cs),
(170,727,o),
(76,644,o),
(76,501,cs),
(76,379,o),
(139,304,o),
(236,304,cs),
(333,304,o),
(394,377,o),
(394,498,cs),
(394,598,o),
(345,683,o),
(244,688,c),
(209,657,l),
(233,670,o),
(267,678,o),
(300,678,cs),
(465,678,o),
(542,556,o),
(542,366,cs),
(542,163,o),
(452,58,o),
(268,58,cs),
(109,58,l),
(109,0,l)
);
},
{
closed = 1;
nodes = (
(168,353,o),
(130,405,o),
(130,504,cs),
(130,602,o),
(177,655,o),
(237,655,cs),
(298,655,o),
(343,603,o),
(343,504,cs),
(343,405,o),
(305,353,o),
(236,353,cs)
);
}
);
width = 674;
}
);
metricRight = "to-canadian";
note = uni1564;
unicode = 5476;
},
{
glyphname = "tha-canadian";
lastChange = "2023-01-13 15:30:50 +0000";
layers = (
{
anchors = (
{
name = top_center_can;
pos = (368,714);
}
);
layerId = "C6C6CC8B-76AD-4983-B2A6-35FF5D496205";
shapes = (
{
closed = 1;
nodes = (
(565,0,l),
(565,58,l),
(407,58,ls),
(222,58,o),
(132,163,o),
(132,366,cs),
(132,556,o),
(210,678,o),
(374,678,cs),
(408,678,o),
(441,670,o),
(466,657,c),
(431,688,l),
(330,683,o),
(281,598,o),
(281,498,cs),
(281,377,o),
(342,304,o),
(438,304,cs),
(536,304,o),
(598,379,o),
(598,501,cs),
(598,644,o),
(504,727,o),
(366,727,cs),
(177,727,o),
(69,583,o),
(69,363,cs),
(69,130,o),
(184,0,o),
(404,0,cs)
);
},
{
closed = 1;
nodes = (
(370,353,o),
(332,405,o),
(332,504,cs),
(332,603,o),
(377,655,o),
(438,655,cs),
(497,655,o),
(545,602,o),
(545,504,cs),
(545,405,o),
(506,353,o),
(438,353,cs)
);
}
);
width = 674;
}
);
metricLeft = "=|theCarrier-canadian";
metricRight = "=|tho-canadian";
note = uni1566;
unicode = 5478;
},
{
glyphname = "th-canadian";
kernLeft = mwestleft;
kernRight = mwestright;
lastChange = "2023-01-13 15:28:12 +0000";
layers = (
{
layerId = "C6C6CC8B-76AD-4983-B2A6-35FF5D496205";
shapes = (
{
closed = 1;
nodes = (
(316,357,l),
(316,397,l),
(243,397,ls),
(152,397,o),
(110,447,o),
(110,538,cs),
(110,628,o),
(148,688,o),
(225,688,cs),
(243,688,o),
(259,684,o),
(271,679,c),
(248,700,l),
(198,697,o),
(175,658,o),
(175,607,cs),
(175,544,o),
(206,509,o),
(254,509,cs),
(301,509,o),
(332,545,o),
(332,607,cs),
(332,681,o),
(287,720,o),
(219,720,cs),
(124,720,o),
(68,647,o),
(68,536,cs),
(68,425,o),
(126,357,o),
(241,357,cs)
);
},
{
closed = 1;
nodes = (
(223,539,o),
(206,562,o),
(206,607,cs),
(206,652,o),
(223,676,o),
(253,676,cs),
(283,676,o),
(300,654,o),
(300,607,cs),
(300,561,o),
(283,539,o),
(254,539,cs)
);
}
);
width = 395;
}
);
metricLeft = "t-canadian";
note = uni156A;
unicode = 5482;
},
{
glyphname = "tthe-canadian";
lastChange = "2023-01-13 15:28:12 +0000";
layers = (
{
anchors = (
{
name = middle_right_can;
pos = (801,357);
},
{
name = top_center_can;
pos = (356,714);
},
{
name = top_left_can;
pos = (108,714);
},
{
name = top_right_can;
pos = (605,714);
}
);
layerId = "C6C6CC8B-76AD-4983-B2A6-35FF5D496205";
shapes = (
{
closed = 1;
nodes = (
(530,-13,o),
(637,102,o),
(637,303,cs),
(637,714,l),
(575,714,l),
(575,300,ls),
(575,134,o),
(494,47,o),
(356,47,cs),
(222,47,o),
(138,135,o),
(138,299,cs),
(138,714,l),
(76,714,l),
(76,299,ls),
(76,101,o),
(185,-13,o),
(356,-13,cs)
);
},
{
closed = 1;
nodes = (
(383,405,l),
(383,714,l),
(330,714,l),
(330,405,l)
);
}
);
width = 713;
}
);
metricLeft = "te-canadian";
metricRight = "te-canadian";
note = uni156B;
unicode = 5483;
},
{
glyphname = "tthi-canadian";
lastChange = "2023-01-13 15:28:12 +0000";
layers = (
{
layerId = "C6C6CC8B-76AD-4983-B2A6-35FF5D496205";
shapes = (
{
closed = 1;
nodes = (
(138,0,l),
(138,414,ls),
(138,580,o),
(221,667,o),
(357,667,cs),
(491,667,o),
(575,579,o),
(575,415,cs),
(575,0,l),
(637,0,l),
(637,415,ls),
(637,612,o),
(528,727,o),
(358,727,cs),
(183,727,o),
(76,613,o),
(76,411,cs),
(76,0,l)
);
},
{
closed = 1;
nodes = (
(383,0,l),
(383,309,l),
(330,309,l),
(330,0,l)
);
}
);
width = 713;
}
);
metricLeft = "te-canadian";
metricRight = "te-canadian";
note = uni156C;
unicode = 5484;
},
{
glyphname = "ttho-canadian";
lastChange = "2023-01-13 15:28:12 +0000";
layers = (
{
anchors = (
{
name = top_center_can;
pos = (320,714);
},
{
name = top_left_can;
pos = (113,714);
},
{
name = top_right_can;
pos = (526,714);
}
);
layerId = "C6C6CC8B-76AD-4983-B2A6-35FF5D496205";
shapes = (
{
closed = 1;
nodes = (
(231,0,ls),
(441,0,o),
(558,134,o),
(558,358,cs),
(558,582,o),
(441,714,o),
(226,714,cs),
(82,714,l),
(82,656,l),
(226,656,ls),
(403,656,o),
(494,549,o),
(494,358,cs),
(494,167,o),
(403,58,o),
(228,58,cs),
(82,58,l),
(82,0,l)
);
},
{
closed = 1;
nodes = (
(317,331,l),
(317,384,l),
(82,384,l),
(82,331,l)
);
}
);
width = 627;
}
);
metricRight = "to-canadian";
note = uni156D;
unicode = 5485;
},
{
glyphname = "ttha-canadian";
lastChange = "2023-01-13 15:28:12 +0000";
layers = (
{
anchors = (
{
name = top_center_can;
pos = (326,714);
},
{
name = top_left_can;
pos = (101,714);
},
{
name = top_right_can;
pos = (514,714);
}
);
layerId = "C6C6CC8B-76AD-4983-B2A6-35FF5D496205";
shapes = (
{
closed = 1;
nodes = (
(545,0,l),
(545,58,l),
(400,58,ls),
(224,58,o),
(133,166,o),
(133,357,cs),
(133,548,o),
(224,656,o),
(399,656,cs),
(545,656,l),
(545,714,l),
(399,714,ls),
(186,714,o),
(69,581,o),
(69,357,cs),
(69,133,o),
(186,0,o),
(398,0,cs)
);
},
{
closed = 1;
nodes = (
(545,331,l),
(545,384,l),
(310,384,l),
(310,331,l)
);
}
);
width = 627;
}
);
metricLeft = "=|to-canadian";
metricRight = "=|ttho-canadian";
note = uni156E;
unicode = 5486;
},
{
glyphname = "tth-canadian";
lastChange = "2023-01-13 15:30:50 +0000";
layers = (
{
layerId = "C6C6CC8B-76AD-4983-B2A6-35FF5D496205";
shapes = (
{
closed = 1;
nodes = (
(636,505,l),
(620,505,l),
(715,371,l),
(749,396,l),
(652,532,l),
(648,515,l),
(798,569,l),
(784,609,l),
(634,554,l),
(649,545,l),
(649,714,l),
(607,714,l),
(607,545,l),
(622,554,l),
(472,609,l),
(458,569,l),
(608,515,l),
(603,532,l),
(506,396,l),
(541,371,l)
);
},
{
closed = 1;
nodes = (
(232,505,l),
(216,505,l),
(313,371,l),
(347,396,l),
(249,532,l),
(244,515,l),
(394,569,l),
(380,609,l),
(231,554,l),
(245,545,l),
(245,714,l),
(203,714,l),
(203,545,l),
(218,554,l),
(68,609,l),
(55,569,l),
(205,515,l),
(200,532,l),
(101,396,l),
(136,371,l)
);
}
);
width = 853;
}
);
metricRight = "=|";
note = uni156F;
unicode = 5487;
},
{
glyphname = "tye-canadian";
lastChange = "2023-01-13 15:28:12 +0000";
layers = (
{
layerId = "C6C6CC8B-76AD-4983-B2A6-35FF5D496205";
shapes = (
{
closed = 1;
nodes = (
(530,-13,o),
(637,102,o),
(637,303,cs),
(637,714,l),
(575,714,l),
(575,301,ls),
(575,134,o),
(494,47,o),
(356,47,cs),
(222,47,o),
(138,135,o),
(138,300,cs),
(138,714,l),
(76,714,l),
(76,299,ls),
(76,101,o),
(185,-13,o),
(356,-13,cs)
);
},
{
closed = 1;
nodes = (
(430,426,o),
(474,473,o),
(474,563,cs),
(474,714,l),
(437,714,l),
(437,565,ls),
(437,497,o),
(410,464,o),
(356,464,cs),
(303,464,o),
(276,498,o),
(276,565,cs),
(276,714,l),
(239,714,l),
(239,563,ls),
(239,473,o),
(284,426,o),
(356,426,cs)
);
}
);
width = 713;
}
);
metricLeft = "te-canadian";
metricRight = "te-canadian";
note = uni1570;
unicode = 5488;
},
{
glyphname = "tyi-canadian";
lastChange = "2023-01-13 15:28:12 +0000";
layers = (
{
layerId = "C6C6CC8B-76AD-4983-B2A6-35FF5D496205";
shapes = (
{
closed = 1;
nodes = (
(138,0,l),
(138,413,ls),
(138,580,o),
(221,667,o),
(357,667,cs),
(491,667,o),
(575,579,o),
(575,414,cs),
(575,0,l),
(637,0,l),
(637,415,ls),
(637,612,o),
(528,727,o),
(358,727,cs),
(183,727,o),
(76,613,o),
(76,411,cs),
(76,0,l)
);
},
{
closed = 1;
nodes = (
(276,0,l),
(276,149,ls),
(276,216,o),
(303,250,o),
(357,250,cs),
(409,250,o),
(437,216,o),
(437,149,cs),
(437,0,l),
(474,0,l),
(474,151,ls),
(474,241,o),
(428,288,o),
(356,288,cs),
(283,288,o),
(239,241,o),
(239,151,cs),
(239,0,l)
);
}
);
width = 713;
}
);
metricLeft = "te-canadian";
metricRight = "te-canadian";
note = uni1571;
unicode = 5489;
},
{
glyphname = "tyo-canadian";
lastChange = "2023-01-13 15:28:12 +0000";
layers = (
{
layerId = "C6C6CC8B-76AD-4983-B2A6-35FF5D496205";
shapes = (
{
closed = 1;
nodes = (
(233,0,ls),
(442,0,o),
(559,134,o),
(559,358,cs),
(559,582,o),
(442,714,o),
(228,714,cs),
(83,714,l),
(83,656,l),
(226,656,ls),
(404,656,o),
(495,549,o),
(495,358,cs),
(495,167,o),
(404,58,o),
(228,58,cs),
(83,58,l),
(83,0,l)
);
},
{
closed = 1;
nodes = (
(169,217,ls),
(261,217,o),
(310,269,o),
(310,357,cs),
(310,445,o),
(260,497,o),
(169,497,cs),
(83,497,l),
(83,458,l),
(164,458,ls),
(237,458,o),
(269,423,o),
(269,357,cs),
(269,291,o),
(237,256,o),
(165,256,cs),
(83,256,l),
(83,217,l)
);
}
);
width = 628;
}
);
metricLeft = "nunavuth-canadian";
metricRight = "theCarrier-canadian";
note = uni1572;
unicode = 5490;
},
{
glyphname = "tya-canadian";
lastChange = "2023-01-13 15:28:12 +0000";
layers = (
{
layerId = "C6C6CC8B-76AD-4983-B2A6-35FF5D496205";
shapes = (
{
closed = 1;
nodes = (
(545,0,l),
(545,58,l),
(402,58,ls),
(224,58,o),
(133,166,o),
(133,357,cs),
(133,548,o),
(224,656,o),
(401,656,cs),
(545,656,l),
(545,714,l),
(399,714,ls),
(187,714,o),
(69,581,o),
(69,357,cs),
(69,133,o),
(187,0,o),
(398,0,cs)
);
},
{
closed = 1;
nodes = (
(545,217,l),
(545,256,l),
(464,256,ls),
(392,256,o),
(360,291,o),
(360,357,cs),
(360,423,o),
(392,458,o),
(464,458,cs),
(545,458,l),
(545,497,l),
(459,497,ls),
(367,497,o),
(318,445,o),
(318,357,cs),
(318,269,o),
(368,217,o),
(459,217,cs)
);
}
);
width = 628;
}
);
metricLeft = "=|theCarrier-canadian";
metricRight = "nunavuth-canadian";
note = uni1573;
unicode = 5491;
},
{
glyphname = "heNunavik-canadian";
lastChange = "2023-01-13 15:28:12 +0000";
layers = (
{
layerId = "C6C6CC8B-76AD-4983-B2A6-35FF5D496205";
shapes = (
{
closed = 1;
nodes = (
(506,0,l),
(742,198,l),
(706,242,l),
(471,45,l),
(512,43,l),
(512,464,ls),
(512,628,o),
(429,727,o),
(293,727,cs),
(157,727,o),
(70,628,o),
(70,467,cs),
(70,311,o),
(156,213,o),
(285,213,cs),
(374,213,o),
(440,266,o),
(456,338,c),
(449,353,l),
(449,0,l)
);
},
{
closed = 1;
nodes = (
(194,269,o),
(133,342,o),
(133,470,cs),
(133,598,o),
(193,671,o),
(291,671,cs),
(391,671,o),
(449,599,o),
(449,470,cs),
(449,342,o),
(389,269,o),
(291,269,cs)
);
}
);
width = 771;
}
);
metricLeft = "ke-canadian";
note = uni1574;
unicode = 5492;
},
{
glyphname = "hiNunavik-canadian";
lastChange = "2023-01-13 15:30:50 +0000";
layers = (
{
anchors = (
{
name = top_center_can;
pos = (479,714);
}
);
layerId = "C6C6CC8B-76AD-4983-B2A6-35FF5D496205";
shapes = (
{
closed = 1;
nodes = (
(322,0,l),
(322,353,l),
(315,338,l),
(331,266,o),
(397,213,o),
(486,213,cs),
(615,213,o),
(700,312,o),
(700,469,cs),
(700,628,o),
(615,727,o),
(479,727,cs),
(342,727,o),
(258,628,o),
(258,464,cs),
(258,46,l),
(299,45,l),
(64,242,l),
(29,198,l),
(265,0,l)
);
},
{
closed = 1;
nodes = (
(381,269,o),
(321,342,o),
(321,470,cs),
(321,599,o),
(380,671,o),
(479,671,cs),
(578,671,o),
(637,598,o),
(637,470,cs),
(637,342,o),
(576,269,o),
(479,269,cs)
);
}
);
width = 770;
}
);
metricLeft = "=|heNunavik-canadian";
metricRight = "=|ke-canadian";
note = uni1575;
unicode = 5493;
},
{
glyphname = "hoNunavik-canadian";
lastChange = "2023-01-13 15:28:12 +0000";
layers = (
{
anchors = (
{
name = top_center_can;
pos = (291,714);
},
{
name = top_right_can;
pos = (480,714);
}
);
layerId = "C6C6CC8B-76AD-4983-B2A6-35FF5D496205";
shapes = (
{
closed = 1;
nodes = (
(429,-13,o),
(512,86,o),
(512,250,cs),
(512,671,l),
(471,669,l),
(706,472,l),
(742,516,l),
(506,714,l),
(449,714,l),
(449,361,l),
(456,376,l),
(440,448,o),
(374,501,o),
(285,501,cs),
(156,501,o),
(70,401,o),
(70,245,cs),
(70,85,o),
(156,-13,o),
(292,-13,cs)
);
},
{
closed = 1;
nodes = (
(193,43,o),
(133,116,o),
(133,244,cs),
(133,372,o),
(194,445,o),
(291,445,cs),
(389,445,o),
(449,372,o),
(449,244,cs),
(449,115,o),
(391,43,o),
(291,43,cs)
);
}
);
width = 771;
}
);
metricLeft = "ke-canadian";
metricRight = "heNunavik-canadian";
note = uni1577;
unicode = 5495;
},
{
glyphname = "haNunavik-canadian";
lastChange = "2023-01-13 15:30:50 +0000";
layers = (
{
anchors = (
{
name = top_center_can;
pos = (480,714);
},
{
name = top_left_can;
pos = (290,714);
}
);
layerId = "C6C6CC8B-76AD-4983-B2A6-35FF5D496205";
shapes = (
{
closed = 1;
nodes = (
(614,-13,o),
(700,86,o),
(700,246,cs),
(700,402,o),
(615,501,o),
(487,501,cs),
(397,501,o),
(331,448,o),
(315,376,c),
(322,361,l),
(322,714,l),
(265,714,l),
(29,516,l),
(64,472,l),
(299,669,l),
(258,668,l),
(258,250,ls),
(258,86,o),
(341,-13,o),
(478,-13,cs)
);
},
{
closed = 1;
nodes = (
(380,43,o),
(321,115,o),
(321,244,cs),
(321,372,o),
(381,445,o),
(479,445,cs),
(576,445,o),
(637,372,o),
(637,244,cs),
(637,116,o),
(578,43,o),
(479,43,cs)
);
}
);
width = 770;
}
);
metricLeft = "=|heNunavik-canadian";
metricRight = "=|ke-canadian";
note = uni1579;
unicode = 5497;
},
{
glyphname = "hNunavik-canadian";
kernLeft = mwestleft;
kernRight = mwestright;
lastChange = "2023-01-13 15:28:12 +0000";
layers = (
{
layerId = "C6C6CC8B-76AD-4983-B2A6-35FF5D496205";
shapes = (
{
closed = 1;
nodes = (
(354,351,o),
(406,402,o),
(406,488,cs),
(406,571,o),
(357,622,o),
(291,622,cs),
(242,622,o),
(204,588,o),
(197,541,c),
(210,541,l),
(210,714,l),
(165,714,l),
(48,615,l),
(71,587,l),
(189,686,l),
(162,686,l),
(162,488,ls),
(162,402,o),
(212,351,o),
(285,351,cs)
);
},
{
closed = 1;
nodes = (
(236,389,o),
(207,422,o),
(207,487,cs),
(207,549,o),
(239,584,o),
(284,584,cs),
(330,584,o),
(363,549,o),
(363,488,cs),
(363,425,o),
(331,389,o),
(285,389,cs)
);
}
);
width = 466;
}
);
metricRight = "k-canadian";
note = uni157B;
unicode = 5499;
},
{
color = 4;
glyphname = "nunavuth-canadian";
lastChange = "2023-01-13 15:28:12 +0000";
layers = (
{
layerId = "C6C6CC8B-76AD-4983-B2A6-35FF5D496205";
shapes = (
{
closed = 1;
nodes = (
(147,342,l),
(535,342,l),
(535,0,l),
(599,0,l),
(599,714,l),
(535,714,l),
(535,399,l),
(147,399,l),
(147,714,l),
(83,714,l),
(83,0,l),
(147,0,l)
);
}
);
width = 682;
}
);
metricRight = "=|";
note = uni157C;
unicode = 5500;
},
{
glyphname = "tlhe-canadian";
lastChange = "2023-01-13 15:28:12 +0000";
layers = (
{
anchors = (
{
name = top_center_can;
pos = (296,714);
}
);
layerId = "C6C6CC8B-76AD-4983-B2A6-35FF5D496205";
shapes = (
{
closed = 1;
nodes = (
(177,0,l),
(318,276,l),
(264,252,l),
(272,251,o),
(280,250,o),
(288,250,cs),
(375,250,o),
(439,296,o),
(458,357,c),
(454,376,l),
(454,0,l),
(517,0,l),
(517,484,ls),
(517,633,o),
(434,727,o),
(297,727,cs),
(157,727,o),
(73,630,o),
(73,487,cs),
(73,362,o),
(140,277,o),
(241,259,c),
(109,0,l)
);
},
{
closed = 1;
nodes = (
(196,306,o),
(136,374,o),
(136,488,cs),
(136,603,o),
(196,671,o),
(295,671,cs),
(395,671,o),
(454,604,o),
(454,489,cs),
(454,374,o),
(394,306,o),
(295,306,cs)
);
}
);
width = 593;
}
);
metricRight = "te-canadian";
note = uni1586;
unicode = 5510;
},
{
glyphname = "tlhi-canadian";
lastChange = "2023-01-13 15:28:12 +0000";
layers = (
{
layerId = "C6C6CC8B-76AD-4983-B2A6-35FF5D496205";
shapes = (
{
closed = 1;
nodes = (
(139,0,l),
(139,376,l),
(134,359,l),
(151,297,o),
(216,250,o),
(305,250,c),
(275,276,l),
(416,0,l),
(484,0,l),
(352,259,l),
(453,277,o),
(520,362,o),
(520,487,cs),
(520,630,o),
(436,727,o),
(296,727,cs),
(159,727,o),
(76,633,o),
(76,484,cs),
(76,0,l)
);
},
{
closed = 1;
nodes = (
(199,306,o),
(139,374,o),
(139,489,cs),
(139,604,o),
(197,671,o),
(298,671,cs),
(397,671,o),
(457,603,o),
(457,488,cs),
(457,374,o),
(397,306,o),
(298,306,cs)
);
}
);
width = 593;
}
);
metricLeft = "te-canadian";
metricRight = "=|tlhe-canadian";
note = uni1587;
unicode = 5511;
},
{
glyphname = "tlho-canadian";
lastChange = "2023-01-13 15:28:12 +0000";
layers = (
{
anchors = (
{
name = top_center_can;
pos = (316,714);
}
);
layerId = "C6C6CC8B-76AD-4983-B2A6-35FF5D496205";
shapes = (
{
closed = 1;
nodes = (
(434,-13,o),
(517,81,o),
(517,230,cs),
(517,714,l),
(454,714,l),
(454,338,l),
(459,355,l),
(442,417,o),
(377,464,o),
(288,464,c),
(318,438,l),
(177,714,l),
(109,714,l),
(241,455,l),
(140,437,o),
(73,352,o),
(73,227,cs),
(73,84,o),
(157,-13,o),
(297,-13,cs)
);
},
{
closed = 1;
nodes = (
(196,43,o),
(136,111,o),
(136,226,cs),
(136,340,o),
(196,408,o),
(295,408,cs),
(394,408,o),
(454,340,o),
(454,225,cs),
(454,110,o),
(395,43,o),
(295,43,cs)
);
}
);
width = 593;
}
);
metricLeft = "tlhe-canadian";
metricRight = "te-canadian";
note = uni1588;
unicode = 5512;
},
{
glyphname = "tlha-canadian";
lastChange = "2023-01-13 15:28:12 +0000";
layers = (
{
layerId = "C6C6CC8B-76AD-4983-B2A6-35FF5D496205";
shapes = (
{
closed = 1;
nodes = (
(436,-13,o),
(520,84,o),
(520,227,cs),
(520,352,o),
(453,437,o),
(352,455,c),
(484,714,l),
(416,714,l),
(275,438,l),
(329,462,l),
(321,463,o),
(313,464,o),
(305,464,cs),
(216,464,o),
(151,417,o),
(134,355,c),
(139,338,l),
(139,714,l),
(76,714,l),
(76,230,ls),
(76,81,o),
(159,-13,o),
(296,-13,cs)
);
},
{
closed = 1;
nodes = (
(197,43,o),
(139,110,o),
(139,225,cs),
(139,340,o),
(199,408,o),
(298,408,cs),
(397,408,o),
(457,340,o),
(457,226,cs),
(457,111,o),
(397,43,o),
(298,43,cs)
);
}
);
width = 593;
}
);
metricLeft = "te-canadian";
note = uni1589;
unicode = 5513;
},
{
glyphname = "reWestCree-canadian";
lastChange = "2023-01-13 15:30:50 +0000";
layers = (
{
layerId = "C6C6CC8B-76AD-4983-B2A6-35FF5D496205";
shapes = (
{
closed = 1;
nodes = (
(502,0,l),
(738,198,l),
(702,242,l),
(467,45,l),
(508,43,l),
(508,472,ls),
(508,631,o),
(427,727,o),
(292,727,cs),
(153,727,o),
(70,631,o),
(70,474,cs),
(70,405,l),
(133,405,l),
(133,479,ls),
(133,599,o),
(190,670,o),
(291,670,cs),
(388,670,o),
(445,599,o),
(445,478,cs),
(445,0,l)
);
}
);
width = 767;
}
);
metricLeft = "ce-canadian";
metricRight = "heNunavik-canadian";
note = uni158A;
unicode = 5514;
},
{
glyphname = "riWestCree-canadian";
lastChange = "2023-01-13 15:28:12 +0000";
layers = (
{
layerId = "C6C6CC8B-76AD-4983-B2A6-35FF5D496205";
shapes = (
{
closed = 1;
nodes = (
(322,0,l),
(322,478,ls),
(322,599,o),
(379,670,o),
(478,670,cs),
(579,670,o),
(633,600,o),
(633,479,cs),
(633,405,l),
(696,405,l),
(696,474,ls),
(696,630,o),
(616,727,o),
(479,727,cs),
(340,727,o),
(258,630,o),
(258,471,cs),
(258,43,l),
(299,45,l),
(64,242,l),
(29,198,l),
(265,0,l)
);
}
);
width = 766;
}
);
metricLeft = "=|heNunavik-canadian";
metricRight = "=|ce-canadian";
note = uni158B;
unicode = 5515;
},
{
glyphname = "roWestCree-canadian";
lastChange = "2023-01-13 15:30:50 +0000";
layers = (
{
layerId = "C6C6CC8B-76AD-4983-B2A6-35FF5D496205";
shapes = (
{
closed = 1;
nodes = (
(427,-13,o),
(508,81,o),
(508,243,cs),
(508,671,l),
(467,669,l),
(702,472,l),
(738,516,l),
(502,714,l),
(445,714,l),
(445,236,ls),
(445,112,o),
(388,44,o),
(291,44,cs),
(188,44,o),
(133,114,o),
(133,238,cs),
(133,309,l),
(70,309,l),
(70,239,ls),
(70,83,o),
(150,-13,o),
(291,-13,cs)
);
}
);
width = 767;
}
);
metricLeft = "ce-canadian";
metricRight = "heNunavik-canadian";
note = uni158C;
unicode = 5516;
},
{
glyphname = "raWestCree-canadian";
lastChange = "2023-01-13 15:28:12 +0000";
layers = (
{
layerId = "C6C6CC8B-76AD-4983-B2A6-35FF5D496205";
shapes = (
{
closed = 1;
nodes = (
(616,-13,o),
(696,82,o),
(696,240,cs),
(696,309,l),
(633,309,l),
(633,237,ls),
(633,112,o),
(579,44,o),
(478,44,cs),
(377,44,o),
(322,113,o),
(322,235,cs),
(322,714,l),
(265,714,l),
(29,516,l),
(64,472,l),
(299,669,l),
(258,671,l),
(258,242,ls),
(258,81,o),
(339,-13,o),
(478,-13,cs)
);
}
);
width = 766;
}
);
metricLeft = "=|heNunavik-canadian";
metricRight = "=|ce-canadian";
note = uni158D;
unicode = 5517;
},
{
glyphname = "ng-canadian";
kernLeft = mwestleft;
kernRight = mwestright;
lastChange = "2023-01-13 15:28:12 +0000";
layers = (
{
layerId = "C6C6CC8B-76AD-4983-B2A6-35FF5D496205";
shapes = (
{
closed = 1;
nodes = (
(548,225,o),
(598,270,o),
(598,353,cs),
(598,376,l),
(553,376,l),
(553,348,ls),
(553,292,o),
(523,264,o),
(476,264,cs),
(428,264,o),
(400,293,o),
(400,356,cs),
(400,494,l),
(239,494,l),
(241,474,l),
(279,488,o),
(302,536,o),
(302,587,cs),
(302,669,o),
(253,720,o),
(181,720,cs),
(110,720,o),
(60,669,o),
(60,586,cs),
(60,503,o),
(109,449,o),
(187,449,cs),
(367,449,l),
(353,465,l),
(353,361,ls),
(353,271,o),
(400,225,o),
(476,225,cs)
);
},
{
closed = 1;
nodes = (
(135,487,o),
(103,524,o),
(103,586,cs),
(103,647,o),
(135,683,o),
(182,683,cs),
(228,683,o),
(259,647,o),
(259,585,cs),
(259,523,o),
(228,487,o),
(181,487,cs)
);
}
);
width = 647;
}
);
metricLeft = "n-canadian";
metricRight = "c-canadian";
note = uni1595;
unicode = 5525;
},
{
glyphname = "nng-canadian";
kernLeft = mwestleft;
kernRight = mwestright;
lastChange = "2023-01-13 15:30:50 +0000";
layers = (
{
layerId = "C6C6CC8B-76AD-4983-B2A6-35FF5D496205";
shapes = (
{
closed = 1;
nodes = (
(835,225,o),
(885,270,o),
(885,353,cs),
(885,376,l),
(840,376,l),
(840,348,ls),
(840,292,o),
(810,264,o),
(763,264,cs),
(716,264,o),
(688,293,o),
(688,356,cs),
(688,494,l),
(529,494,l),
(531,474,l),
(569,488,o),
(592,536,o),
(592,587,cs),
(592,670,o),
(543,720,o),
(470,720,cs),
(399,720,o),
(350,669,o),
(350,587,cs),
(350,535,o),
(373,488,o),
(411,473,c),
(413,494,l),
(239,494,l),
(241,474,l),
(279,488,o),
(302,536,o),
(302,587,cs),
(302,669,o),
(253,720,o),
(181,720,cs),
(110,720,o),
(60,669,o),
(60,586,cs),
(60,503,o),
(109,449,o),
(187,449,cs),
(640,449,l),
(640,361,ls),
(640,271,o),
(687,225,o),
(764,225,cs)
);
},
{
closed = 1;
nodes = (
(135,487,o),
(103,524,o),
(103,586,cs),
(103,647,o),
(135,683,o),
(182,683,cs),
(228,683,o),
(259,647,o),
(259,585,cs),
(259,523,o),
(228,487,o),
(181,487,cs)
);
},
{
closed = 1;
nodes = (
(424,487,o),
(393,524,o),
(393,586,cs),
(393,647,o),
(425,683,o),
(472,683,cs),
(517,683,o),
(549,647,o),
(549,585,cs),
(549,523,o),
(518,487,o),
(471,487,cs)
);
}
);
width = 934;
}
);
metricLeft = "n-canadian";
metricRight = "c-canadian";
note = uni1596;
unicode = 5526;
},
{
glyphname = "sheSayisi-canadian";
lastChange = "2023-01-13 15:28:12 +0000";
layers = (
{
anchors = (
{
name = middle_right_can;
pos = (680,357);
},
{
name = top_center_can;
pos = (297,714);
}
);
layerId = "C6C6CC8B-76AD-4983-B2A6-35FF5D496205";
shapes = (
{
closed = 1;
nodes = (
(517,0,l),
(517,465,ls),
(517,629,o),
(437,727,o),
(297,727,cs),
(157,727,o),
(70,627,o),
(70,457,cs),
(70,298,o),
(137,214,o),
(237,214,cs),
(324,214,o),
(383,280,o),
(379,425,c),
(339,425,l),
(340,305,o),
(298,269,o),
(244,269,cs),
(174,269,o),
(132,329,o),
(132,458,cs),
(132,599,o),
(193,671,o),
(295,671,cs),
(398,671,o),
(454,599,o),
(454,467,cs),
(454,0,l)
);
}
);
width = 593;
}
);
metricLeft = "ke-canadian";
metricRight = "te-canadian";
note = uni1597;
unicode = 5527;
},
{
glyphname = "shiSayisi-canadian";
lastChange = "2023-01-13 15:28:12 +0000";
layers = (
{
layerId = "C6C6CC8B-76AD-4983-B2A6-35FF5D496205";
shapes = (
{
closed = 1;
nodes = (
(140,0,l),
(140,467,ls),
(140,599,o),
(196,671,o),
(299,671,cs),
(401,671,o),
(461,601,o),
(461,460,cs),
(461,332,o),
(419,269,o),
(349,269,cs),
(296,269,o),
(253,305,o),
(254,425,c),
(214,425,l),
(211,280,o),
(270,214,o),
(356,214,cs),
(456,214,o),
(523,300,o),
(523,459,cs),
(523,629,o),
(438,727,o),
(299,727,cs),
(158,727,o),
(76,629,o),
(76,465,cs),
(76,0,l)
);
}
);
width = 593;
}
);
metricLeft = "te-canadian";
metricRight = "=|ke-canadian";
note = uni1598;
unicode = 5528;
},
{
glyphname = "shoSayisi-canadian";
lastChange = "2023-01-13 15:28:12 +0000";
layers = (
{
anchors = (
{
name = top_center_can;
pos = (294,714);
},
{
name = top_left_can;
pos = (101,714);
},
{
name = top_right_can;
pos = (486,714);
}
);
layerId = "C6C6CC8B-76AD-4983-B2A6-35FF5D496205";
shapes = (
{
closed = 1;
nodes = (
(435,-13,o),
(517,85,o),
(517,249,cs),
(517,714,l),
(454,714,l),
(454,247,ls),
(454,115,o),
(397,43,o),
(294,43,cs),
(193,43,o),
(132,113,o),
(132,254,cs),
(132,382,o),
(174,445,o),
(244,445,cs),
(298,445,o),
(340,409,o),
(339,289,c),
(379,289,l),
(383,434,o),
(324,500,o),
(237,500,cs),
(137,500,o),
(70,414,o),
(70,253,cs),
(70,84,o),
(155,-13,o),
(294,-13,cs)
);
}
);
width = 593;
}
);
metricLeft = "ke-canadian";
metricRight = "te-canadian";
note = uni1599;
unicode = 5529;
},
{
glyphname = "shaSayisi-canadian";
lastChange = "2023-01-13 15:28:12 +0000";
layers = (
{
layerId = "C6C6CC8B-76AD-4983-B2A6-35FF5D496205";
shapes = (
{
closed = 1;
nodes = (
(436,-13,o),
(523,87,o),
(523,257,cs),
(523,416,o),
(457,500,o),
(357,500,cs),
(271,500,o),
(211,434,o),
(214,289,c),
(254,289,l),
(253,409,o),
(296,445,o),
(349,445,cs),
(419,445,o),
(461,385,o),
(461,256,cs),
(461,115,o),
(400,43,o),
(298,43,cs),
(195,43,o),
(140,115,o),
(140,247,cs),
(140,714,l),
(76,714,l),
(76,249,ls),
(76,85,o),
(157,-13,o),
(296,-13,cs)
);
}
);
width = 593;
}
);
metricLeft = "te-canadian";
metricRight = "=|ke-canadian";
note = uni159A;
unicode = 5530;
},
{
glyphname = "theWoodScree-canadian";
lastChange = "2023-01-13 15:28:12 +0000";
layers = (
{
layerId = "C6C6CC8B-76AD-4983-B2A6-35FF5D496205";
shapes = (
{
closed = 1;
nodes = (
(665,-13,o),
(755,83,o),
(755,239,cs),
(755,394,o),
(667,489,o),
(519,489,cs),
(74,489,l),
(74,434,l),
(423,434,l),
(417,447,l),
(340,415,o),
(301,331,o),
(301,236,cs),
(301,82,o),
(390,-13,o),
(528,-13,cs)
);
},
{
closed = 1;
nodes = (
(424,43,o),
(364,116,o),
(364,238,cs),
(364,358,o),
(424,433,o),
(526,433,cs),
(631,433,o),
(692,360,o),
(692,238,cs),
(692,117,o),
(632,43,o),
(528,43,cs)
);
},
{
closed = 1;
nodes = (
(744,659,l),
(744,714,l),
(74,714,l),
(74,659,l)
);
}
);
width = 829;
}
);
note = uni159B;
unicode = 5531;
},
{
glyphname = "thiWoodScree-canadian";
kernRight = niright;
lastChange = "2023-01-13 15:28:12 +0000";
layers = (
{
layerId = "C6C6CC8B-76AD-4983-B2A6-35FF5D496205";
shapes = (
{
closed = 1;
nodes = (
(440,-13,o),
(528,82,o),
(528,237,cs),
(528,332,o),
(488,416,o),
(411,448,c),
(406,434,l),
(755,434,l),
(755,489,l),
(310,489,ls),
(161,489,o),
(74,392,o),
(74,238,cs),
(74,83,o),
(163,-13,o),
(301,-13,cs)
);
},
{
closed = 1;
nodes = (
(197,43,o),
(137,117,o),
(137,238,cs),
(137,360,o),
(198,433,o),
(303,433,cs),
(405,433,o),
(465,358,o),
(465,238,cs),
(465,116,o),
(405,43,o),
(301,43,cs)
);
},
{
closed = 1;
nodes = (
(755,659,l),
(755,714,l),
(85,714,l),
(85,659,l)
);
}
);
width = 829;
}
);
metricLeft = "theWoodScree-canadian";
metricRight = "theWoodScree-canadian";
note = uni159C;
unicode = 5532;
},
{
glyphname = "thoWoodScree-canadian";
lastChange = "2023-01-13 15:28:12 +0000";
layers = (
{
layerId = "C6C6CC8B-76AD-4983-B2A6-35FF5D496205";
shapes = (
{
closed = 1;
nodes = (
(522,0,ls),
(668,0,o),
(755,95,o),
(755,250,cs),
(755,406,o),
(666,501,o),
(528,501,cs),
(390,501,o),
(301,406,o),
(301,252,cs),
(301,158,o),
(340,74,o),
(416,41,c),
(423,55,l),
(74,55,l),
(74,0,l)
);
},
{
closed = 1;
nodes = (
(424,56,o),
(364,131,o),
(364,250,cs),
(364,373,o),
(424,445,o),
(528,445,cs),
(632,445,o),
(692,372,o),
(692,250,cs),
(692,128,o),
(631,56,o),
(526,56,cs)
);
},
{
closed = 1;
nodes = (
(744,659,l),
(744,714,l),
(74,714,l),
(74,659,l)
);
}
);
width = 829;
}
);
metricLeft = "theWoodScree-canadian";
metricRight = "theWoodScree-canadian";
note = uni159D;
unicode = 5533;
},
{
glyphname = "thaWoodScree-canadian";
lastChange = "2023-01-13 15:28:12 +0000";
layers = (
{
layerId = "C6C6CC8B-76AD-4983-B2A6-35FF5D496205";
shapes = (
{
closed = 1;
nodes = (
(755,0,l),
(755,55,l),
(406,55,l),
(412,41,l),
(488,73,o),
(528,157,o),
(528,252,cs),
(528,407,o),
(440,501,o),
(301,501,cs),
(163,501,o),
(74,406,o),
(74,250,cs),
(74,96,o),
(161,0,o),
(308,0,cs)
);
},
{
closed = 1;
nodes = (
(198,56,o),
(137,128,o),
(137,250,cs),
(137,372,o),
(197,445,o),
(301,445,cs),
(405,445,o),
(465,373,o),
(465,250,cs),
(465,131,o),
(405,56,o),
(303,56,cs)
);
},
{
closed = 1;
nodes = (
(755,659,l),
(755,714,l),
(85,714,l),
(85,659,l)
);
}
);
width = 829;
}
);
metricLeft = "theWoodScree-canadian";
metricRight = "theWoodScree-canadian";
note = uni159E;
unicode = 5534;
},
{
glyphname = "thWoodScree-canadian";
lastChange = "2023-01-13 15:28:12 +0000";
layers = (
{
layerId = "C6C6CC8B-76AD-4983-B2A6-35FF5D496205";
shapes = (
{
closed = 1;
nodes = (
(443,357,l),
(443,399,l),
(248,399,l),
(250,381,l),
(289,395,o),
(312,442,o),
(312,495,cs),
(312,577,o),
(263,628,o),
(191,628,cs),
(120,628,o),
(70,576,o),
(70,493,cs),
(70,410,o),
(119,357,o),
(197,357,cs)
);
},
{
closed = 1;
nodes = (
(145,394,o),
(113,431,o),
(113,493,cs),
(113,555,o),
(145,590,o),
(192,590,cs),
(238,590,o),
(269,555,o),
(269,493,cs),
(269,431,o),
(238,394,o),
(191,394,cs)
);
},
{
closed = 1;
nodes = (
(442,700,l),
(442,742,l),
(75,742,l),
(75,700,l)
);
}
);
width = 513;
}
);
metricRight = "=|";
note = uni159F;
unicode = 5535;
},
{
glyphname = "lhi-canadian";
kernRight = niright;
lastChange = "2023-01-13 15:28:12 +0000";
layers = (
{
anchors = (
{
name = top_center_can;
pos = (478,714);
},
{
name = top_right_can;
pos = (566,714);
}
);
layerId = "C6C6CC8B-76AD-4983-B2A6-35FF5D496205";
shapes = (
{
closed = 1;
nodes = (
(362,0,l),
(362,57,l),
(320,57,ls),
(198,57,o),
(134,126,o),
(134,242,cs),
(134,356,o),
(192,430,o),
(319,430,cs),
(751,430,l),
(751,483,l),
(574,747,l),
(526,714,l),
(704,450,l),
(702,489,l),
(318,489,ls),
(156,489,o),
(70,390,o),
(70,242,cs),
(70,93,o),
(162,0,o),
(315,0,cs)
);
}
);
width = 815;
}
);
metricLeft = "ke-canadian";
metricRight = "=|ne-canadian";
note = uni15A0;
unicode = 5536;
},
{
glyphname = "lho-canadian";
kernLeft = noleft;
lastChange = "2023-01-13 15:28:12 +0000";
layers = (
{
anchors = (
{
name = top_center_can;
pos = (396,507);
},
{
name = top_right_can;
pos = (511,507);
}
);
layerId = "C6C6CC8B-76AD-4983-B2A6-35FF5D496205";
shapes = (
{
closed = 1;
nodes = (
(289,-226,l),
(112,38,l),
(113,0,l),
(495,0,ls),
(655,0,o),
(745,93,o),
(745,245,cs),
(745,396,o),
(653,488,o),
(500,488,cs),
(454,488,l),
(454,431,l),
(496,431,ls),
(617,431,o),
(682,362,o),
(682,246,cs),
(682,127,o),
(617,58,o),
(496,58,cs),
(64,58,l),
(64,6,l),
(242,-258,l)
);
}
);
width = 815;
}
);
metricLeft = "ne-canadian";
metricRight = "=|ke-canadian";
note = uni15A2;
unicode = 5538;
},
{
glyphname = "lha-canadian";
kernRight = naright;
lastChange = "2023-01-13 15:28:12 +0000";
layers = (
{
anchors = (
{
name = top_center_can;
pos = (422,507);
},
{
name = top_left_can;
pos = (306,507);
}
);
layerId = "C6C6CC8B-76AD-4983-B2A6-35FF5D496205";
shapes = (
{
closed = 1;
nodes = (
(751,6,l),
(751,58,l),
(322,58,ls),
(200,58,o),
(134,126,o),
(134,246,cs),
(134,363,o),
(197,431,o),
(317,431,cs),
(362,431,l),
(362,489,l),
(317,489,ls),
(159,489,o),
(70,395,o),
(70,245,cs),
(70,91,o),
(162,0,o),
(321,0,cs),
(702,0,l),
(704,39,l),
(526,-226,l),
(574,-258,l)
);
}
);
width = 815;
}
);
metricLeft = "ke-canadian";
metricRight = "=|ne-canadian";
note = uni15A4;
unicode = 5540;
},
{
glyphname = "lh-canadian";
kernLeft = mwestleft;
kernRight = mwestright;
lastChange = "2023-01-13 15:30:50 +0000";
layers = (
{
layerId = "C6C6CC8B-76AD-4983-B2A6-35FF5D496205";
shapes = (
{
closed = 1;
nodes = (
(449,362,l),
(449,401,l),
(247,401,ls),
(156,401,o),
(115,451,o),
(115,536,cs),
(115,621,o),
(156,670,o),
(243,670,cs),
(257,670,l),
(257,714,l),
(241,714,ls),
(128,714,o),
(68,644,o),
(68,536,cs),
(68,427,o),
(128,357,o),
(243,357,cs),
(419,357,l),
(415,385,l),
(319,238,l),
(353,215,l)
);
}
);
width = 517;
}
);
metricLeft = "t-canadian";
metricRight = "=|";
note = uni15A6;
unicode = 5542;
},
{
glyphname = "theThCree-canadian";
lastChange = "2023-01-13 15:28:12 +0000";
layers = (
{
anchors = (
{
name = top_left_can;
pos = (81,714);
},
{
name = top_right_can;
pos = (456,714);
}
);
layerId = "C6C6CC8B-76AD-4983-B2A6-35FF5D496205";
shapes = (
{
closed = 1;
nodes = (
(487,0,l),
(487,121,l),
(571,121,l),
(571,163,l),
(487,163,l),
(487,321,l),
(127,321,l),
(125,288,l),
(501,687,l),
(457,726,l),
(49,290,l),
(49,264,l),
(423,264,l),
(423,163,l),
(171,163,l),
(171,121,l),
(423,121,l),
(423,0,l)
);
}
);
width = 608;
}
);
metricLeft = "ye-canadian";
note = uni15A7;
unicode = 5543;
},
{
glyphname = "thiThCree-canadian";
kernRight = yiright;
lastChange = "2023-01-13 15:28:12 +0000";
layers = (
{
anchors = (
{
name = top_left_can;
pos = (153,714);
},
{
name = top_right_can;
pos = (528,714);
}
);
layerId = "C6C6CC8B-76AD-4983-B2A6-35FF5D496205";
shapes = (
{
closed = 1;
nodes = (
(185,0,l),
(185,121,l),
(438,121,l),
(438,163,l),
(185,163,l),
(185,263.995,l),
(559,264,l),
(559,290,l),
(152,726,l),
(109,687,l),
(486,287,l),
(483,321,l),
(121,321,l),
(121,163,l),
(37,163,l),
(37,121,l),
(121,121,l),
(121,0,l)
);
}
);
width = 608;
}
);
metricLeft = "=|theThCree-canadian";
metricRight = "=|ye-canadian";
note = uni15A8;
unicode = 5544;
},
{
glyphname = "thoThCree-canadian";
kernLeft = yoleft;
lastChange = "2023-01-13 15:28:12 +0000";
layers = (
{
anchors = (
{
name = top_left_can;
pos = (81,714);
},
{
name = top_right_can;
pos = (456,714);
}
);
layerId = "C6C6CC8B-76AD-4983-B2A6-35FF5D496205";
shapes = (
{
closed = 1;
nodes = (
(500,27,l),
(124,425,l),
(126,393,l),
(487,393,l),
(487,551,l),
(571,551,l),
(571,593,l),
(487,593,l),
(487,714,l),
(423,714,l),
(423,593,l),
(171,593,l),
(171,551,l),
(423,551,l),
(423,450,l),
(49,450,l),
(49,424,l),
(457,-12,l)
);
}
);
width = 608;
}
);
metricLeft = "ye-canadian";
metricRight = "theThCree-canadian";
note = uni15AA;
unicode = 5546;
},
{
glyphname = "thaThCree-canadian";
kernRight = yaright;
lastChange = "2023-01-13 15:28:12 +0000";
layers = (
{
anchors = (
{
name = top_left_can;
pos = (153,714);
},
{
name = top_right_can;
pos = (528,714);
}
);
layerId = "C6C6CC8B-76AD-4983-B2A6-35FF5D496205";
shapes = (
{
closed = 1;
nodes = (
(559,424,l),
(559,450,l),
(185,450.005,l),
(185,551,l),
(438,551,l),
(438,593,l),
(185,593,l),
(185,714,l),
(121,714,l),
(121,593,l),
(37,593,l),
(37,551,l),
(121,551,l),
(121,393,l),
(483,393,l),
(485,425,l),
(109,27,l),
(152,-12,l)
);
}
);
width = 608;
}
);
metricLeft = "=|theThCree-canadian";
metricRight = "=|ye-canadian";
note = uni15AC;
unicode = 5548;
},
{
glyphname = "thThCree-canadian";
kernLeft = mwestleft;
kernRight = mwestright;
lastChange = "2023-01-13 15:28:12 +0000";
layers = (
{
layerId = "C6C6CC8B-76AD-4983-B2A6-35FF5D496205";
shapes = (
{
closed = 1;
nodes = (
(332,565,l),
(332,582,l),
(148,582,l),
(148,634,l),
(271,634,l),
(271,661,l),
(148,661,l),
(148,714,l),
(100,714,l),
(100,661,l),
(58,661,l),
(58,634,l),
(100,634,l),
(100,542,l),
(284,542,l),
(278,568,l),
(99,375,l),
(131,348,l)
);
}
);
width = 375;
}
);
metricRight = "y-canadian";
note = uni15AE;
unicode = 5550;
},
{
glyphname = "bAivilik-canadian";
lastChange = "2023-01-13 15:28:12 +0000";
layers = (
{
layerId = "C6C6CC8B-76AD-4983-B2A6-35FF5D496205";
shapes = (
{
closed = 1;
nodes = (
(440,-13,o),
(526,87,o),
(526,245,cs),
(526,401,o),
(439,501,o),
(313,501,cs),
(223,501,o),
(157,448,o),
(140,376,c),
(147,361,l),
(147,714,l),
(83,714,l),
(83,0,l),
(145,0,l),
(145,128,l),
(140,114,l),
(157,41,o),
(223,-13,o),
(314,-13,cs)
);
},
{
closed = 1;
nodes = (
(206,43,o),
(147,116,o),
(147,244,cs),
(147,372,o),
(207,445,o),
(305,445,cs),
(402,445,o),
(463,372,o),
(463,244,cs),
(463,116,o),
(403,43,o),
(305,43,cs)
);
}
);
width = 596;
}
);
metricLeft = "nunavuth-canadian";
metricRight = "=|ke-canadian";
note = uni15AF;
unicode = 5551;
},
{
glyphname = "eBlackfoot-canadian";
lastChange = "2023-01-13 15:28:12 +0000";
layers = (
{
layerId = "C6C6CC8B-76AD-4983-B2A6-35FF5D496205";
shapes = (
{
closed = 1;
nodes = (
(147,0,l),
(147,423,l),
(177,386,o),
(221,365,o),
(273,365,cs),
(372,365,o),
(442,442,o),
(442,546,cs),
(442,650,o),
(372,727,o),
(273,727,cs),
(220,727,o),
(174,704,o),
(145,667,c),
(145,714,l),
(83,714,l),
(83,0,l)
);
}
);
width = 489;
}
);
metricLeft = "nunavuth-canadian";
note = uni15B0;
unicode = 5552;
},
{
glyphname = "iBlackfoot-canadian";
lastChange = "2023-01-13 15:30:50 +0000";
layers = (
{
layerId = "C6C6CC8B-76AD-4983-B2A6-35FF5D496205";
shapes = (
{
closed = 1;
nodes = (
(269,-13,o),
(314,10,o),
(343,47,c),
(343,0,l),
(405,0,l),
(405,714,l),
(341,714,l),
(341,291,l),
(312,328,o),
(267,349,o),
(215,349,cs),
(116,349,o),
(47,272,o),
(47,168,cs),
(47,64,o),
(116,-13,o),
(215,-13,cs)
);
}
);
width = 488;
}
);
metricLeft = "=|eBlackfoot-canadian";
metricRight = "nunavuth-canadian";
note = uni15B1;
unicode = 5553;
},
{
glyphname = "oBlackfoot-canadian";
lastChange = "2023-01-13 15:28:12 +0000";
layers = (
{
layerId = "C6C6CC8B-76AD-4983-B2A6-35FF5D496205";
shapes = (
{
closed = 1;
nodes = (
(372,-13,o),
(442,64,o),
(442,168,cs),
(442,272,o),
(372,349,o),
(273,349,cs),
(221,349,o),
(177,328,o),
(147,291,c),
(147,714,l),
(83,714,l),
(83,0,l),
(145,0,l),
(145,47,l),
(174,10,o),
(220,-13,o),
(273,-13,cs)
);
}
);
width = 489;
}
);
metricLeft = "nunavuth-canadian";
metricRight = "eBlackfoot-canadian";
note = uni15B2;
unicode = 5554;
},
{
glyphname = "aBlackfoot-canadian";
lastChange = "2023-01-13 15:30:50 +0000";
layers = (
{
layerId = "C6C6CC8B-76AD-4983-B2A6-35FF5D496205";
shapes = (
{
closed = 1;
nodes = (
(405,0,l),
(405,714,l),
(343,714,l),
(343,667,l),
(314,704,o),
(269,727,o),
(215,727,cs),
(116,727,o),
(47,650,o),
(47,546,cs),
(47,442,o),
(116,365,o),
(215,365,cs),
(267,365,o),
(312,386,o),
(341,423,c),
(341,0,l)
);
}
);
width = 488;
}
);
metricLeft = "=|eBlackfoot-canadian";
metricRight = "nunavuth-canadian";
note = uni15B3;
unicode = 5555;
},
{
glyphname = "weBlackfoot-canadian";
lastChange = "2023-01-13 15:28:12 +0000";
layers = (
{
layerId = "C6C6CC8B-76AD-4983-B2A6-35FF5D496205";
shapes = (
{
closed = 1;
nodes = (
(147,330,l),
(509,330,l),
(509,385,l),
(147,385,l),
(147,659,l),
(509,659,l),
(509,714,l),
(83,714,l),
(83,0,l),
(147,0,l)
);
}
);
width = 571;
}
);
metricLeft = "nunavuth-canadian";
note = uni15B4;
unicode = 5556;
},
{
glyphname = "wiBlackfoot-canadian";
lastChange = "2023-01-13 15:28:12 +0000";
layers = (
{
layerId = "C6C6CC8B-76AD-4983-B2A6-35FF5D496205";
shapes = (
{
closed = 1;
nodes = (
(488,0,l),
(488,714,l),
(424,714,l),
(424,384,l),
(62,384,l),
(62,329,l),
(424,329,l),
(424,55,l),
(62,55,l),
(62,0,l)
);
}
);
width = 571;
}
);
metricLeft = "=|weBlackfoot-canadian";
metricRight = "nunavuth-canadian";
note = uni15B5;
unicode = 5557;
},
{
glyphname = "woBlackfoot-canadian";
lastChange = "2023-01-13 15:28:12 +0000";
layers = (
{
layerId = "C6C6CC8B-76AD-4983-B2A6-35FF5D496205";
shapes = (
{
closed = 1;
nodes = (
(509,0,l),
(509,55,l),
(147,55,l),
(147,329,l),
(509,329,l),
(509,384,l),
(147,384,l),
(147,714,l),
(83,714,l),
(83,0,l)
);
}
);
width = 571;
}
);
metricLeft = "nunavuth-canadian";
metricRight = "weBlackfoot-canadian";
note = uni15B6;
unicode = 5558;
},
{
glyphname = "waBlackfoot-canadian";
lastChange = "2023-01-13 15:28:12 +0000";
layers = (
{
layerId = "C6C6CC8B-76AD-4983-B2A6-35FF5D496205";
shapes = (
{
closed = 1;
nodes = (
(488,0,l),
(488,714,l),
(62,714,l),
(62,659,l),
(424,659,l),
(424,385,l),
(62,385,l),
(62,330,l),
(424,330,l),
(424,0,l)
);
}
);
width = 571;
}
);
metricLeft = "=|weBlackfoot-canadian";
metricRight = "nunavuth-canadian";
note = uni15B7;
unicode = 5559;
},
{
glyphname = "neBlackfoot-canadian";
lastChange = "2023-01-13 15:28:12 +0000";
layers = (
{
layerId = "C6C6CC8B-76AD-4983-B2A6-35FF5D496205";
shapes = (
{
closed = 1;
nodes = (
(147,0,l),
(147,664,l),
(194,664,l),
(170,702,l),
(170,679,ls),
(170,519,o),
(252,422,o),
(389,422,cs),
(525,422,o),
(611,519,o),
(611,674,cs),
(611,714,l),
(549,714,l),
(549,672,ls),
(549,550,o),
(490,478,o),
(390,478,cs),
(291,478,o),
(233,549,o),
(233,671,cs),
(233,714,l),
(83,714,l),
(83,0,l)
);
}
);
width = 657;
}
);
metricLeft = "nunavuth-canadian";
note = uni15B8;
unicode = 5560;
},
{
glyphname = "niBlackfoot-canadian";
lastChange = "2023-01-13 15:30:50 +0000";
layers = (
{
layerId = "C6C6CC8B-76AD-4983-B2A6-35FF5D496205";
shapes = (
{
closed = 1;
nodes = (
(109,0,l),
(109,42,ls),
(109,164,o),
(168,236,o),
(267,236,cs),
(367,236,o),
(425,165,o),
(425,43,cs),
(425,0,l),
(574,0,l),
(574,714,l),
(510,714,l),
(510,50,l),
(464,50,l),
(488,12,l),
(488,35,ls),
(488,195,o),
(406,292,o),
(268,292,cs),
(133,292,o),
(46,195,o),
(46,40,cs),
(46,0,l)
);
}
);
width = 657;
}
);
metricLeft = "=|neBlackfoot-canadian";
metricRight = "nunavuth-canadian";
note = uni15B9;
unicode = 5561;
},
{
glyphname = "noBlackfoot-canadian";
lastChange = "2023-01-13 15:28:12 +0000";
layers = (
{
layerId = "C6C6CC8B-76AD-4983-B2A6-35FF5D496205";
shapes = (
{
closed = 1;
nodes = (
(233,0,l),
(233,43,ls),
(233,165,o),
(291,236,o),
(390,236,cs),
(490,236,o),
(549,164,o),
(549,42,cs),
(549,0,l),
(611,0,l),
(611,40,ls),
(611,195,o),
(525,292,o),
(389,292,cs),
(252,292,o),
(170,195,o),
(170,35,cs),
(170,12,l),
(194,50,l),
(147,50,l),
(147,714,l),
(83,714,l),
(83,0,l)
);
}
);
width = 657;
}
);
metricLeft = "nunavuth-canadian";
metricRight = "neBlackfoot-canadian";
note = uni15BA;
unicode = 5562;
},
{
glyphname = "naBlackfoot-canadian";
lastChange = "2023-01-13 15:30:50 +0000";
layers = (
{
layerId = "C6C6CC8B-76AD-4983-B2A6-35FF5D496205";
shapes = (
{
closed = 1;
nodes = (
(574,0,l),
(574,714,l),
(425,714,l),
(425,671,ls),
(425,549,o),
(367,478,o),
(267,478,cs),
(168,478,o),
(109,550,o),
(109,672,cs),
(109,714,l),
(46,714,l),
(46,674,ls),
(46,519,o),
(133,422,o),
(268,422,cs),
(406,422,o),
(488,519,o),
(488,679,cs),
(488,702,l),
(464,664,l),
(510,664,l),
(510,0,l)
);
}
);
width = 657;
}
);
metricLeft = "=|neBlackfoot-canadian";
metricRight = "nunavuth-canadian";
note = uni15BB;
unicode = 5563;
},
{
glyphname = "keBlackfoot-canadian";
lastChange = "2023-01-13 15:28:12 +0000";
layers = (
{
layerId = "C6C6CC8B-76AD-4983-B2A6-35FF5D496205";
shapes = (
{
closed = 1;
nodes = (
(147,0,l),
(147,645,l),
(120,645,l),
(318,267,l),
(349,267,l),
(585,714,l),
(518,714,l),
(317,329,l),
(344,329,l),
(143,714,l),
(83,714,l),
(83,0,l)
);
}
);
width = 615;
}
);
metricLeft = "nunavuth-canadian";
note = uni15BC;
unicode = 5564;
},
{
glyphname = "kiBlackfoot-canadian";
lastChange = "2023-01-13 15:28:12 +0000";
layers = (
{
layerId = "C6C6CC8B-76AD-4983-B2A6-35FF5D496205";
shapes = (
{
closed = 1;
nodes = (
(97,0,l),
(298,385,l),
(271,385,l),
(473,0,l),
(532,0,l),
(532,714,l),
(468,714,l),
(468,69,l),
(496,69,l),
(298,447,l),
(266,447,l),
(29.993,0,l)
);
}
);
width = 615;
}
);
metricLeft = "=|keBlackfoot-canadian";
metricRight = "nunavuth-canadian";
note = uni15BD;
unicode = 5565;
},
{
glyphname = "koBlackfoot-canadian";
lastChange = "2023-01-13 15:28:12 +0000";
layers = (
{
layerId = "C6C6CC8B-76AD-4983-B2A6-35FF5D496205";
shapes = (
{
closed = 1;
nodes = (
(143,0,l),
(344,385,l),
(317,385,l),
(518,0,l),
(585,0,l),
(349,447,l),
(318,447,l),
(120,69,l),
(147,69,l),
(147,714,l),
(83,714,l),
(83,0,l)
);
}
);
width = 615;
}
);
metricLeft = "nunavuth-canadian";
metricRight = "keBlackfoot-canadian";
note = uni15BE;
unicode = 5566;
},
{
glyphname = "kaBlackfoot-canadian";
lastChange = "2023-01-13 15:28:12 +0000";
layers = (
{
layerId = "C6C6CC8B-76AD-4983-B2A6-35FF5D496205";
shapes = (
{
closed = 1;
nodes = (
(532,0,l),
(532,714,l),
(473,714,l),
(271,329,l),
(298,329,l),
(97,714,l),
(29.993,714,l),
(266,267,l),
(298,267,l),
(496,645,l),
(468,645,l),
(468,0,l)
);
}
);
width = 615;
}
);
metricLeft = "=|keBlackfoot-canadian";
metricRight = "nunavuth-canadian";
note = uni15BF;
unicode = 5567;
},
{
color = 9;
glyphname = "heSayisi-canadian";
lastChange = "2023-01-13 15:30:50 +0000";
layers = (
{
anchors = (
{
name = top_right_can;
pos = (546,714);
}
);
layerId = "C6C6CC8B-76AD-4983-B2A6-35FF5D496205";
shapes = (
{
closed = 1;
nodes = (
(577,0,l),
(577,714,l),
(514,714,l),
(514,254,l),
(527,254,l),
(519,528,o),
(431,727,o),
(261,727,cs),
(134,727,o),
(63,640,o),
(63,473,cs),
(63,437,o),
(67,394,o),
(76,352,c),
(137,352,l),
(128,393,o),
(125,436,o),
(125,469,cs),
(125,608,o),
(178,670,o),
(272,670,cs),
(426,670,o),
(513,459,o),
(514,0,c)
);
}
);
width = 660;
}
);
metricRight = "nunavuth-canadian";
note = uni15C0;
unicode = 5568;
},
{
color = 9;
glyphname = "hiSayisi-canadian";
lastChange = "2023-01-13 15:28:12 +0000";
layers = (
{
layerId = "C6C6CC8B-76AD-4983-B2A6-35FF5D496205";
shapes = (
{
closed = 1;
nodes = (
(147,0,l),
(148,459,o),
(235,670,o),
(389,670,cs),
(483,670,o),
(536,608,o),
(536,469,cs),
(536,436,o),
(533,393,o),
(524,352,c),
(585,352,l),
(594,394,o),
(598,437,o),
(598,473,cs),
(598,640,o),
(527,727,o),
(400,727,cs),
(230,727,o),
(142,528,o),
(134,254,c),
(147,254,l),
(147,714,l),
(83,714,l),
(83,0,l)
);
}
);
width = 661;
}
);
metricLeft = "nunavuth-canadian";
metricRight = "=|heSayisi-canadian";
note = uni15C1;
unicode = 5569;
},
{
color = 9;
glyphname = "hoSayisi-canadian";
lastChange = "2023-01-13 15:30:50 +0000";
layers = (
{
anchors = (
{
name = top_center_can;
pos = (326,714);
},
{
name = top_left_can;
pos = (106,714);
},
{
name = top_right_can;
pos = (546,714);
}
);
layerId = "C6C6CC8B-76AD-4983-B2A6-35FF5D496205";
shapes = (
{
closed = 1;
nodes = (
(431,-13,o),
(519,186,o),
(527,460,c),
(514,460,l),
(514,0,l),
(577,0,l),
(577,714,l),
(514,714,l),
(513,255,o),
(426,44,o),
(272,44,cs),
(178,44,o),
(125,106,o),
(125,245,cs),
(125,278,o),
(128,321,o),
(137,362,c),
(76,362,l),
(67,320,o),
(63,277,o),
(63,241,cs),
(63,74,o),
(134,-13,o),
(261,-13,cs)
);
}
);
width = 660;
}
);
metricLeft = "heSayisi-canadian";
metricRight = "nunavuth-canadian";
note = uni15C2;
unicode = 5570;
},
{
color = 9;
glyphname = "haSayisi-canadian";
lastChange = "2023-01-13 15:28:12 +0000";
layers = (
{
layerId = "C6C6CC8B-76AD-4983-B2A6-35FF5D496205";
shapes = (
{
closed = 1;
nodes = (
(527,-13,o),
(598,74,o),
(598,241,cs),
(598,277,o),
(594,320,o),
(585,362,c),
(524,362,l),
(533,321,o),
(536,278,o),
(536,245,cs),
(536,106,o),
(483,44,o),
(389,44,cs),
(235,44,o),
(148,255,o),
(147,714,c),
(83,714,l),
(83,0,l),
(147,0,l),
(147,460,l),
(134,460,l),
(142,186,o),
(230,-13,o),
(400,-13,cs)
);
}
);
width = 661;
}
);
metricLeft = "nunavuth-canadian";
metricRight = "=|heSayisi-canadian";
note = uni15C3;
unicode = 5571;
},
{
color = 9;
glyphname = "ghuCarrier-canadian";
lastChange = "2023-01-13 15:28:12 +0000";
layers = (
{
layerId = "C6C6CC8B-76AD-4983-B2A6-35FF5D496205";
shapes = (
{
closed = 1;
nodes = (
(372,0,l),
(678,694,l),
(678,714,l),
(624,714,l),
(516,463,l),
(550,477,l),
(166,477,l),
(201,463,l),
(93,714,l),
(37,714,l),
(37,694,l),
(343,0,l)
);
},
{
closed = 1;
nodes = (
(531,427,l),
(508,439,l),
(346,66,l),
(371,66,l),
(209,440,l),
(187,427,l)
);
}
);
width = 715;
}
);
metricLeft = "e-canadian";
metricRight = "e-canadian";
note = uni15C4;
unicode = 5572;
},
{
color = 9;
glyphname = "ghoCarrier-canadian";
lastChange = "2023-01-13 15:28:12 +0000";
layers = (
{
layerId = "C6C6CC8B-76AD-4983-B2A6-35FF5D496205";
shapes = (
{
closed = 1;
nodes = (
(93,0,l),
(201,251,l),
(166,237,l),
(550,237,l),
(516,251,l),
(624,0,l),
(678,0,l),
(678,20,l),
(372,714,l),
(343,714,l),
(37,20,l),
(37,0,l)
);
},
{
closed = 1;
nodes = (
(371,648,l),
(346,648,l),
(508,275,l),
(531,287,l),
(187,287,l),
(209,274,l)
);
}
);
width = 715;
}
);
metricLeft = "e-canadian";
metricRight = "e-canadian";
note = uni15C5;
unicode = 5573;
},
{
color = 9;
glyphname = "gheCarrier-canadian";
lastChange = "2023-01-13 15:30:50 +0000";
layers = (
{
anchors = (
{
name = middle_center_can;
pos = (78,357);
}
);
layerId = "C6C6CC8B-76AD-4983-B2A6-35FF5D496205";
shapes = (
{
closed = 1;
nodes = (
(78.995,0,l),
(620,343,l),
(620,371,l),
(78.995,714,l),
(59,714,l),
(59,662,l),
(227,555,l),
(219,582,l),
(219,127,l),
(227,160,l),
(59,53,l),
(59,0,l)
);
},
{
closed = 1;
nodes = (
(269,563,l),
(255,543,l),
(569,342,l),
(569,372,l),
(255,172,l),
(269,152,l)
);
}
);
width = 657;
}
);
metricLeft = "po-canadian";
metricRight = "o-canadian";
note = uni15C6;
unicode = 5574;
},
{
color = 9;
glyphname = "ghaCarrier-canadian";
lastChange = "2023-01-13 15:30:50 +0000";
layers = (
{
layerId = "C6C6CC8B-76AD-4983-B2A6-35FF5D496205";
shapes = (
{
closed = 1;
nodes = (
(597,0,l),
(597,52,l),
(432,158,l),
(441,128,l),
(441,586,l),
(432,556,l),
(597,662,l),
(597,714,l),
(578,714,l),
(37,371,l),
(37,343,l),
(578,0,l)
);
},
{
closed = 1;
nodes = (
(405,170,l),
(88,372,l),
(88,342,l),
(405,544,l),
(391,560,l),
(391,155,l)
);
}
);
width = 656;
}
);
metricLeft = "=|o-canadian";
metricRight = "=|po-canadian";
note = uni15C9;
unicode = 5577;
},
{
color = 9;
glyphname = "ruCarrier-canadian";
lastChange = "2023-01-13 15:28:12 +0000";
layers = (
{
layerId = "C6C6CC8B-76AD-4983-B2A6-35FF5D496205";
shapes = (
{
closed = 1;
nodes = (
(372,0,l),
(678,694,l),
(678,714,l),
(624,714,l),
(582,617,l),
(601,629,l),
(114,629,l),
(135,616,l),
(93,714,l),
(37,714,l),
(37,694,l),
(343,0,l)
);
},
{
closed = 1;
nodes = (
(585,577,l),
(574,594,l),
(347,67,l),
(371,67,l),
(144,593,l),
(130,577,l)
);
}
);
width = 715;
}
);
metricLeft = "e-canadian";
metricRight = "e-canadian";
note = uni15CA;
unicode = 5578;
},
{
color = 9;
glyphname = "roCarrier-canadian";
lastChange = "2023-01-13 15:28:12 +0000";
layers = (
{
layerId = "C6C6CC8B-76AD-4983-B2A6-35FF5D496205";
shapes = (
{
closed = 1;
nodes = (
(92,0,l),
(134,97,l),
(114,85,l),
(601,85,l),
(582,98,l),
(624,0,l),
(678,0,l),
(678,20,l),
(372,714,l),
(343,714,l),
(37,20,l),
(37,0,l)
);
},
{
closed = 1;
nodes = (
(370,649,l),
(346,649,l),
(572,121,l),
(585,137,l),
(131,137,l),
(142,120,l)
);
}
);
width = 715;
}
);
metricLeft = "e-canadian";
metricRight = "e-canadian";
note = uni15CB;
unicode = 5579;
},
{
color = 9;
glyphname = "reCarrier-canadian";
lastChange = "2023-01-13 15:30:50 +0000";
layers = (
{
layerId = "C6C6CC8B-76AD-4983-B2A6-35FF5D496205";
shapes = (
{
closed = 1;
nodes = (
(79,0,l),
(620,343,l),
(620,371,l),
(79,714,l),
(59,714,l),
(59,662,l),
(139,611,l),
(128,633,l),
(128,80,l),
(139,103,l),
(59,52,l),
(59,0,l)
);
},
{
closed = 1;
nodes = (
(179,615,l),
(167,597,l),
(567,342,l),
(567,372,l),
(167,118,l),
(179,99,l)
);
}
);
width = 657;
}
);
metricLeft = "po-canadian";
metricRight = "o-canadian";
note = uni15CC;
unicode = 5580;
},
{
color = 9;
glyphname = "reeCarrier-canadian";
lastChange = "2023-01-13 15:30:50 +0000";
layers = (
{
layerId = "C6C6CC8B-76AD-4983-B2A6-35FF5D496205";
shapes = (
{
closed = 1;
nodes = (
(79,0,l),
(620,343,l),
(620,371,l),
(79,714,l),
(59,714,l),
(59,667,l),
(139,616,l),
(128,636,l),
(128,76,l),
(139,98,l),
(59,47,l),
(59,0,l)
);
},
{
closed = 1;
nodes = (
(174,618,l),
(163,605,l),
(577,342,l),
(577,372,l),
(163,109,l),
(174,99,l)
);
},
{
closed = 1;
nodes = (
(277,263,l),
(277,453,l),
(243,453,l),
(243,263,l)
);
}
);
width = 657;
}
);
metricLeft = "po-canadian";
metricRight = "o-canadian";
note = uni15CD;
unicode = 5581;
},
{
color = 9;
glyphname = "riCarrier-canadian";
lastChange = "2023-01-13 15:30:50 +0000";
layers = (
{
layerId = "C6C6CC8B-76AD-4983-B2A6-35FF5D496205";
shapes = (
{
closed = 1;
nodes = (
(79,0,l),
(620,343,l),
(620,371,l),
(79,714,l),
(59,714,l),
(59,667,l),
(139,616,l),
(128,636,l),
(128,76,l),
(139,98,l),
(59,47,l),
(59,0,l)
);
},
{
closed = 1;
nodes = (
(302,319,o),
(319,335,o),
(319,357,cs),
(319,379,o),
(302,395,o),
(281,395,cs),
(260,395,o),
(243,379,o),
(243,357,cs),
(243,335,o),
(260,319,o),
(281,319,cs)
);
},
{
closed = 1;
nodes = (
(174,617,l),
(163,604,l),
(577,342,l),
(577,372,l),
(163,110,l),
(174,100,l)
);
}
);
width = 657;
}
);
metricLeft = "po-canadian";
metricRight = "o-canadian";
note = uni15CE;
unicode = 5582;
},
{
color = 9;
glyphname = "raCarrier-canadian";
lastChange = "2023-01-13 15:30:50 +0000";
layers = (
{
layerId = "C6C6CC8B-76AD-4983-B2A6-35FF5D496205";
shapes = (
{
closed = 1;
nodes = (
(597,0,l),
(597,53,l),
(519,103,l),
(529,77,l),
(529,637,l),
(519,611,l),
(597,661,l),
(597,714,l),
(577,714,l),
(37,371,l),
(37,343,l),
(577,0,l)
);
},
{
closed = 1;
nodes = (
(491,598,l),
(478,615,l),
(478,100,l),
(491,117,l),
(90,372,l),
(90,342,l)
);
}
);
width = 656;
}
);
metricLeft = "=|o-canadian";
metricRight = "=|po-canadian";
note = uni15CF;
unicode = 5583;
},
{
color = 9;
glyphname = "wuCarrier-canadian";
lastChange = "2023-01-13 15:28:12 +0000";
layers = (
{
layerId = "C6C6CC8B-76AD-4983-B2A6-35FF5D496205";
shapes = (
{
closed = 1;
nodes = (
(375,0,l),
(683,694,l),
(683,714,l),
(632,714,l),
(371,105,l),
(388,105,l),
(388,714,l),
(335,714,l),
(335,105,l),
(352,105,l),
(90,714,l),
(37,714,l),
(37,694,l),
(345,0,l)
);
}
);
width = 720;
}
);
metricLeft = "e-canadian";
metricRight = "e-canadian";
note = uni15D0;
unicode = 5584;
},
{
color = 9;
glyphname = "woCarrier-canadian";
lastChange = "2023-01-13 15:28:12 +0000";
layers = (
{
layerId = "C6C6CC8B-76AD-4983-B2A6-35FF5D496205";
shapes = (
{
closed = 1;
nodes = (
(89,0,l),
(350,609,l),
(334,609,l),
(334,0,l),
(386,0,l),
(386,609,l),
(369,609,l),
(631,0,l),
(683,0,l),
(683,20,l),
(375,714,l),
(345,714,l),
(37,20,l),
(37,0,l)
);
}
);
width = 720;
}
);
metricLeft = "e-canadian";
metricRight = "e-canadian";
note = uni15D1;
unicode = 5585;
},
{
color = 9;
glyphname = "weCarrier-canadian";
lastChange = "2023-01-13 15:28:12 +0000";
layers = (
{
layerId = "C6C6CC8B-76AD-4983-B2A6-35FF5D496205";
shapes = (
{
closed = 1;
nodes = (
(100,0,l),
(641,343,l),
(641,371,l),
(100,714,l),
(80,714,l),
(80,662,l),
(548,367,l),
(548,383,l),
(81,383,l),
(81,332,l),
(548,332,l),
(548,347,l),
(80,52,l),
(80,0,l)
);
}
);
width = 678;
}
);
metricRight = "o-canadian";
note = uni15D2;
unicode = 5586;
},
{
color = 9;
glyphname = "weeCarrier-canadian";
lastChange = "2023-01-13 15:28:12 +0000";
layers = (
{
layerId = "C6C6CC8B-76AD-4983-B2A6-35FF5D496205";
shapes = (
{
closed = 1;
nodes = (
(100,0,l),
(641,343,l),
(641,371,l),
(100,714,l),
(80,714,l),
(80,666,l),
(559,365,l),
(563,379,l),
(206,379,l),
(206,466,l),
(166,466,l),
(166,379,l),
(80,379,l),
(80,336,l),
(166,336,l),
(166,249,l),
(206,249,l),
(206,336,l),
(565,336,l),
(561,350,l),
(80,48,l),
(80,0,l)
);
}
);
width = 678;
}
);
metricLeft = "weCarrier-canadian";
metricRight = "o-canadian";
note = uni15D3;
unicode = 5587;
},
{
color = 9;
glyphname = "wiCarrier-canadian";
lastChange = "2023-01-13 15:28:12 +0000";
layers = (
{
layerId = "C6C6CC8B-76AD-4983-B2A6-35FF5D496205";
shapes = (
{
closed = 1;
nodes = (
(100,0,l),
(641,343,l),
(641,371,l),
(100,714,l),
(80,714,l),
(80,666,l),
(559,365,l),
(564,379,l),
(275,379,l),
(267,403,o),
(244,420,o),
(218,420,cs),
(191,420,o),
(169,403,o),
(161,379,c),
(80,379,l),
(80,336,l),
(161,336,l),
(170,313,o),
(192,295,o),
(218,295,cs),
(244,295,o),
(266,313,o),
(274,336,c),
(566,336,l),
(561,350,l),
(80,48,l),
(80,0,l)
);
}
);
width = 678;
}
);
metricLeft = "weCarrier-canadian";
metricRight = "o-canadian";
note = uni15D4;
unicode = 5588;
},
{
color = 9;
glyphname = "waCarrier-canadian";
lastChange = "2023-01-13 15:30:50 +0000";
layers = (
{
layerId = "C6C6CC8B-76AD-4983-B2A6-35FF5D496205";
shapes = (
{
closed = 1;
nodes = (
(597,0,l),
(597,52,l),
(130,347,l),
(130,331,l),
(596,331,l),
(596,382,l),
(130,382,l),
(130,367,l),
(597,662,l),
(597,714,l),
(578,714,l),
(37,371,l),
(37,343,l),
(578,0,l)
);
}
);
width = 677;
}
);
metricLeft = "=|o-canadian";
metricRight = "=|weCarrier-canadian";
note = uni15D5;
unicode = 5589;
},
{
color = 9;
glyphname = "hwuCarrier-canadian";
lastChange = "2023-01-13 15:28:12 +0000";
layers = (
{
layerId = "C6C6CC8B-76AD-4983-B2A6-35FF5D496205";
shapes = (
{
closed = 1;
nodes = (
(375,0,l),
(683,694,l),
(683,714,l),
(634,714,l),
(529,470,l),
(554,483,l),
(383,483,l),
(383.004,714,l),
(338,714,l),
(338,483,l),
(166,483,l),
(192,471,l),
(87,714,l),
(37,714,l),
(37,694,l),
(345,0,l)
);
},
{
closed = 1;
nodes = (
(341,443,l),
(341,92,l),
(353,94,l),
(197,456,l),
(182,443,l)
);
},
{
closed = 1;
nodes = (
(380,443,l),
(539,443,l),
(525,456,l),
(368,94,l),
(380,91,l)
);
}
);
width = 720;
}
);
metricLeft = "e-canadian";
metricRight = "e-canadian";
note = uni15D6;
unicode = 5590;
},
{
color = 9;
glyphname = "hwoCarrier-canadian";
lastChange = "2023-01-13 15:28:12 +0000";
layers = (
{
layerId = "C6C6CC8B-76AD-4983-B2A6-35FF5D496205";
shapes = (
{
closed = 1;
nodes = (
(87,0,l),
(193,244,l),
(167,230,l),
(338,230,l),
(338,0,l),
(383,0,l),
(383,230,l),
(556,230,l),
(529,244,l),
(634,0,l),
(683,0,l),
(683,20,l),
(375,714,l),
(345,714,l),
(37,20,l),
(37,0,l)
);
},
{
closed = 1;
nodes = (
(348,611,l),
(340,613,l),
(340,272,l),
(186,272,l),
(196,258,l)
);
},
{
closed = 1;
nodes = (
(537,272,l),
(380,272,l),
(380,614,l),
(372,612,l),
(524,258,l)
);
}
);
width = 720;
}
);
metricLeft = "e-canadian";
metricRight = "e-canadian";
note = uni15D7;
unicode = 5591;
},
{
color = 9;
glyphname = "hweCarrier-canadian";
lastChange = "2023-01-13 15:28:12 +0000";
layers = (
{
layerId = "C6C6CC8B-76AD-4983-B2A6-35FF5D496205";
shapes = (
{
closed = 1;
nodes = (
(100,0,l),
(641,343,l),
(641,371,l),
(100,714,l),
(80,714,l),
(80,666,l),
(238,567,l),
(238,380,l),
(80,380,l),
(80,335,l),
(238,335,l),
(238,147,l),
(80,47,l),
(80,0,l)
);
},
{
closed = 1;
nodes = (
(276,338,l),
(548,338,l),
(276,167,l)
);
},
{
closed = 1;
nodes = (
(276,547,l),
(545,377,l),
(276,377,l)
);
}
);
width = 678;
}
);
metricLeft = "weCarrier-canadian";
metricRight = "o-canadian";
note = uni15D8;
unicode = 5592;
},
{
color = 9;
glyphname = "hweeCarrier-canadian";
lastChange = "2023-01-13 15:28:12 +0000";
layers = (
{
layerId = "C6C6CC8B-76AD-4983-B2A6-35FF5D496205";
shapes = (
{
closed = 1;
nodes = (
(100,0,l),
(641,343,l),
(641,371,l),
(100,714,l),
(80,714,l),
(80,667,l),
(250,562,l),
(250,378,l),
(189,378,l),
(189,464,l),
(153,464,l),
(153,378,l),
(80,378,l),
(80,337,l),
(153,337,l),
(153,251,l),
(189,251,l),
(189,337,l),
(250,337,l),
(250,152,l),
(80,47,l),
(80,0,l)
);
},
{
closed = 1;
nodes = (
(285,339,l),
(550,339,l),
(285,171,l)
);
},
{
closed = 1;
nodes = (
(285,542,l),
(548,376,l),
(285,376,l)
);
}
);
width = 678;
}
);
metricLeft = "weCarrier-canadian";
metricRight = "o-canadian";
note = uni15D9;
unicode = 5593;
},
{
color = 9;
glyphname = "hwiCarrier-canadian";
lastChange = "2023-01-13 15:28:12 +0000";
layers = (
{
layerId = "C6C6CC8B-76AD-4983-B2A6-35FF5D496205";
shapes = (
{
closed = 1;
nodes = (
(100,0,l),
(641,343,l),
(641,371,l),
(100,714,l),
(80,714,l),
(80,667,l),
(250,562,l),
(250,376,l),
(219,376,l),
(212,398,o),
(192,414,o),
(167,414,cs),
(143,414,o),
(124,398,o),
(117,376,c),
(80,376,l),
(80,339,l),
(117,339,l),
(124,318,o),
(144,301,o),
(168,301,cs),
(191,301,o),
(211,318,o),
(218,339,c),
(250,339,l),
(250,152,l),
(80,47,l),
(80,0,l)
);
},
{
closed = 1;
nodes = (
(285,339,l),
(550,339,l),
(285,171,l)
);
},
{
closed = 1;
nodes = (
(285,542,l),
(548,376,l),
(285,376,l)
);
}
);
width = 678;
}
);
metricLeft = "weCarrier-canadian";
metricRight = "o-canadian";
note = uni15DA;
unicode = 5594;
},
{
color = 9;
glyphname = "hwaCarrier-canadian";
lastChange = "2023-01-13 15:30:50 +0000";
layers = (
{
layerId = "C6C6CC8B-76AD-4983-B2A6-35FF5D496205";
shapes = (
{
closed = 1;
nodes = (
(597,0,l),
(597,48,l),
(439,147,l),
(439,334,l),
(597,334,l),
(597,379,l),
(439,379,l),
(439,567,l),
(597,666,l),
(597,714,l),
(578,714,l),
(37,371,l),
(37,343,l),
(578,0,l)
);
},
{
closed = 1;
nodes = (
(132,337,l),
(401,337,l),
(401,167,l)
);
},
{
closed = 1;
nodes = (
(401,547,l),
(401,376,l),
(130,376,l)
);
}
);
width = 677;
}
);
metricLeft = "=|o-canadian";
metricRight = "=|weCarrier-canadian";
note = uni15DB;
unicode = 5595;
},
{
color = 9;
glyphname = "thuCarrier-canadian";
lastChange = "2023-01-13 15:28:13 +0000";
layers = (
{
layerId = "C6C6CC8B-76AD-4983-B2A6-35FF5D496205";
shapes = (
{
closed = 1;
nodes = (
(530,-13,o),
(637,102,o),
(637,303,cs),
(637,714,l),
(76,714,l),
(76,299,ls),
(76,101,o),
(185,-13,o),
(356,-13,cs)
);
},
{
closed = 1;
nodes = (
(139,656,l),
(573,656,l),
(573,300,ls),
(573,134,o),
(494,47,o),
(356,47,cs),
(222,47,o),
(139,135,o),
(139,300,cs)
);
}
);
width = 713;
}
);
metricLeft = "te-canadian";
metricRight = "te-canadian";
note = uni15DC;
unicode = 5596;
},
{
color = 9;
glyphname = "thoCarrier-canadian";
lastChange = "2023-01-13 15:28:13 +0000";
layers = (
{
layerId = "C6C6CC8B-76AD-4983-B2A6-35FF5D496205";
shapes = (
{
closed = 1;
nodes = (
(637,0,l),
(637,415,ls),
(637,612,o),
(528,727,o),
(358,727,cs),
(183,727,o),
(76,613,o),
(76,411,cs),
(76,0,l)
);
},
{
closed = 1;
nodes = (
(139,414,ls),
(139,580,o),
(221,667,o),
(357,667,cs),
(491,667,o),
(573,579,o),
(573,414,cs),
(573,58,l),
(139,58,l)
);
}
);
width = 713;
}
);
metricLeft = "te-canadian";
metricRight = "te-canadian";
note = uni15DD;
unicode = 5597;
},
{
color = 9;
glyphname = "theCarrier-canadian";
lastChange = "2023-01-13 15:28:13 +0000";
layers = (
{
anchors = (
{
name = middle_center_can;
pos = (344,357);
}
);
layerId = "C6C6CC8B-76AD-4983-B2A6-35FF5D496205";
shapes = (
{
closed = 1;
nodes = (
(295,0,ls),
(505,0,o),
(622,134,o),
(622,358,cs),
(622,582,o),
(505,714,o),
(291,714,cs),
(83,714,l),
(83,0,l)
);
},
{
closed = 1;
nodes = (
(147,679,l),
(125,657,l),
(291,657,ls),
(468,657,o),
(558,550,o),
(558,358,cs),
(558,167,o),
(468,57,o),
(293,57,cs),
(125,57,l),
(147,35,l)
);
}
);
width = 691;
}
);
metricLeft = "nunavuth-canadian";
metricRight = "to-canadian";
note = uni15DE;
unicode = 5598;
},
{
color = 9;
glyphname = "thaCarrier-canadian";
lastChange = "2023-01-13 15:28:13 +0000";
layers = (
{
layerId = "C6C6CC8B-76AD-4983-B2A6-35FF5D496205";
shapes = (
{
closed = 1;
nodes = (
(608,0,l),
(608,714,l),
(399,714,ls),
(186,714,o),
(69,581,o),
(69,357,cs),
(69,133,o),
(186,0,o),
(398,0,cs)
);
},
{
closed = 1;
nodes = (
(133,548,o),
(223,657,o),
(399,657,cs),
(566,657,l),
(544,679,l),
(544,35,l),
(566,57,l),
(400,57,ls),
(223,57,o),
(133,165,o),
(133,357,cs)
);
}
);
width = 691;
}
);
metricLeft = "=|theCarrier-canadian";
metricRight = "nunavuth-canadian";
note = uni15E1;
unicode = 5601;
},
{
color = 9;
glyphname = "ttuCarrier-canadian";
lastChange = "2023-01-13 15:28:13 +0000";
layers = (
{
layerId = "C6C6CC8B-76AD-4983-B2A6-35FF5D496205";
shapes = (
{
closed = 1;
nodes = (
(530,-13,o),
(637,102,o),
(637,303,cs),
(637,714,l),
(609,714,l),
(348,520,l),
(366,520,l),
(105,714,l),
(76,714,l),
(76,299,ls),
(76,101,o),
(185,-13,o),
(356,-13,cs)
);
},
{
closed = 1;
nodes = (
(222,47,o),
(139,135,o),
(139,300,cs),
(139,664,l),
(86,663,l),
(347,469,l),
(366,469,l),
(627,663,l),
(573,664,l),
(573,300,ls),
(573,134,o),
(494,47,o),
(356,47,cs)
);
}
);
width = 713;
}
);
metricLeft = "te-canadian";
metricRight = "te-canadian";
note = uni15E2;
unicode = 5602;
},
{
color = 9;
glyphname = "ttoCarrier-canadian";
lastChange = "2023-01-13 15:28:13 +0000";
layers = (
{
layerId = "C6C6CC8B-76AD-4983-B2A6-35FF5D496205";
shapes = (
{
closed = 1;
nodes = (
(104,0,l),
(365,194,l),
(347,194,l),
(607,0,l),
(637,0,l),
(637,415,ls),
(637,613,o),
(528,727,o),
(356,727,cs),
(182,727,o),
(76,612,o),
(76,411,cs),
(76,0,l)
);
},
{
closed = 1;
nodes = (
(491,667,o),
(573,579,o),
(573,414,cs),
(573,50,l),
(627,51,l),
(365,245,l),
(347,245,l),
(86,51,l),
(139,50,l),
(139,414,ls),
(139,580,o),
(219,667,o),
(357,667,cs)
);
}
);
width = 713;
}
);
metricLeft = "te-canadian";
metricRight = "te-canadian";
note = uni15E3;
unicode = 5603;
},
{
color = 9;
glyphname = "tteCarrier-canadian";
lastChange = "2023-01-13 15:28:13 +0000";
layers = (
{
anchors = (
{
name = middle_center_can;
pos = (397,357);
}
);
layerId = "C6C6CC8B-76AD-4983-B2A6-35FF5D496205";
shapes = (
{
closed = 1;
nodes = (
(305,0,ls),
(515,0,o),
(632,134,o),
(632,358,cs),
(632,582,o),
(515,714,o),
(300,714,cs),
(75,714,l),
(75,694,l),
(203,345,l),
(203,369,l),
(75,20,l),
(75,0,l)
);
},
{
closed = 1;
nodes = (
(259,347,l),
(259,364,l),
(133,708,l),
(133,657,l),
(301,657,ls),
(478,657,o),
(568,550,o),
(568,358,cs),
(568,167,o),
(478,57,o),
(303,57,cs),
(133,57,l),
(133,4,l)
);
}
);
width = 701;
}
);
metricRight = "theCarrier-canadian";
note = uni15E4;
unicode = 5604;
},
{
color = 9;
glyphname = "ttaCarrier-canadian";
lastChange = "2023-01-13 15:30:50 +0000";
layers = (
{
layerId = "C6C6CC8B-76AD-4983-B2A6-35FF5D496205";
shapes = (
{
closed = 1;
nodes = (
(625,0,l),
(625,20,l),
(498,369,l),
(498,345,l),
(625,694,l),
(625,714,l),
(399,714,ls),
(186,714,o),
(69,581,o),
(69,357,cs),
(69,133,o),
(186,0,o),
(398,0,cs)
);
},
{
closed = 1;
nodes = (
(568,57,l),
(400,57,ls),
(223,57,o),
(133,165,o),
(133,357,cs),
(133,548,o),
(223,657,o),
(399,657,cs),
(568,657,l),
(568,710,l),
(442,367,l),
(442,350,l),
(568,7,l)
);
}
);
width = 700;
}
);
metricLeft = "=|theCarrier-canadian";
metricRight = "=|tteCarrier-canadian";
note = uni15E7;
unicode = 5607;
},
{
color = 9;
glyphname = "puCarrier-canadian";
lastChange = "2023-01-13 15:28:13 +0000";
layers = (
{
layerId = "C6C6CC8B-76AD-4983-B2A6-35FF5D496205";
shapes = (
{
closed = 1;
nodes = (
(530,-13,o),
(637,102,o),
(637,303,cs),
(637,714,l),
(573,714,l),
(573,535,l),
(140,535,l),
(140,714,l),
(76,714,l),
(76,299,ls),
(76,101,o),
(185,-13,o),
(356,-13,cs)
);
},
{
closed = 1;
nodes = (
(222,47,o),
(140,135,o),
(140,300,cs),
(140,479,l),
(573,479,l),
(573,300,ls),
(573,134,o),
(494,47,o),
(356,47,cs)
);
}
);
width = 713;
}
);
metricLeft = "te-canadian";
metricRight = "te-canadian";
note = uni15E8;
unicode = 5608;
},
{
color = 9;
glyphname = "poCarrier-canadian";
lastChange = "2023-01-13 15:28:13 +0000";
layers = (
{
layerId = "C6C6CC8B-76AD-4983-B2A6-35FF5D496205";
shapes = (
{
closed = 1;
nodes = (
(140,0,l),
(140,179,l),
(573,179,l),
(573,0,l),
(637,0,l),
(637,415,ls),
(637,612,o),
(529,727,o),
(358,727,cs),
(184,727,o),
(76,613,o),
(76,411,cs),
(76,0,l)
);
},
{
closed = 1;
nodes = (
(140,414,ls),
(140,580,o),
(221,667,o),
(357,667,cs),
(491,667,o),
(573,579,o),
(573,414,cs),
(573,235,l),
(140,235,l)
);
}
);
width = 713;
}
);
metricLeft = "te-canadian";
metricRight = "te-canadian";
note = uni15E9;
unicode = 5609;
},
{
color = 9;
glyphname = "peCarrier-canadian";
lastChange = "2023-01-13 15:28:13 +0000";
layers = (
{
anchors = (
{
name = middle_center_can;
pos = (385,357);
}
);
layerId = "C6C6CC8B-76AD-4983-B2A6-35FF5D496205";
shapes = (
{
closed = 1;
nodes = (
(299,0,ls),
(509,0,o),
(626,134,o),
(626,358,cs),
(626,582,o),
(509,714,o),
(294,714,cs),
(69,714,l),
(69,657,l),
(163,657,l),
(163,57,l),
(69,57,l),
(69,0,l)
);
},
{
closed = 1;
nodes = (
(226,679,l),
(201,657,l),
(295,657,ls),
(472,657,o),
(562,550,o),
(562,358,cs),
(562,167,o),
(472,57,o),
(297,57,cs),
(201,57,l),
(226,35,l)
);
}
);
width = 695;
}
);
metricRight = "theCarrier-canadian";
note = uni15EA;
unicode = 5610;
},
{
color = 9;
glyphname = "paCarrier-canadian";
lastChange = "2023-01-13 15:30:50 +0000";
layers = (
{
layerId = "C6C6CC8B-76AD-4983-B2A6-35FF5D496205";
shapes = (
{
closed = 1;
nodes = (
(625,0,l),
(625,57,l),
(532,57,l),
(532,657,l),
(625,657,l),
(625,714,l),
(400,714,ls),
(186,714,o),
(69,582,o),
(69,358,cs),
(69,134,o),
(186,0,o),
(396,0,cs)
);
},
{
closed = 1;
nodes = (
(493,57,l),
(398,57,ls),
(223,57,o),
(133,167,o),
(133,358,cs),
(133,550,o),
(223,657,o),
(400,657,cs),
(493,657,l),
(469,679,l),
(469,35,l)
);
}
);
width = 694;
}
);
metricLeft = "=|theCarrier-canadian";
metricRight = "=|peCarrier-canadian";
note = uni15ED;
unicode = 5613;
},
{
color = 6;
glyphname = "pCarrier-canadian";
lastChange = "2023-01-13 15:28:13 +0000";
layers = (
{
layerId = "C6C6CC8B-76AD-4983-B2A6-35FF5D496205";
shapes = (
{
closed = 1;
nodes = (
(389,189,l),
(389,234,l),
(253,234,l),
(253,546,l),
(205,546,l),
(205,234,l),
(68,234,l),
(68,189,l)
);
}
);
width = 457;
}
);
metricLeft = "shorthorizontalstrokeFinal-canadian";
metricRight = "shorthorizontalstrokeFinal-canadian";
note = uni15EE;
unicode = 5614;
},
{
color = 9;
glyphname = "guCarrier-canadian";
lastChange = "2023-01-13 15:28:13 +0000";
layers = (
{
anchors = (
{
name = top_center_can;
pos = (434,714);
}
);
layerId = "C6C6CC8B-76AD-4983-B2A6-35FF5D496205";
shapes = (
{
closed = 1;
nodes = (
(359,-13,o),
(423,41,o),
(446,139,c),
(422,139,l),
(448,40,o),
(511,-13,o),
(598,-13,cs),
(715,-13,o),
(787,71,o),
(787,214,cs),
(787,714,l),
(725,714,l),
(725,216,ls),
(725,105,o),
(678,45,o),
(595,45,cs),
(514,45,o),
(464,107,o),
(464,215,cs),
(464,714,l),
(404,714,l),
(404,215,ls),
(404,104,o),
(354,45,o),
(272,45,cs),
(188,45,o),
(140,104,o),
(140,216,cs),
(140,714,l),
(78,714,l),
(78,216,ls),
(78,70,o),
(151,-13,o),
(269,-13,cs)
);
}
);
width = 865;
}
);
metricRight = "=|";
note = uni15EF;
unicode = 5615;
},
{
color = 9;
glyphname = "goCarrier-canadian";
lastChange = "2023-01-13 15:28:13 +0000";
layers = (
{
layerId = "C6C6CC8B-76AD-4983-B2A6-35FF5D496205";
shapes = (
{
closed = 1;
nodes = (
(140,0,l),
(140,498,ls),
(140,609,o),
(187,669,o),
(271,669,cs),
(353,669,o),
(403,609,o),
(403,499,cs),
(403,0,l),
(463,0,l),
(463,499,ls),
(463,608,o),
(513,669,o),
(594,669,cs),
(678,669,o),
(725,609,o),
(725,498,cs),
(725,0,l),
(787,0,l),
(787,499,ls),
(787,643,o),
(714,727,o),
(597,727,cs),
(509,727,o),
(445,673,o),
(421,575,c),
(445,575,l),
(420,674,o),
(357,727,o),
(268,727,cs),
(150,727,o),
(78,643,o),
(78,499,cs),
(78,0,l)
);
}
);
width = 865;
}
);
metricLeft = "guCarrier-canadian";
metricRight = "guCarrier-canadian";
note = uni15F0;
unicode = 5616;
},
{
color = 9;
glyphname = "geCarrier-canadian";
lastChange = "2023-01-13 15:28:13 +0000";
layers = (
{
anchors = (
{
name = top_center_can;
pos = (353,714);
}
);
layerId = "C6C6CC8B-76AD-4983-B2A6-35FF5D496205";
shapes = (
{
closed = 1;
nodes = (
(407,0,ls),
(548,0,o),
(622,69,o),
(622,188,cs),
(622,275,o),
(570,341,o),
(488,366,c),
(488,348,l),
(572,371,o),
(622,434,o),
(622,524,cs),
(622,644,o),
(547,714,o),
(407,714,cs),
(83,714,l),
(83,660,l),
(397,660,ls),
(507,660,o),
(558,613,o),
(558,523,cs),
(558,433,o),
(501,384,o),
(399,384,cs),
(83,384,l),
(83,331,l),
(400,331,ls),
(502,331,o),
(558,279,o),
(558,190,cs),
(558,101,o),
(507,54,o),
(397,54,cs),
(83,54,l),
(83,0,l)
);
}
);
width = 701;
}
);
metricLeft = "nunavuth-canadian";
note = uni15F1;
unicode = 5617;
},
{
color = 9;
glyphname = "geeCarrier-canadian";
lastChange = "2023-01-13 15:28:13 +0000";
layers = (
{
layerId = "C6C6CC8B-76AD-4983-B2A6-35FF5D496205";
shapes = (
{
closed = 1;
nodes = (
(407,0,ls),
(548,0,o),
(622,69,o),
(622,188,cs),
(622,275,o),
(570,341,o),
(488,366,c),
(488,348,l),
(572,371,o),
(622,434,o),
(622,524,cs),
(622,644,o),
(547,714,o),
(407,714,cs),
(83,714,l),
(83,660,l),
(397,660,ls),
(507,660,o),
(558,613,o),
(558,523,cs),
(558,433,o),
(501,384,o),
(399,384,cs),
(340,384,l),
(340,474,l),
(298,474,l),
(298,384,l),
(83,384,l),
(83,331,l),
(298,331,l),
(298,242,l),
(340,242,l),
(340,331,l),
(400,331,ls),
(502,331,o),
(558,279,o),
(558,190,cs),
(558,101,o),
(507,54,o),
(397,54,cs),
(83,54,l),
(83,0,l)
);
}
);
width = 701;
}
);
metricLeft = "geCarrier-canadian";
metricRight = "geCarrier-canadian";
note = uni15F2;
unicode = 5618;
},
{
color = 9;
glyphname = "giCarrier-canadian";
lastChange = "2023-01-13 15:28:13 +0000";
layers = (
{
layerId = "C6C6CC8B-76AD-4983-B2A6-35FF5D496205";
shapes = (
{
closed = 1;
nodes = (
(407,0,ls),
(548,0,o),
(622,69,o),
(622,188,cs),
(622,277,o),
(567,345,o),
(480,366,c),
(479,348,l),
(568,368,o),
(622,432,o),
(622,524,cs),
(622,644,o),
(547,714,o),
(407,714,cs),
(83,714,l),
(83,660,l),
(397,660,ls),
(507,660,o),
(558,613,o),
(558,523,cs),
(558,433,o),
(501,384,o),
(401,384,cs),
(361,384,l),
(384,376,l),
(376,405,o),
(350,425,o),
(320,425,cs),
(293,425,o),
(270,408,o),
(260,384,c),
(83,384,l),
(83,331,l),
(261,331,l),
(270,307,o),
(294,290,o),
(321,290,cs),
(350,290,o),
(375,310,o),
(384,339,c),
(361,331,l),
(402,331,ls),
(502,331,o),
(558,279,o),
(558,190,cs),
(558,101,o),
(507,54,o),
(397,54,cs),
(83,54,l),
(83,0,l)
);
}
);
width = 701;
}
);
metricLeft = "geCarrier-canadian";
metricRight = "geCarrier-canadian";
note = uni15F3;
unicode = 5619;
},
{
color = 9;
glyphname = "gaCarrier-canadian";
lastChange = "2023-01-13 15:28:13 +0000";
layers = (
{
anchors = (
{
name = top_center_can;
pos = (366,714);
}
);
layerId = "C6C6CC8B-76AD-4983-B2A6-35FF5D496205";
shapes = (
{
closed = 1;
nodes = (
(618,0,l),
(618,54,l),
(304,54,ls),
(194,54,o),
(143,101,o),
(143,190,cs),
(143,279,o),
(199,331,o),
(301,331,cs),
(618,331,l),
(618,384,l),
(302,384,ls),
(200,384,o),
(143,433,o),
(143,523,cs),
(143,613,o),
(194,660,o),
(304,660,cs),
(618,660,l),
(618,714,l),
(294,714,ls),
(154,714,o),
(79,644,o),
(79,524,cs),
(79,434,o),
(129,371,o),
(213,349,c),
(213,367,l),
(131,342,o),
(79,275,o),
(79,188,cs),
(79,69,o),
(153,0,o),
(294,0,cs)
);
}
);
width = 701;
}
);
metricLeft = "=|geCarrier-canadian";
metricRight = "=|geCarrier-canadian";
note = uni15F4;
unicode = 5620;
},
{
color = 9;
glyphname = "khuCarrier-canadian";
lastChange = "2023-01-13 15:28:13 +0000";
layers = (
{
layerId = "C6C6CC8B-76AD-4983-B2A6-35FF5D496205";
shapes = (
{
closed = 1;
nodes = (
(359,-13,o),
(423,41,o),
(446,139,c),
(422,139,l),
(449,40,o),
(512,-13,o),
(599,-13,cs),
(716,-13,o),
(787,71,o),
(787,214,cs),
(787,714,l),
(78,714,l),
(78,216,ls),
(78,70,o),
(151,-13,o),
(269,-13,cs)
);
},
{
closed = 1;
nodes = (
(188,45,o),
(140,104,o),
(140,216,cs),
(140,658,l),
(404,658,l),
(404,215,ls),
(404,104,o),
(355,45,o),
(272,45,cs)
);
},
{
closed = 1;
nodes = (
(514,45,o),
(464,107,o),
(464,215,cs),
(464,658,l),
(725,658,l),
(725,216,ls),
(725,105,o),
(678,45,o),
(595,45,cs)
);
}
);
width = 865;
}
);
metricLeft = "guCarrier-canadian";
metricRight = "guCarrier-canadian";
note = uni15F5;
unicode = 5621;
},
{
color = 9;
glyphname = "khoCarrier-canadian";
lastChange = "2023-01-13 15:28:13 +0000";
layers = (
{
layerId = "C6C6CC8B-76AD-4983-B2A6-35FF5D496205";
shapes = (
{
closed = 1;
nodes = (
(787,0,l),
(787,499,ls),
(787,643,o),
(715,727,o),
(598,727,cs),
(510,727,o),
(447,674,o),
(421,575,c),
(445,575,l),
(421,673,o),
(357,727,o),
(268,727,cs),
(151,727,o),
(78,644,o),
(78,499,cs),
(78,0,l)
);
},
{
closed = 1;
nodes = (
(140,498,ls),
(140,609,o),
(187,669,o),
(271,669,cs),
(353,669,o),
(403,609,o),
(403,499,cs),
(403,56,l),
(140,56,l)
);
},
{
closed = 1;
nodes = (
(463,499,ls),
(463,608,o),
(513,669,o),
(595,669,cs),
(678,669,o),
(725,609,o),
(725,498,cs),
(725,56,l),
(463,56,l)
);
}
);
width = 865;
}
);
metricLeft = "guCarrier-canadian";
metricRight = "guCarrier-canadian";
note = uni15F6;
unicode = 5622;
},
{
color = 9;
glyphname = "kheCarrier-canadian";
lastChange = "2023-01-13 15:28:13 +0000";
layers = (
{
layerId = "C6C6CC8B-76AD-4983-B2A6-35FF5D496205";
shapes = (
{
closed = 1;
nodes = (
(409,0,ls),
(550,0,o),
(624,69,o),
(624,188,cs),
(624,275,o),
(573,341,o),
(490,366,c),
(490,348,l),
(574,371,o),
(624,434,o),
(624,524,cs),
(624,644,o),
(549,714,o),
(409,714,cs),
(83,714,l),
(83,0,l)
);
},
{
closed = 1;
nodes = (
(147,331,l),
(402,331,ls),
(504,331,o),
(560,279,o),
(560,190,cs),
(560,101,o),
(509,54,o),
(399,54,cs),
(147,54,l)
);
},
{
closed = 1;
nodes = (
(147,660,l),
(399,660,ls),
(509,660,o),
(560,613,o),
(560,523,cs),
(560,433,o),
(503,384,o),
(401,384,cs),
(147,384,l)
);
}
);
width = 703;
}
);
metricLeft = "nunavuth-canadian";
metricRight = "geCarrier-canadian";
note = uni15F7;
unicode = 5623;
},
{
color = 9;
glyphname = "kheeCarrier-canadian";
lastChange = "2023-01-13 15:28:13 +0000";
layers = (
{
layerId = "C6C6CC8B-76AD-4983-B2A6-35FF5D496205";
shapes = (
{
closed = 1;
nodes = (
(409,0,ls),
(550,0,o),
(624,69,o),
(624,188,cs),
(624,276,o),
(571,344,o),
(485,366,c),
(485,348,l),
(572,368,o),
(624,433,o),
(624,524,cs),
(624,644,o),
(549,714,o),
(409,714,cs),
(83,714,l),
(83,0,l)
);
},
{
closed = 1;
nodes = (
(147,331,l),
(313,331,l),
(313,239,l),
(358,239,l),
(358,346,l),
(341,331,l),
(404,331,ls),
(505,331,o),
(560,280,o),
(560,190,cs),
(560,101,o),
(509,54,o),
(399,54,cs),
(147,54,l)
);
},
{
closed = 1;
nodes = (
(358,476,l),
(313,476,l),
(313,384,l),
(147,384,l),
(147,660,l),
(399,660,ls),
(509,660,o),
(560,613,o),
(560,523,cs),
(560,432,o),
(504,384,o),
(403,384,cs),
(341,384,l),
(358,369,l)
);
}
);
width = 703;
}
);
metricLeft = "nunavuth-canadian";
metricRight = "geCarrier-canadian";
note = uni15F8;
unicode = 5624;
},
{
color = 9;
glyphname = "khiCarrier-canadian";
lastChange = "2023-01-13 15:28:13 +0000";
layers = (
{
layerId = "C6C6CC8B-76AD-4983-B2A6-35FF5D496205";
shapes = (
{
closed = 1;
nodes = (
(409,0,ls),
(550,0,o),
(624,69,o),
(624,188,cs),
(624,275,o),
(573,340,o),
(491,365,c),
(490,348,l),
(574,371,o),
(624,434,o),
(624,524,cs),
(624,644,o),
(549,714,o),
(409,714,cs),
(83,714,l),
(83,0,l)
);
},
{
closed = 1;
nodes = (
(147,332,l),
(274,332,l),
(283,308,o),
(306,290,o),
(334,290,cs),
(368,290,o),
(395,317,o),
(399,351,c),
(365,332,l),
(405,332,ls),
(505,332,o),
(560,280,o),
(560,191,cs),
(560,101,o),
(509,54,o),
(399,54,cs),
(147,54,l)
);
},
{
closed = 1;
nodes = (
(399,660,ls),
(509,660,o),
(560,613,o),
(560,522,cs),
(560,432,o),
(504,383,o),
(404,383,cs),
(366,383,l),
(400,364,l),
(397,399,o),
(368,425,o),
(333,425,cs),
(299,425,o),
(271,398,o),
(268,364,c),
(291,383,l),
(147,383,l),
(147,660,l)
);
}
);
width = 703;
}
);
metricLeft = "nunavuth-canadian";
metricRight = "geCarrier-canadian";
note = uni15F9;
unicode = 5625;
},
{
color = 9;
glyphname = "khaCarrier-canadian";
lastChange = "2023-01-13 15:28:13 +0000";
layers = (
{
layerId = "C6C6CC8B-76AD-4983-B2A6-35FF5D496205";
shapes = (
{
closed = 1;
nodes = (
(620,0,l),
(620,714,l),
(294,714,ls),
(154,714,o),
(79,644,o),
(79,524,cs),
(79,434,o),
(129,371,o),
(214,349,c),
(213,366,l),
(131,342,o),
(79,275,o),
(79,188,cs),
(79,69,o),
(153,0,o),
(294,0,cs)
);
},
{
closed = 1;
nodes = (
(194,54,o),
(143,101,o),
(143,190,cs),
(143,279,o),
(199,331,o),
(301,331,cs),
(556,331,l),
(556,54,l),
(304,54,ls)
);
},
{
closed = 1;
nodes = (
(200,384,o),
(143,433,o),
(143,523,cs),
(143,613,o),
(194,660,o),
(304,660,cs),
(556,660,l),
(556,384,l),
(302,384,ls)
);
}
);
width = 703;
}
);
metricLeft = "=|geCarrier-canadian";
metricRight = "nunavuth-canadian";
note = uni15FA;
unicode = 5626;
},
{
color = 9;
glyphname = "kkuCarrier-canadian";
lastChange = "2023-01-13 15:28:13 +0000";
layers = (
{
layerId = "C6C6CC8B-76AD-4983-B2A6-35FF5D496205";
shapes = (
{
closed = 1;
nodes = (
(363,-13,o),
(428,46,o),
(448,152,c),
(420,152,l),
(443,45,o),
(508,-13,o),
(598,-13,cs),
(715,-13,o),
(787,71,o),
(787,214,cs),
(787,714,l),
(758,714,l),
(452,535,l),
(452,474,l),
(764,656,l),
(725,659,l),
(725,216,ls),
(725,105,o),
(678,45,o),
(595,45,cs),
(514,45,o),
(464,107,o),
(464,215,cs),
(464,714,l),
(404,714,l),
(404,215,ls),
(404,104,o),
(354,45,o),
(272,45,cs),
(188,45,o),
(140,104,o),
(140,216,cs),
(140,659,l),
(101,655,l),
(413,475,l),
(413,536,l),
(108,714,l),
(78,714,l),
(78,216,ls),
(78,70,o),
(151,-13,o),
(269,-13,cs)
);
}
);
width = 865;
}
);
metricLeft = "guCarrier-canadian";
metricRight = "guCarrier-canadian";
note = uni15FB;
unicode = 5627;
},
{
color = 9;
glyphname = "kkoCarrier-canadian";
lastChange = "2023-01-13 15:28:13 +0000";
layers = (
{
layerId = "C6C6CC8B-76AD-4983-B2A6-35FF5D496205";
shapes = (
{
closed = 1;
nodes = (
(107,0,l),
(413,179,l),
(413,240,l),
(100,58,l),
(140,55,l),
(140,498,ls),
(140,609,o),
(186,669,o),
(269,669,cs),
(350,669,o),
(400,607,o),
(400,499,cs),
(400,0,l),
(461,0,l),
(461,499,ls),
(461,610,o),
(510,669,o),
(592,669,cs),
(677,669,o),
(725,610,o),
(725,498,cs),
(725,55,l),
(764,59,l),
(452,239,l),
(452,178,l),
(757,0,l),
(787,0,l),
(787,498,ls),
(787,644,o),
(713,727,o),
(596,727,cs),
(502,727,o),
(436,668,o),
(417,562,c),
(445,562,l),
(422,669,o),
(357,727,o),
(266,727,cs),
(149,727,o),
(78,643,o),
(78,500,cs),
(78,0,l)
);
}
);
width = 865;
}
);
metricLeft = "guCarrier-canadian";
metricRight = "guCarrier-canadian";
note = uni15FC;
unicode = 5628;
},
{
color = 9;
glyphname = "kkeCarrier-canadian";
lastChange = "2023-01-13 15:30:50 +0000";
layers = (
{
layerId = "C6C6CC8B-76AD-4983-B2A6-35FF5D496205";
shapes = (
{
closed = 1;
nodes = (
(424,0,ls),
(564,0,o),
(638,69,o),
(638,188,cs),
(638,274,o),
(587,341,o),
(505,365,c),
(504,348,l),
(589,371,o),
(638,434,o),
(638,524,cs),
(638,644,o),
(563,714,o),
(424,714,cs),
(80,714,l),
(80,694,l),
(193,384,l),
(86,384,l),
(86,331,l),
(193,331,l),
(80,20,l),
(80,0,l)
);
},
{
closed = 1;
nodes = (
(258,331,l),
(417,331,ls),
(519,331,o),
(575,279,o),
(575,190,cs),
(575,101,o),
(524,54,o),
(413,54,cs),
(128,54,l),
(147,27,l)
);
},
{
closed = 1;
nodes = (
(146,687,l),
(127,660,l),
(413,660,ls),
(523,660,o),
(575,613,o),
(575,523,cs),
(575,433,o),
(518,384,o),
(416,384,cs),
(256,384,l)
);
}
);
width = 717;
}
);
metricRight = "geCarrier-canadian";
note = uni15FD;
unicode = 5629;
},
{
color = 9;
glyphname = "kkeeCarrier-canadian";
lastChange = "2023-01-13 15:30:50 +0000";
layers = (
{
layerId = "C6C6CC8B-76AD-4983-B2A6-35FF5D496205";
shapes = (
{
closed = 1;
nodes = (
(424,0,ls),
(564,0,o),
(638,69,o),
(638,188,cs),
(638,274,o),
(587,341,o),
(505,365,c),
(504,348,l),
(589,371,o),
(638,434,o),
(638,524,cs),
(638,644,o),
(563,714,o),
(424,714,cs),
(80,714,l),
(80,694,l),
(193,384,l),
(86,384,l),
(86,331,l),
(193,331,l),
(80,20,l),
(80,0,l)
);
},
{
closed = 1;
nodes = (
(257,332,l),
(348,332,l),
(348,242,l),
(393,242,l),
(393,347,l),
(374,332,l),
(420,332,ls),
(519,332,o),
(575,280,o),
(575,191,cs),
(575,101,o),
(524,54,o),
(413,54,cs),
(128,54,l),
(147,27,l)
);
},
{
closed = 1;
nodes = (
(393,474,l),
(348,474,l),
(348,383,l),
(256,383,l),
(146,687,l),
(127,660,l),
(413,660,ls),
(523,660,o),
(575,612,o),
(575,522,cs),
(575,432,o),
(519,383,o),
(419,383,cs),
(374,383,l),
(393,369,l)
);
}
);
width = 717;
}
);
metricLeft = "kkeCarrier-canadian";
metricRight = "geCarrier-canadian";
note = uni15FE;
unicode = 5630;
},
{
color = 9;
glyphname = "kkiCarrier-canadian";
lastChange = "2023-01-13 15:30:50 +0000";
layers = (
{
layerId = "C6C6CC8B-76AD-4983-B2A6-35FF5D496205";
shapes = (
{
closed = 1;
nodes = (
(424,0,ls),
(564,0,o),
(638,69,o),
(638,188,cs),
(638,274,o),
(587,341,o),
(505,365,c),
(504,348,l),
(589,371,o),
(638,434,o),
(638,524,cs),
(638,644,o),
(563,714,o),
(424,714,cs),
(80,714,l),
(80,694,l),
(193,384,l),
(86,384,l),
(86,331,l),
(193,331,l),
(80,20,l),
(80,0,l)
);
},
{
closed = 1;
nodes = (
(258,333,l),
(306,333,l),
(315,308,o),
(339,290,o),
(366,290,cs),
(401,290,o),
(427,317,o),
(431,350,c),
(395,333,l),
(420,333,ls),
(519,333,o),
(575,280,o),
(575,190,cs),
(575,101,o),
(524,54,o),
(413,54,cs),
(128,54,l),
(147,27,l)
);
},
{
closed = 1;
nodes = (
(429,398,o),
(401,425,o),
(366,425,cs),
(338,425,o),
(315,407,o),
(306,382,c),
(256,382,l),
(146,687,l),
(127,660,l),
(413,660,ls),
(523,660,o),
(575,612,o),
(575,522,cs),
(575,432,o),
(519,382,o),
(419,382,cs),
(395,382,l),
(431,365,l)
);
}
);
width = 717;
}
);
metricLeft = "kkeCarrier-canadian";
metricRight = "geCarrier-canadian";
note = uni15FF;
unicode = 5631;
},
{
color = 9;
glyphname = "kkaCarrier-canadian";
lastChange = "2023-01-13 15:28:13 +0000";
layers = (
{
layerId = "C6C6CC8B-76AD-4983-B2A6-35FF5D496205";
shapes = (
{
closed = 1;
nodes = (
(638,0,l),
(638,20,l),
(525,331,l),
(622,331,l),
(622,384,l),
(525,384,l),
(638,694,l),
(638,714,l),
(294,714,ls),
(154,714,o),
(79,644,o),
(79,524,cs),
(79,434,o),
(129,371,o),
(214,349,c),
(213,366,l),
(131,342,o),
(79,274,o),
(79,188,cs),
(79,69,o),
(153,0,o),
(294,0,cs)
);
},
{
closed = 1;
nodes = (
(590,54,l),
(304,54,ls),
(194,54,o),
(143,101,o),
(143,190,cs),
(143,279,o),
(199,331,o),
(301,331,cs),
(460,331,l),
(571,27,l)
);
},
{
closed = 1;
nodes = (
(200,384,o),
(143,433,o),
(143,523,cs),
(143,613,o),
(194,660,o),
(304,660,cs),
(590,660,l),
(571,687,l),
(461,384,l),
(302,384,ls)
);
}
);
width = 718;
}
);
metricLeft = "=|geCarrier-canadian";
metricRight = "=|kkeCarrier-canadian";
note = uni1600;
unicode = 5632;
},
{
color = 6;
glyphname = "kkCarrier-canadian";
lastChange = "2023-01-13 15:28:13 +0000";
layers = (
{
layerId = "C6C6CC8B-76AD-4983-B2A6-35FF5D496205";
shapes = (
{
closed = 1;
nodes = (
(223,189,l),
(376,534,l),
(376,546,l),
(332,546,l),
(198,235,l),
(234,235,l),
(100,546,l),
(55,546,l),
(55,534,l),
(208,189,l)
);
}
);
width = 431;
}
);
note = uni1601;
unicode = 5633;
},
{
color = 9;
glyphname = "nuCarrier-canadian";
lastChange = "2023-01-13 15:28:13 +0000";
layers = (
{
layerId = "C6C6CC8B-76AD-4983-B2A6-35FF5D496205";
shapes = (
{
closed = 1;
nodes = (
(535,-13,o),
(637,91,o),
(637,269,cs),
(637,309,l),
(573,309,l),
(573,266,ls),
(573,120,o),
(493,46,o),
(363,46,cs),
(216,46,o),
(140,129,o),
(140,296,cs),
(140,714,l),
(76,714,l),
(76,292,ls),
(76,94,o),
(180,-13,o),
(362,-13,cs)
);
}
);
width = 710;
}
);
metricLeft = "te-canadian";
note = uni1602;
unicode = 5634;
},
{
color = 9;
glyphname = "noCarrier-canadian";
lastChange = "2023-01-13 15:28:13 +0000";
layers = (
{
layerId = "C6C6CC8B-76AD-4983-B2A6-35FF5D496205";
shapes = (
{
closed = 1;
nodes = (
(634,0,l),
(634,422,ls),
(634,620,o),
(531,727,o),
(348,727,cs),
(175,727,o),
(73,623,o),
(73,445,cs),
(73,405,l),
(136,405,l),
(136,448,ls),
(136,594,o),
(217,668,o),
(347,668,cs),
(494,668,o),
(570,585,o),
(570,418,cs),
(570,0,l)
);
}
);
width = 710;
}
);
metricLeft = "=|nuCarrier-canadian";
metricRight = "te-canadian";
note = uni1603;
unicode = 5635;
},
{
color = 9;
glyphname = "neCarrier-canadian";
lastChange = "2023-01-13 15:28:13 +0000";
layers = (
{
anchors = (
{
name = middle_center_can;
pos = (299,357);
}
);
layerId = "C6C6CC8B-76AD-4983-B2A6-35FF5D496205";
shapes = (
{
closed = 1;
nodes = (
(299,0,ls),
(504,0,o),
(622,134,o),
(622,358,cs),
(622,582,o),
(505,714,o),
(291,714,cs),
(57,714,l),
(57,656,l),
(291,656,ls),
(467,656,o),
(558,549,o),
(558,358,cs),
(558,167,o),
(466,58,o),
(296,58,cs),
(276,58,l),
(276,0,l)
);
}
);
width = 691;
}
);
metricRight = "theCarrier-canadian";
note = uni1604;
unicode = 5636;
},
{
color = 9;
glyphname = "naCarrier-canadian";
lastChange = "2023-01-13 15:28:13 +0000";
layers = (
{
layerId = "C6C6CC8B-76AD-4983-B2A6-35FF5D496205";
shapes = (
{
closed = 1;
nodes = (
(634,0,l),
(634,58,l),
(400,58,ls),
(224,58,o),
(133,166,o),
(133,357,cs),
(133,548,o),
(225,656,o),
(395,656,cs),
(415,656,l),
(415,714,l),
(392,714,ls),
(187,714,o),
(69,581,o),
(69,357,cs),
(69,133,o),
(186,0,o),
(398,0,cs)
);
}
);
width = 691;
}
);
metricLeft = "=|theCarrier-canadian";
metricRight = "=|neCarrier-canadian";
note = uni1607;
unicode = 5639;
},
{
color = 9;
glyphname = "muCarrier-canadian";
lastChange = "2023-01-13 15:28:13 +0000";
layers = (
{
layerId = "C6C6CC8B-76AD-4983-B2A6-35FF5D496205";
shapes = (
{
closed = 1;
nodes = (
(359,-13,o),
(423,41,o),
(446,139,c),
(422,139,l),
(448,40,o),
(511,-13,o),
(598,-13,cs),
(715,-13,o),
(787,71,o),
(787,214,cs),
(787,402,l),
(725,402,l),
(725,216,ls),
(725,105,o),
(678,45,o),
(595,45,cs),
(514,45,o),
(464,107,o),
(464,215,cs),
(464,402,l),
(404,402,l),
(404,215,ls),
(404,104,o),
(354,45,o),
(272,45,cs),
(188,45,o),
(140,104,o),
(140,216,cs),
(140,714,l),
(78,714,l),
(78,216,ls),
(78,70,o),
(151,-13,o),
(269,-13,cs)
);
}
);
width = 865;
}
);
metricLeft = "guCarrier-canadian";
metricRight = "=|";
note = uni1608;
unicode = 5640;
},
{
color = 9;
glyphname = "moCarrier-canadian";
lastChange = "2023-01-13 15:28:13 +0000";
layers = (
{
layerId = "C6C6CC8B-76AD-4983-B2A6-35FF5D496205";
shapes = (
{
closed = 1;
nodes = (
(787,0,l),
(787,499,ls),
(787,643,o),
(714,727,o),
(597,727,cs),
(509,727,o),
(445,673,o),
(421,575,c),
(445,575,l),
(420,674,o),
(357,727,o),
(268,727,cs),
(150,727,o),
(78,643,o),
(78,500,cs),
(78,312,l),
(140,312,l),
(140,498,ls),
(140,609,o),
(187,669,o),
(271,669,cs),
(353,669,o),
(403,607,o),
(403,499,cs),
(403,312,l),
(463,312,l),
(463,499,ls),
(463,608,o),
(513,669,o),
(594,669,cs),
(678,669,o),
(725,609,o),
(725,498,cs),
(725,0,l)
);
}
);
width = 865;
}
);
metricLeft = "=|muCarrier-canadian";
metricRight = "guCarrier-canadian";
note = uni1609;
unicode = 5641;
},
{
color = 9;
glyphname = "meCarrier-canadian";
lastChange = "2023-01-13 15:28:13 +0000";
layers = (
{
layerId = "C6C6CC8B-76AD-4983-B2A6-35FF5D496205";
shapes = (
{
closed = 1;
nodes = (
(406.996,0,ls),
(548,0,o),
(622,69,o),
(622,188,cs),
(622,275,o),
(571,341,o),
(488,366,c),
(488,348,l),
(572,371,o),
(622,434,o),
(622,524,cs),
(622,644,o),
(547,714,o),
(406.996,714,cs),
(57,714,l),
(57,660,l),
(397,660,ls),
(507,660,o),
(558,613,o),
(558,523,cs),
(558,433,o),
(501,384,o),
(399,384,cs),
(287,384,l),
(287,331,l),
(400,331,ls),
(502,331,o),
(558,279,o),
(558,190,cs),
(558,101,o),
(507,54,o),
(397,54,cs),
(287,54,l),
(287,0,l)
);
}
);
width = 701;
}
);
metricLeft = "neCarrier-canadian";
metricRight = "geCarrier-canadian";
note = uni160A;
unicode = 5642;
},
{
color = 9;
glyphname = "meeCarrier-canadian";
lastChange = "2023-01-13 15:28:13 +0000";
layers = (
{
layerId = "C6C6CC8B-76AD-4983-B2A6-35FF5D496205";
shapes = (
{
closed = 1;
nodes = (
(406.996,0,ls),
(548,0,o),
(622,69,o),
(622,188,cs),
(622,275,o),
(570,341,o),
(488,365,c),
(488,348,l),
(572,371,o),
(622,434,o),
(622,524,cs),
(622,644,o),
(547,714,o),
(406.996,714,cs),
(57,714,l),
(57,660,l),
(397,660,ls),
(507,660,o),
(558,612,o),
(558,522,cs),
(558,432,o),
(502,383,o),
(400,383,cs),
(333,383,l),
(333,474,l),
(287,474,l),
(287,241,l),
(333,241,l),
(333,331,l),
(401,331,ls),
(503,331,o),
(558,280,o),
(558,190,cs),
(558,101,o),
(507,54,o),
(397,54,cs),
(287,54,l),
(287,0,l)
);
}
);
width = 701;
}
);
metricLeft = "neCarrier-canadian";
metricRight = "geCarrier-canadian";
note = uni160B;
unicode = 5643;
},
{
color = 9;
glyphname = "miCarrier-canadian";
lastChange = "2023-01-13 15:28:13 +0000";
layers = (
{
layerId = "C6C6CC8B-76AD-4983-B2A6-35FF5D496205";
shapes = (
{
closed = 1;
nodes = (
(406.996,0,ls),
(548,0,o),
(622,69,o),
(622,188,cs),
(622,275,o),
(570,341,o),
(488,365,c),
(488,348,l),
(572,371,o),
(622,434,o),
(622,524,cs),
(622,644,o),
(547,714,o),
(406.996,714,cs),
(57,714,l),
(57,660,l),
(397,660,ls),
(507,660,o),
(558,612,o),
(558,522,cs),
(558,432,o),
(502,383,o),
(403,383,cs),
(342,383,l),
(376,365,l),
(373,399,o),
(345,425,o),
(310,425,cs),
(273,425,o),
(244,395,o),
(244,358,cs),
(244,321,o),
(273,290,o),
(310,290,cs),
(345,290,o),
(372,317,o),
(376,350,c),
(341,331,l),
(404,331,ls),
(503,331,o),
(558,280,o),
(558,190,cs),
(558,101,o),
(507,54,o),
(397,54,cs),
(287,54,l),
(287,0,l)
);
}
);
width = 701;
}
);
metricLeft = "neCarrier-canadian";
metricRight = "geCarrier-canadian";
note = uni160C;
unicode = 5644;
},
{
color = 9;
glyphname = "maCarrier-canadian";
lastChange = "2023-01-13 15:28:13 +0000";
layers = (
{
layerId = "C6C6CC8B-76AD-4983-B2A6-35FF5D496205";
shapes = (
{
closed = 1;
nodes = (
(644,0,l),
(644,54,l),
(304,54,ls),
(195,54,o),
(143,100,o),
(143,190,cs),
(143,279,o),
(199,330,o),
(301,330,cs),
(414,330,l),
(414,384,l),
(302,384,ls),
(200,384,o),
(143,433,o),
(143,523,cs),
(143,612,o),
(194,660,o),
(304,660,cs),
(414,660,l),
(414,714,l),
(294,714,ls),
(154,714,o),
(79,644,o),
(79,524,cs),
(79,435,o),
(130,372,o),
(213,349,c),
(213,367,l),
(130,343,o),
(79,275,o),
(79,188,cs),
(79,69,o),
(154,0,o),
(294,0,cs)
);
}
);
width = 701;
}
);
metricLeft = "=|geCarrier-canadian";
metricRight = "=|neCarrier-canadian";
note = uni160D;
unicode = 5645;
},
{
color = 9;
glyphname = "yuCarrier-canadian";
lastChange = "2023-01-13 15:28:13 +0000";
layers = (
{
layerId = "C6C6CC8B-76AD-4983-B2A6-35FF5D496205";
shapes = (
{
closed = 1;
nodes = (
(566,-13,o),
(677,125,o),
(677,407,cs),
(677,623,o),
(609,727,o),
(490,727,cs),
(391,727,o),
(326,650,o),
(326,525,cs),
(326,402,o),
(389,325,o),
(492,326,cs),
(509,326,o),
(528,328,o),
(540,334,c),
(540,385,l),
(531,382,o),
(518,379,o),
(498,379,cs),
(420,379,o),
(383,432,o),
(383,527,cs),
(383,619,o),
(421,673,o),
(489,673,cs),
(573,673,o),
(615,597,o),
(615,408,cs),
(615,149,o),
(527,46,o),
(371,46,cs),
(225,46,o),
(140,131,o),
(140,307,cs),
(140,714,l),
(76,714,l),
(76,305,ls),
(76,97,o),
(190,-13,o),
(368,-13,cs)
);
}
);
width = 753;
}
);
metricLeft = "te-canadian";
metricRight = "te-canadian";
note = uni160E;
unicode = 5646;
},
{
color = 9;
glyphname = "yoCarrier-canadian";
lastChange = "2023-01-13 15:28:13 +0000";
layers = (
{
layerId = "C6C6CC8B-76AD-4983-B2A6-35FF5D496205";
shapes = (
{
closed = 1;
nodes = (
(362,-13,o),
(427,64,o),
(427,189,cs),
(427,312,o),
(363,388,o),
(260,388,cs),
(244,388,o),
(224,386,o),
(212,380,c),
(212,329,l),
(222,332,o),
(234,335,o),
(254,335,cs),
(332,335,o),
(370,282,o),
(370,187,cs),
(370,95,o),
(332,41,o),
(264,41,cs),
(180,41,o),
(137,117,o),
(137,306,cs),
(137,565,o),
(225,668,o),
(382,668,cs),
(527,668,o),
(613,583,o),
(613,407,cs),
(613,0,l),
(677,0,l),
(677,409,ls),
(677,617,o),
(563,727,o),
(384,727,cs),
(186,727,o),
(76,589,o),
(76,307,cs),
(76,91,o),
(143,-13,o),
(263,-13,cs)
);
}
);
width = 753;
}
);
metricLeft = "te-canadian";
metricRight = "te-canadian";
note = uni160F;
unicode = 5647;
},
{
color = 9;
glyphname = "yeCarrier-canadian";
lastChange = "2023-01-13 15:30:50 +0000";
layers = (
{
layerId = "C6C6CC8B-76AD-4983-B2A6-35FF5D496205";
shapes = (
{
closed = 1;
nodes = (
(516,-13,o),
(624,133,o),
(624,356,cs),
(624,583,o),
(507,714,o),
(282,714,cs),
(86,714,l),
(86,656,l),
(285,656,ls),
(470,656,o),
(561,549,o),
(561,354,cs),
(561,161,o),
(484,43,o),
(318,43,cs),
(182,43,o),
(127,121,o),
(127,214,cs),
(127,309,o),
(169,362,o),
(235,362,cs),
(304,362,o),
(341,308,o),
(341,222,cs),
(341,189,o),
(338,171,o),
(334,149,c),
(386,149,l),
(392,177,o),
(394,193,o),
(394,227,cs),
(394,339,o),
(335,414,o),
(235,414,cs),
(134,414,o),
(69,337,o),
(69,214,cs),
(69,92,o),
(150,-13,o),
(317,-13,cs)
);
}
);
width = 693;
}
);
metricRight = "theCarrier-canadian";
note = uni1610;
unicode = 5648;
},
{
color = 9;
glyphname = "yeeCarrier-canadian";
lastChange = "2023-01-13 15:30:50 +0000";
layers = (
{
layerId = "C6C6CC8B-76AD-4983-B2A6-35FF5D496205";
shapes = (
{
closed = 1;
nodes = (
(516,-13,o),
(624,133,o),
(624,356,cs),
(624,583,o),
(507,714,o),
(282,714,cs),
(86,714,l),
(86,656,l),
(285,656,ls),
(470,656,o),
(561,549,o),
(561,354,cs),
(561,161,o),
(484,43,o),
(317,43,cs),
(182,43,o),
(127,119,o),
(127,221,cs),
(127,308,o),
(167,362,o),
(227,362,cs),
(290,362,o),
(327,312,o),
(327,229,cs),
(327,180,l),
(368,180,l),
(368,520,l),
(327,520,l),
(327,300,l),
(337,300,l),
(326,374,o),
(282,414,o),
(216,414,cs),
(130,414,o),
(69,338,o),
(69,221,cs),
(69,90,o),
(149,-13,o),
(317,-13,cs)
);
}
);
width = 693;
}
);
metricRight = "theCarrier-canadian";
metricWidth = "yeCarrier-canadian";
note = uni1611;
unicode = 5649;
},
{
color = 9;
glyphname = "yiCarrier-canadian";
lastChange = "2023-01-13 15:30:50 +0000";
layers = (
{
layerId = "C6C6CC8B-76AD-4983-B2A6-35FF5D496205";
shapes = (
{
closed = 1;
nodes = (
(516,-13,o),
(624,133,o),
(624,356,cs),
(624,583,o),
(507,714,o),
(282,714,cs),
(86,714,l),
(86,656,l),
(285,656,ls),
(470,656,o),
(561,549,o),
(561,354,cs),
(561,161,o),
(484,43,o),
(320,43,cs),
(182,43,o),
(127,116,o),
(127,201,cs),
(127,289,o),
(171,337,o),
(245,336,c),
(219,352,l),
(222,321,o),
(249,295,o),
(282,295,cs),
(318,295,o),
(344,324,o),
(344,358,cs),
(344,393,o),
(318,419,o),
(282,419,cs),
(256,419,o),
(235,404,o),
(226,384,c),
(129,378,o),
(69,307,o),
(69,198,cs),
(69,88,o),
(150,-13,o),
(317,-13,cs)
);
}
);
width = 693;
}
);
metricRight = "theCarrier-canadian";
metricWidth = "yeCarrier-canadian";
note = uni1612;
unicode = 5650;
},
{
color = 9;
glyphname = "yaCarrier-canadian";
lastChange = "2023-01-13 15:30:50 +0000";
layers = (
{
layerId = "C6C6CC8B-76AD-4983-B2A6-35FF5D496205";
shapes = (
{
closed = 1;
nodes = (
(608,0,l),
(608,58,l),
(409,58,ls),
(223,58,o),
(133,165,o),
(133,360,cs),
(133,553,o),
(210,671,o),
(379,671,cs),
(512,671,o),
(567,593,o),
(567,500,cs),
(567,405,o),
(525,352,o),
(458,352,cs),
(390,352,o),
(353,406,o),
(353,492,cs),
(353,525,o),
(356,543,o),
(360,565,c),
(308,565,l),
(302,537,o),
(299,521,o),
(299,487,cs),
(299,375,o),
(359,300,o),
(458,300,cs),
(559,300,o),
(624,377,o),
(624,500,cs),
(624,622,o),
(544,727,o),
(379,727,cs),
(178,727,o),
(69,581,o),
(69,358,cs),
(69,131,o),
(187,0,o),
(412,0,cs)
);
}
);
width = 693;
}
);
metricLeft = "=|theCarrier-canadian";
metricRight = "=|yeCarrier-canadian";
note = uni1613;
unicode = 5651;
},
{
color = 9;
glyphname = "juCarrier-canadian";
lastChange = "2023-01-13 15:30:50 +0000";
layers = (
{
layerId = "C6C6CC8B-76AD-4983-B2A6-35FF5D496205";
shapes = (
{
closed = 1;
nodes = (
(550,-13,o),
(644,82,o),
(644,226,cs),
(644,337,o),
(580,414,o),
(480,414,cs),
(381,414,o),
(319,339,o),
(319,227,cs),
(319,193,o),
(322,176,o),
(328,149,c),
(380,149,l),
(376,170,o),
(373,190,o),
(373,222,cs),
(373,308,o),
(413,362,o),
(480,362,cs),
(547,362,o),
(587,308,o),
(587,225,cs),
(587,112,o),
(520,43,o),
(386,43,cs),
(228,43,o),
(142,138,o),
(142,317,cs),
(142,547,o),
(287,656,o),
(541,656,cs),
(627,656,l),
(627,714,l),
(70,714,l),
(70,657,l),
(414,657,l),
(484,684,l),
(230,684,o),
(79,549,o),
(79,315,cs),
(79,112,o),
(196,-13,o),
(384,-13,cs)
);
}
);
width = 713;
}
);
metricRight = "=|yeCarrier-canadian";
note = uni1614;
unicode = 5652;
},
{
color = 9;
glyphname = "juSayisi-canadian";
lastChange = "2023-01-13 15:28:13 +0000";
layers = (
{
anchors = (
{
name = top_center_can;
pos = (364,714);
}
);
layerId = "C6C6CC8B-76AD-4983-B2A6-35FF5D496205";
shapes = (
{
closed = 1;
nodes = (
(517,-13,o),
(635,112,o),
(635,315,cs),
(635,549,o),
(484,684,o),
(229,684,c),
(300,657,l),
(644,657,l),
(644,714,l),
(86,714,l),
(86,656,l),
(172,656,ls),
(426,656,o),
(572,547,o),
(572,317,cs),
(572,138,o),
(485,43,o),
(327,43,cs),
(194,43,o),
(127,112,o),
(127,225,cs),
(127,308,o),
(167,362,o),
(234,362,cs),
(301,362,o),
(341,308,o),
(341,222,cs),
(341,190,o),
(338,170,o),
(334,149,c),
(386,149,l),
(392,176,o),
(394,193,o),
(394,227,cs),
(394,339,o),
(332,414,o),
(234,414,cs),
(133,414,o),
(69,337,o),
(69,226,cs),
(69,82,o),
(163,-13,o),
(330,-13,cs)
);
}
);
width = 714;
}
);
metricLeft = "yeCarrier-canadian";
metricRight = "=|juCarrier-canadian";
note = uni1615;
unicode = 5653;
},
{
color = 9;
glyphname = "joCarrier-canadian";
lastChange = "2023-01-13 15:28:13 +0000";
layers = (
{
layerId = "C6C6CC8B-76AD-4983-B2A6-35FF5D496205";
shapes = (
{
closed = 1;
nodes = (
(644,0,l),
(644,57,l),
(300,57,l),
(229,30,l),
(484,30,o),
(635,165,o),
(635,399,cs),
(635,602,o),
(517,727,o),
(330,727,cs),
(163,727,o),
(69,632,o),
(69,488,cs),
(69,377,o),
(133,300,o),
(234,300,cs),
(332,300,o),
(394,375,o),
(394,487,cs),
(394,521,o),
(392,538,o),
(386,565,c),
(334,565,l),
(338,544,o),
(341,524,o),
(341,492,cs),
(341,406,o),
(301,352,o),
(234,352,cs),
(167,352,o),
(127,406,o),
(127,489,cs),
(127,602,o),
(194,671,o),
(327,671,cs),
(485,671,o),
(572,576,o),
(572,397,cs),
(572,167,o),
(426,58,o),
(172,58,cs),
(86,58,l),
(86,0,l)
);
}
);
width = 714;
}
);
metricLeft = "yeCarrier-canadian";
metricRight = "=|juCarrier-canadian";
note = uni1616;
unicode = 5654;
},
{
color = 9;
glyphname = "jeCarrier-canadian";
lastChange = "2023-01-13 15:30:50 +0000";
layers = (
{
layerId = "C6C6CC8B-76AD-4983-B2A6-35FF5D496205";
shapes = (
{
closed = 1;
nodes = (
(617,-13,o),
(685,91,o),
(685,307,cs),
(685,586,o),
(572,727,o),
(398,727,cs),
(226,727,o),
(131,603,o),
(127,366,c),
(147,392,l),
(147,714,l),
(83,714,l),
(83,0,l),
(147,0,l),
(147,284,ls),
(147,550,o),
(231,668,o),
(391,668,cs),
(534,668,o),
(623,559,o),
(623,306,cs),
(623,117,o),
(581,41,o),
(497,41,cs),
(429,41,o),
(390,95,o),
(390,187,cs),
(390,282,o),
(428,335,o),
(507,335,cs),
(526,335,o),
(538,332,o),
(548,329,c),
(548,380,l),
(536,386,o),
(516,388,o),
(501,388,cs),
(397,388,o),
(333,312,o),
(333,189,cs),
(333,64,o),
(399,-13,o),
(498,-13,cs)
);
}
);
width = 761;
}
);
metricLeft = "nunavuth-canadian";
metricRight = "te-canadian";
note = uni1617;
unicode = 5655;
},
{
color = 9;
glyphname = "jeeCarrier-canadian";
lastChange = "2023-01-13 15:30:50 +0000";
layers = (
{
layerId = "C6C6CC8B-76AD-4983-B2A6-35FF5D496205";
shapes = (
{
closed = 1;
nodes = (
(617,-13,o),
(685,91,o),
(685,307,cs),
(685,586,o),
(572,727,o),
(398,727,cs),
(260,727,o),
(171,649,o),
(139,497,c),
(147,489,l),
(147,714,l),
(83,714,l),
(83,0,l),
(147,0,l),
(147,284,ls),
(147,550,o),
(231,668,o),
(391,668,cs),
(534,668,o),
(623,559,o),
(623,306,cs),
(623,122,o),
(580,41,o),
(489,41,cs),
(416,41,o),
(375,98,o),
(375,192,cs),
(375,282,o),
(409,328,o),
(465,341,c),
(465,245,l),
(504,245,l),
(504,470,l),
(465,470,l),
(465,381,l),
(388,368,o),
(333,303,o),
(333,187,cs),
(333,63,o),
(397,-13,o),
(496,-13,cs)
);
}
);
width = 761;
}
);
metricLeft = "nunavuth-canadian";
metricRight = "jeCarrier-canadian";
note = uni1618;
unicode = 5656;
},
{
color = 9;
glyphname = "jiCarrier-canadian";
lastChange = "2023-01-13 15:30:50 +0000";
layers = (
{
layerId = "C6C6CC8B-76AD-4983-B2A6-35FF5D496205";
shapes = (
{
closed = 1;
nodes = (
(617,-13,o),
(685,91,o),
(685,307,cs),
(685,586,o),
(572,727,o),
(398,727,cs),
(260,727,o),
(171,649,o),
(139,497,c),
(147,490,l),
(147,714,l),
(83,714,l),
(83,0,l),
(147,0,l),
(147,284,ls),
(147,550,o),
(231,668,o),
(391,668,cs),
(534,668,o),
(623,559,o),
(623,306,cs),
(623,122,o),
(580,41,o),
(489,41,cs),
(416,41,o),
(375,98,o),
(375,192,cs),
(375,259,o),
(394,298,o),
(427,319,c),
(435,305,o),
(450,295,o),
(468,295,cs),
(503,295,o),
(529,324,o),
(529,358,cs),
(529,393,o),
(503,419,o),
(467,419,cs),
(430,419,o),
(405,388,o),
(407,354,c),
(362,326,o),
(333,271,o),
(333,187,cs),
(333,63,o),
(397,-13,o),
(496,-13,cs)
);
}
);
width = 761;
}
);
metricLeft = "nunavuth-canadian";
metricRight = "jeCarrier-canadian";
note = uni1619;
unicode = 5657;
},
{
color = 9;
glyphname = "jiSayisi-canadian";
lastChange = "2023-01-13 15:30:50 +0000";
layers = (
{
layerId = "C6C6CC8B-76AD-4983-B2A6-35FF5D496205";
shapes = (
{
closed = 1;
nodes = (
(572,-13,o),
(685,128,o),
(685,407,cs),
(685,623,o),
(617,727,o),
(498,727,cs),
(399,727,o),
(333,650,o),
(333,525,cs),
(333,402,o),
(397,326,o),
(501,326,cs),
(516,326,o),
(536,328,o),
(548,334,c),
(548,385,l),
(538,382,o),
(526,379,o),
(507,379,cs),
(428,379,o),
(390,432,o),
(390,527,cs),
(390,619,o),
(429,673,o),
(496,673,cs),
(580,673,o),
(623,597,o),
(623,408,cs),
(623,155,o),
(534,46,o),
(391,46,cs),
(231,46,o),
(147,164,o),
(147,430,cs),
(147,714,l),
(83,714,l),
(83,0,l),
(147,0,l),
(147,322,l),
(127,348,l),
(131,111,o),
(226,-13,o),
(398,-13,cs)
);
}
);
width = 761;
}
);
metricLeft = "nunavuth-canadian";
metricRight = "jeCarrier-canadian";
note = uni161A;
unicode = 5658;
},
{
color = 9;
glyphname = "jaCarrier-canadian";
lastChange = "2023-01-13 15:28:13 +0000";
layers = (
{
anchors = (
{
name = top_center_can;
pos = (372,714);
}
);
layerId = "C6C6CC8B-76AD-4983-B2A6-35FF5D496205";
shapes = (
{
closed = 1;
nodes = (
(534,-13,o),
(629,111,o),
(633,348,c),
(614,322,l),
(614,0,l),
(677,0,l),
(677,714,l),
(613,714,l),
(613,430,ls),
(613,164,o),
(530,46,o),
(370,46,cs),
(227,46,o),
(137,155,o),
(137,408,cs),
(137,597,o),
(180,673,o),
(264,673,cs),
(331,673,o),
(370,619,o),
(370,527,cs),
(370,432,o),
(332,379,o),
(253,379,cs),
(234,379,o),
(222,382,o),
(212,385,c),
(212,334,l),
(224,328,o),
(244,326,o),
(260,326,cs),
(363,326,o),
(427,402,o),
(427,525,cs),
(427,650,o),
(362,727,o),
(263,727,cs),
(143,727,o),
(76,623,o),
(76,407,cs),
(76,128,o),
(188,-13,o),
(362,-13,cs)
);
}
);
width = 760;
}
);
metricLeft = "=|jeCarrier-canadian";
metricRight = "nunavuth-canadian";
note = uni161B;
unicode = 5659;
},
{
color = 9;
glyphname = "jjuCarrier-canadian";
lastChange = "2023-01-13 15:28:13 +0000";
layers = (
{
layerId = "C6C6CC8B-76AD-4983-B2A6-35FF5D496205";
shapes = (
{
closed = 1;
nodes = (
(549,-13,o),
(630,92,o),
(630,214,cs),
(630,337,o),
(565,414,o),
(464,414,cs),
(364,414,o),
(304,339,o),
(304,227,cs),
(304,194,o),
(307,176,o),
(313,149,c),
(365,149,l),
(361,170,o),
(358,190,o),
(358,222,cs),
(358,308,o),
(395,362,o),
(463,362,cs),
(529,362,o),
(572,307,o),
(572,215,cs),
(572,120,o),
(514,43,o),
(382,43,cs),
(219,43,o),
(139,153,o),
(139,326,cs),
(139,541,o),
(257,656,o),
(483,656,cs),
(613,656,l),
(613,714,l),
(483,714,ls),
(352,714,o),
(251,678,o),
(183,612,c),
(68,727,l),
(26,685,l),
(144,568,l),
(98,507,o),
(75,425,o),
(75,327,cs),
(75,126,o),
(187,-13,o),
(381,-13,cs)
);
}
);
width = 699;
}
);
metricRight = "=|yeCarrier-canadian";
note = uni161C;
unicode = 5660;
},
{
color = 9;
glyphname = "jjoCarrier-canadian";
lastChange = "2023-01-13 15:28:13 +0000";
layers = (
{
layerId = "C6C6CC8B-76AD-4983-B2A6-35FF5D496205";
shapes = (
{
closed = 1;
nodes = (
(673,29,l),
(556,146,l),
(601,207,o),
(624,289,o),
(624,387,cs),
(624,588,o),
(513,727,o),
(319,727,cs),
(152,727,o),
(69,622,o),
(69,499,cs),
(69,377,o),
(134,300,o),
(235,300,cs),
(336,300,o),
(395,375,o),
(395,487,cs),
(395,520,o),
(393,538,o),
(387,565,c),
(334,565,l),
(339,544,o),
(341,524,o),
(341,492,cs),
(341,406,o),
(304,352,o),
(236,352,cs),
(171,352,o),
(127,407,o),
(127,499,cs),
(127,594,o),
(183,671,o),
(319,671,cs),
(480,671,o),
(561,561,o),
(561,388,cs),
(561,173,o),
(442,58,o),
(216,58,cs),
(86,58,l),
(86,0,l),
(217,0,ls),
(347,0,o),
(449,36,o),
(516,102,c),
(631,-13,l)
);
}
);
width = 699;
}
);
metricLeft = "yeCarrier-canadian";
metricRight = "=|jjuCarrier-canadian";
note = uni161D;
unicode = 5661;
},
{
color = 9;
glyphname = "jjeCarrier-canadian";
lastChange = "2023-01-13 15:28:13 +0000";
layers = (
{
layerId = "C6C6CC8B-76AD-4983-B2A6-35FF5D496205";
shapes = (
{
closed = 1;
nodes = (
(622,-13,o),
(689,91,o),
(689,307,cs),
(689,589,o),
(581,727,o),
(385,727,cs),
(295,727,o),
(222,693,o),
(170,631,c),
(73,727,l),
(32,684,l),
(137,581,l),
(105,524,o),
(88,450,o),
(88,360,cs),
(88,0,l),
(152,0,l),
(152,360,ls),
(152,564,o),
(237,668,o),
(385,668,cs),
(539,668,o),
(627,565,o),
(627,306,cs),
(627,117,o),
(585,41,o),
(501,41,cs),
(433,41,o),
(395,95,o),
(395,187,cs),
(395,282,o),
(432,335,o),
(510,335,cs),
(530,335,o),
(543,332,o),
(553,329,c),
(553,380,l),
(541,386,o),
(521,388,o),
(504,388,cs),
(401,388,o),
(338,312,o),
(338,189,cs),
(338,64,o),
(403,-13,o),
(502,-13,cs)
);
}
);
width = 765;
}
);
metricRight = "jeCarrier-canadian";
note = uni161E;
unicode = 5662;
},
{
color = 9;
glyphname = "jjeeCarrier-canadian";
lastChange = "2023-01-13 15:28:13 +0000";
layers = (
{
layerId = "C6C6CC8B-76AD-4983-B2A6-35FF5D496205";
shapes = (
{
closed = 1;
nodes = (
(622,-13,o),
(689,91,o),
(689,307,cs),
(689,589,o),
(581,727,o),
(385,727,cs),
(295,727,o),
(222,693,o),
(170,631,c),
(73,727,l),
(32,684,l),
(137,581,l),
(105,524,o),
(88,450,o),
(88,360,cs),
(88,0,l),
(152,0,l),
(152,360,ls),
(152,564,o),
(237,668,o),
(385,668,cs),
(539,668,o),
(627,565,o),
(627,306,cs),
(627,122,o),
(584,41,o),
(493,41,cs),
(420,41,o),
(379,98,o),
(379,192,cs),
(379,280,o),
(412,326,o),
(464,339,c),
(464,245,l),
(504,245,l),
(504,469,l),
(464,469,l),
(464,381,l),
(390,367,o),
(338,300,o),
(338,187,cs),
(338,63,o),
(402,-13,o),
(501,-13,cs)
);
}
);
width = 765;
}
);
metricLeft = "jjeCarrier-canadian";
metricRight = "jeCarrier-canadian";
note = uni161F;
unicode = 5663;
},
{
color = 9;
glyphname = "jjiCarrier-canadian";
lastChange = "2023-01-13 15:28:13 +0000";
layers = (
{
layerId = "C6C6CC8B-76AD-4983-B2A6-35FF5D496205";
shapes = (
{
closed = 1;
nodes = (
(622,-13,o),
(689,91,o),
(689,307,cs),
(689,589,o),
(581,727,o),
(385,727,cs),
(295,727,o),
(222,693,o),
(170,631,c),
(73,727,l),
(32,684,l),
(137,581,l),
(105,524,o),
(88,450,o),
(88,360,cs),
(88,0,l),
(152,0,l),
(152,360,ls),
(152,564,o),
(237,668,o),
(385,668,cs),
(539,668,o),
(627,565,o),
(627,306,cs),
(627,122,o),
(584,41,o),
(493,41,cs),
(420,41,o),
(379,98,o),
(379,192,cs),
(379,262,o),
(401,303,o),
(435,322,c),
(444,307,o),
(461,295,o),
(480,295,cs),
(515,295,o),
(541,324,o),
(541,358,cs),
(541,393,o),
(515,419,o),
(480,419,cs),
(445,419,o),
(420,391,o),
(420,360,c),
(370,334,o),
(338,276,o),
(338,187,cs),
(338,63,o),
(402,-13,o),
(501,-13,cs)
);
}
);
width = 765;
}
);
metricLeft = "jjeCarrier-canadian";
metricRight = "jeCarrier-canadian";
note = uni1620;
unicode = 5664;
},
{
color = 9;
glyphname = "jjaCarrier-canadian";
lastChange = "2023-01-13 15:28:13 +0000";
layers = (
{
layerId = "C6C6CC8B-76AD-4983-B2A6-35FF5D496205";
shapes = (
{
closed = 1;
nodes = (
(469,-13,o),
(543,21,o),
(595,83,c),
(692,-13,l),
(733,30,l),
(628,133,l),
(660,190,o),
(677,264,o),
(677,354,cs),
(677,714,l),
(613,714,l),
(613,354,ls),
(613,150,o),
(527,46,o),
(380,46,cs),
(225,46,o),
(137,149,o),
(137,408,cs),
(137,597,o),
(180,673,o),
(264,673,cs),
(332,673,o),
(370,619,o),
(370,527,cs),
(370,432,o),
(332,379,o),
(254,379,cs),
(234,379,o),
(222,382,o),
(212,385,c),
(212,334,l),
(224,328,o),
(244,326,o),
(260,326,cs),
(363,326,o),
(427,402,o),
(427,525,cs),
(427,650,o),
(362,727,o),
(263,727,cs),
(143,727,o),
(76,623,o),
(76,407,cs),
(76,125,o),
(184,-13,o),
(379,-13,cs)
);
}
);
width = 765;
}
);
metricLeft = "=|jeCarrier-canadian";
metricRight = "=|jjeCarrier-canadian";
note = uni1621;
unicode = 5665;
},
{
color = 9;
glyphname = "luCarrier-canadian";
lastChange = "2023-01-13 15:28:13 +0000";
layers = (
{
layerId = "C6C6CC8B-76AD-4983-B2A6-35FF5D496205";
shapes = (
{
closed = 1;
nodes = (
(529,-13,o),
(636,91,o),
(636,292,cs),
(636,714,l),
(572,714,l),
(572,290,ls),
(572,124,o),
(491,46,o),
(364,46,cs),
(215,46,o),
(139,152,o),
(139,337,cs),
(139,543,o),
(223,654,o),
(387,661,c),
(387,714,l),
(66,714,l),
(66,660,l),
(295,660,l),
(331,682,l),
(180,666,o),
(75,558,o),
(75,329,cs),
(75,116,o),
(178,-13,o),
(362,-13,cs)
);
}
);
width = 712;
}
);
metricRight = "te-canadian";
note = uni1622;
unicode = 5666;
},
{
color = 9;
glyphname = "loCarrier-canadian";
lastChange = "2023-01-13 15:28:13 +0000";
layers = (
{
layerId = "C6C6CC8B-76AD-4983-B2A6-35FF5D496205";
shapes = (
{
closed = 1;
nodes = (
(140,0,l),
(140,424,ls),
(140,590,o),
(221,668,o),
(349,668,cs),
(497,668,o),
(573,562,o),
(573,377,cs),
(573,171,o),
(489,60,o),
(324,53,c),
(324,0,l),
(646,0,l),
(646,54,l),
(417,54,l),
(381,32,l),
(532,48,o),
(637,156,o),
(637,385,cs),
(637,598,o),
(534,727,o),
(349,727,cs),
(183,727,o),
(76,623,o),
(76,422,cs),
(76,0,l)
);
}
);
width = 712;
}
);
metricLeft = "te-canadian";
metricRight = "=|luCarrier-canadian";
note = uni1623;
unicode = 5667;
},
{
color = 9;
glyphname = "leCarrier-canadian";
lastChange = "2023-01-13 15:28:13 +0000";
layers = (
{
anchors = (
{
name = middle_center_can;
pos = (343,358);
}
);
layerId = "C6C6CC8B-76AD-4983-B2A6-35FF5D496205";
shapes = (
{
closed = 1;
nodes = (
(283,0,ls),
(503,0,o),
(618,133,o),
(618,370,cs),
(618,599,o),
(511,727,o),
(354,727,cs),
(228,727,o),
(149,640,o),
(128,521,c),
(137,521,l),
(137,714,l),
(79,714,l),
(79,399,l),
(133,399,l),
(137,560,o),
(212,668,o),
(342,668,cs),
(472,668,o),
(554,567,o),
(554,369,cs),
(554,167,o),
(465,58,o),
(283,58,cs),
(79,58,l),
(79,0,l)
);
}
);
width = 687;
}
);
metricRight = "theCarrier-canadian";
note = uni1624;
unicode = 5668;
},
{
color = 9;
glyphname = "laCarrier-canadian";
lastChange = "2023-01-13 15:28:13 +0000";
layers = (
{
layerId = "C6C6CC8B-76AD-4983-B2A6-35FF5D496205";
shapes = (
{
closed = 1;
nodes = (
(608,0,l),
(608,58,l),
(403,58,ls),
(222,58,o),
(133,167,o),
(133,369,cs),
(133,567,o),
(216,668,o),
(346,668,cs),
(476,668,o),
(550,560,o),
(554,399,c),
(608,399,l),
(608,714,l),
(550,714,l),
(550,521,l),
(559,521,l),
(538,640,o),
(459,727,o),
(334,727,cs),
(177,727,o),
(69,599,o),
(69,370,cs),
(69,133,o),
(184,0,o),
(404,0,cs)
);
}
);
width = 687;
}
);
metricLeft = "=|theCarrier-canadian";
metricRight = "=|leCarrier-canadian";
note = uni1627;
unicode = 5671;
},
{
color = 1;
glyphname = "dluCarrier-canadian";
lastChange = "2023-01-13 15:28:13 +0000";
layers = (
{
layerId = "C6C6CC8B-76AD-4983-B2A6-35FF5D496205";
shapes = (
{
closed = 1;
nodes = (
(534,-13,o),
(637,116,o),
(637,329,cs),
(637,530,o),
(557,638,o),
(440,670,c),
(428,664,l),
(636,664,l),
(636,577,l),
(686,577,l),
(686,800,l),
(636,800,l),
(636,714,l),
(324,714,l),
(324,661,l),
(489,654,o),
(573,543,o),
(573,337,cs),
(573,152,o),
(497,46,o),
(354,46,cs),
(221,46,o),
(140,126,o),
(140,292,cs),
(140,714,l),
(76,714,l),
(76,295,ls),
(76,93,o),
(183,-13,o),
(353,-13,cs)
);
}
);
width = 745;
}
);
metricLeft = "te-canadian";
note = uni1628;
unicode = 5672;
},
{
color = 9;
glyphname = "dloCarrier-canadian";
lastChange = "2023-01-13 15:28:13 +0000";
layers = (
{
layerId = "C6C6CC8B-76AD-4983-B2A6-35FF5D496205";
shapes = (
{
closed = 1;
nodes = (
(686,-86,l),
(686,137,l),
(636,137,l),
(636,50,l),
(428,50,l),
(440,44,l),
(557,76,o),
(637,184,o),
(637,385,cs),
(637,598,o),
(534,727,o),
(355,727,cs),
(181,727,o),
(76,621,o),
(76,419,cs),
(76,0,l),
(140,0,l),
(140,422,ls),
(140,588,o),
(221,668,o),
(354,668,cs),
(497,668,o),
(573,562,o),
(573,377,cs),
(573,171,o),
(489,60,o),
(324,53,c),
(324,0,l),
(636,0,l),
(636,-86,l)
);
}
);
width = 745;
}
);
metricLeft = "te-canadian";
metricRight = "dluCarrier-canadian";
note = uni1629;
unicode = 5673;
},
{
color = 9;
glyphname = "dleCarrier-canadian";
lastChange = "2023-01-13 15:30:50 +0000";
layers = (
{
anchors = (
{
name = middle_center_can;
pos = (354,358);
}
);
layerId = "C6C6CC8B-76AD-4983-B2A6-35FF5D496205";
shapes = (
{
closed = 1;
nodes = (
(294,0,ls),
(513,0,o),
(628,133,o),
(628,370,cs),
(628,599,o),
(521,727,o),
(365,727,cs),
(246,727,o),
(163,651,o),
(132,527,c),
(140,520,l),
(140,728,l),
(220,728,l),
(220,776,l),
(10,776,l),
(10,728,l),
(90,728,l),
(90,399,l),
(144,399,l),
(148,560,o),
(223,668,o),
(353,668,cs),
(483,668,o),
(565,567,o),
(565,369,cs),
(565,167,o),
(476,58,o),
(294,58,cs),
(90,58,l),
(90,0,l)
);
}
);
width = 697;
}
);
metricRight = "theCarrier-canadian";
note = uni162A;
unicode = 5674;
},
{
color = 9;
glyphname = "dlaCarrier-canadian";
lastChange = "2023-01-13 15:28:13 +0000";
layers = (
{
layerId = "C6C6CC8B-76AD-4983-B2A6-35FF5D496205";
shapes = (
{
closed = 1;
nodes = (
(608,0,l),
(608,58,l),
(403,58,ls),
(223,58,o),
(133,164,o),
(133,369,cs),
(133,567,o),
(215,668,o),
(344,668,cs),
(475,668,o),
(550,560,o),
(554,399,c),
(608,399,l),
(608,728,l),
(688,728,l),
(688,776,l),
(478,776,l),
(478,728,l),
(558,728,l),
(558,520,l),
(565,527,l),
(535,651,o),
(452,727,o),
(333,727,cs),
(176,727,o),
(69,599,o),
(69,370,cs),
(69,131,o),
(186,0,o),
(404,0,cs)
);
}
);
width = 698;
}
);
metricLeft = "=|theCarrier-canadian";
metricRight = "=|dleCarrier-canadian";
note = uni162D;
unicode = 5677;
},
{
color = 9;
glyphname = "lhuCarrier-canadian";
lastChange = "2023-01-13 15:28:13 +0000";
layers = (
{
layerId = "C6C6CC8B-76AD-4983-B2A6-35FF5D496205";
shapes = (
{
closed = 1;
nodes = (
(573,-13,o),
(678,115,o),
(678,334,cs),
(678,543,o),
(586,647,o),
(466,682,c),
(486,659,l),
(687,659,l),
(687,714,l),
(437,714,l),
(437,661,l),
(537,630,o),
(614,531,o),
(614,342,cs),
(614,147,o),
(536,46,o),
(376,46,cs),
(217,46,o),
(139,147,o),
(139,342,cs),
(139,531,o),
(217,630,o),
(316,661,c),
(316,714,l),
(66,714,l),
(66,659,l),
(267,659,l),
(287,682,l),
(167,647,o),
(75,544,o),
(75,334,cs),
(75,115,o),
(180,-13,o),
(376,-13,cs)
);
}
);
width = 753;
}
);
metricLeft = "luCarrier-canadian";
metricRight = "=|";
note = uni162E;
unicode = 5678;
},
{
color = 9;
glyphname = "lhoCarrier-canadian";
lastChange = "2023-01-13 15:28:13 +0000";
layers = (
{
layerId = "C6C6CC8B-76AD-4983-B2A6-35FF5D496205";
shapes = (
{
closed = 1;
nodes = (
(316,0,l),
(316,53,l),
(216,84,o),
(139,183,o),
(139,372,cs),
(139,567,o),
(217,668,o),
(376,668,cs),
(536,668,o),
(614,567,o),
(614,372,cs),
(613.991,182.993,o),
(536,84,o),
(437,53,c),
(437,0,l),
(687,0,l),
(687,55,l),
(486,55,l),
(465,32,l),
(586,67,o),
(678,170,o),
(678,380,cs),
(678,599,o),
(573,727,o),
(376,727,cs),
(179,727,o),
(75,599,o),
(75,380,cs),
(75,171,o),
(167,67,o),
(287,32,c),
(267,55,l),
(66,55,l),
(66,0,l)
);
}
);
width = 753;
}
);
metricLeft = "luCarrier-canadian";
metricRight = "=|";
note = uni162F;
unicode = 5679;
},
{
color = 9;
glyphname = "lheCarrier-canadian";
lastChange = "2023-01-13 15:28:13 +0000";
layers = (
{
anchors = (
{
name = middle_center_can;
pos = (362,357);
}
);
layerId = "C6C6CC8B-76AD-4983-B2A6-35FF5D496205";
shapes = (
{
closed = 1;
nodes = (
(537,-13,o),
(650,115,o),
(650,357,cs),
(650,599,o),
(537,727,o),
(371,727,cs),
(239,727,o),
(158,643,o),
(135,539,c),
(141,539,l),
(141,714,l),
(83,714,l),
(83,434,l),
(137,434,l),
(148,563,o),
(221,668,o),
(361,668,cs),
(493,668,o),
(586,567,o),
(586,357,cs),
(586,147,o),
(498,46,o),
(361,46,cs),
(221,46,o),
(148,151,o),
(137,280,c),
(83,280,l),
(83,0,l),
(141,0,l),
(141,175,l),
(135,175,l),
(158,71,o),
(239,-13,o),
(371,-13,cs)
);
}
);
width = 719;
}
);
metricLeft = "nunavuth-canadian";
metricRight = "theCarrier-canadian";
note = uni1630;
unicode = 5680;
},
{
color = 9;
glyphname = "lhaCarrier-canadian";
lastChange = "2023-01-13 15:28:13 +0000";
layers = (
{
layerId = "C6C6CC8B-76AD-4983-B2A6-35FF5D496205";
shapes = (
{
closed = 1;
nodes = (
(480,-13,o),
(561,71,o),
(584,175,c),
(578,175,l),
(578,0,l),
(636,0,l),
(636,280,l),
(582,280,l),
(571,151,o),
(498,46,o),
(358,46,cs),
(226,46,o),
(133,147,o),
(133,357,cs),
(133,567,o),
(221,668,o),
(358,668,cs),
(498,668,o),
(571,563,o),
(582,434,c),
(636,434,l),
(636,714,l),
(578,714,l),
(578,539,l),
(584,539,l),
(561,643,o),
(480,727,o),
(348,727,cs),
(182,727,o),
(69,599,o),
(69,357,cs),
(69,115,o),
(182,-13,o),
(348,-13,cs)
);
}
);
width = 719;
}
);
metricLeft = "=|theCarrier-canadian";
metricRight = "nunavuth-canadian";
note = uni1633;
unicode = 5683;
},
{
color = 9;
glyphname = "tlhuCarrier-canadian";
lastChange = "2023-01-13 15:28:13 +0000";
layers = (
{
layerId = "C6C6CC8B-76AD-4983-B2A6-35FF5D496205";
shapes = (
{
closed = 1;
nodes = (
(573,-13,o),
(678,115,o),
(678,334,cs),
(678,524,o),
(603,627,o),
(502,671,c),
(488,664,l),
(677,664,l),
(677,577,l),
(727,577,l),
(727,800,l),
(677,800,l),
(677,714,l),
(437,714,l),
(437,661,l),
(537,630,o),
(614,531,o),
(614,342,cs),
(614,147,o),
(536,46,o),
(376,46,cs),
(217,46,o),
(139,147,o),
(139,342,cs),
(139,531,o),
(216,630,o),
(316,661,c),
(316,714,l),
(66,714,l),
(66,659,l),
(258,659,l),
(243,667,l),
(146,622,o),
(75,520,o),
(75,334,cs),
(75,115,o),
(180,-13,o),
(376,-13,cs)
);
}
);
width = 775;
}
);
metricLeft = "lhuCarrier-canadian";
note = uni1634;
unicode = 5684;
},
{
color = 9;
glyphname = "tlhoCarrier-canadian";
lastChange = "2023-01-13 15:30:50 +0000";
layers = (
{
layerId = "C6C6CC8B-76AD-4983-B2A6-35FF5D496205";
shapes = (
{
closed = 1;
nodes = (
(97,-86,l),
(97,0,l),
(337,0,l),
(337,53,l),
(238,84,o),
(160,183,o),
(160,372,cs),
(160,567,o),
(238,668,o),
(398,668,cs),
(557,668,o),
(636,567,o),
(636,372,cs),
(636,183,o),
(558,84,o),
(458,53,c),
(458,0,l),
(708,0,l),
(708,55,l),
(516,55,l),
(531,47,l),
(628,92,o),
(699,194,o),
(699,380,cs),
(699,599,o),
(595,727,o),
(398,727,cs),
(201,727,o),
(96,599,o),
(96,380,cs),
(96,190,o),
(172,87,o),
(273,43,c),
(287,50,l),
(97,50,l),
(97,137,l),
(48,137,l),
(48,-86,l)
);
}
);
width = 774;
}
);
metricLeft = "=|tlhuCarrier-canadian";
metricRight = "lhuCarrier-canadian";
note = uni1635;
unicode = 5685;
},
{
color = 9;
glyphname = "tlheCarrier-canadian";
lastChange = "2023-01-13 15:30:50 +0000";
layers = (
{
anchors = (
{
name = middle_center_can;
pos = (369,357);
}
);
layerId = "C6C6CC8B-76AD-4983-B2A6-35FF5D496205";
shapes = (
{
closed = 1;
nodes = (
(544,-13,o),
(656,115,o),
(656,357,cs),
(656,599,o),
(544,727,o),
(378,727,cs),
(250,727,o),
(164,647,o),
(133,536,c),
(140,528,l),
(140,728,l),
(221,728,l),
(221,776,l),
(10,776,l),
(10,728,l),
(90,728,l),
(90,434,l),
(144,434,l),
(155,563,o),
(227,668,o),
(367,668,cs),
(499,668,o),
(593,568,o),
(593,357,cs),
(593,147,o),
(499,46,o),
(367,46,cs),
(227,46,o),
(155,151,o),
(144,280,c),
(90,280,l),
(90,0,l),
(148,0,l),
(148,182,l),
(143,170,l),
(167,72,o),
(248,-13,o),
(378,-13,cs)
);
}
);
width = 725;
}
);
metricLeft = "dleCarrier-canadian";
metricRight = "theCarrier-canadian";
note = uni1636;
unicode = 5686;
},
{
color = 9;
glyphname = "tlhaCarrier-canadian";
lastChange = "2023-01-13 15:28:13 +0000";
layers = (
{
layerId = "C6C6CC8B-76AD-4983-B2A6-35FF5D496205";
shapes = (
{
closed = 1;
nodes = (
(478,-13,o),
(560,68,o),
(583,171,c),
(578,183,l),
(578,0,l),
(636,0,l),
(636,280,l),
(582,280,l),
(571,151,o),
(498,46,o),
(358,46,cs),
(226,46,o),
(133,147,o),
(133,357,cs),
(133,568,o),
(221,668,o),
(358,668,cs),
(498,668,o),
(571,563,o),
(582,434,c),
(636,434,l),
(636,728,l),
(716,728,l),
(716,776,l),
(505,776,l),
(505,728,l),
(585,728,l),
(585,527,l),
(593,535,l),
(562,650,o),
(476,727,o),
(348,727,cs),
(182,727,o),
(69,599,o),
(69,357,cs),
(69,115,o),
(182,-13,o),
(348,-13,cs)
);
}
);
width = 726;
}
);
metricLeft = "=|theCarrier-canadian";
metricRight = "=|dleCarrier-canadian";
note = uni1639;
unicode = 5689;
},
{
color = 9;
glyphname = "tluCarrier-canadian";
lastChange = "2023-01-13 15:28:13 +0000";
layers = (
{
layerId = "C6C6CC8B-76AD-4983-B2A6-35FF5D496205";
shapes = (
{
closed = 1;
nodes = (
(357,-13,o),
(418,38,o),
(441,134,c),
(424,134,l),
(448,38,o),
(508,-13,o),
(590,-13,cs),
(716,-13,o),
(791,81,o),
(791,298,cs),
(791,524,o),
(718,633,o),
(608,671,c),
(594,664,l),
(790,664,l),
(790,577,l),
(840,577,l),
(840,800,l),
(790,800,l),
(790,714,l),
(493,714,l),
(493,661,l),
(648,657,o),
(727,543,o),
(727,301,cs),
(727,113,o),
(676,45,o),
(586,45,cs),
(513,45,o),
(463,105,o),
(463,225,cs),
(463,309,l),
(402,309,l),
(402,225,ls),
(402,105,o),
(352,45,o),
(279,45,cs),
(190,45,o),
(139,113,o),
(139,301,cs),
(139,543,o),
(218,657,o),
(372,661,c),
(372,714,l),
(66,714,l),
(66,659,l),
(264,659,l),
(250,667,l),
(145,628,o),
(75,519,o),
(75,298,cs),
(75,81,o),
(149,-13,o),
(276,-13,cs)
);
}
);
width = 888;
}
);
metricRight = "tlhuCarrier-canadian";
note = uni163A;
unicode = 5690;
},
{
color = 1;
glyphname = "tloCarrier-canadian";
lastChange = "2023-01-13 15:28:13 +0000";
layers = (
{
layerId = "C6C6CC8B-76AD-4983-B2A6-35FF5D496205";
shapes = (
{
closed = 1;
nodes = (
(840,-86,l),
(840,137,l),
(790,137,l),
(790,50,l),
(594,50,l),
(608,43,l),
(718,81,o),
(791,190,o),
(791,416,cs),
(791,633,o),
(716,727,o),
(590,727,cs),
(508,727,o),
(448,676,o),
(424,580,c),
(441,580,l),
(418,676,o),
(357,727,o),
(276,727,cs),
(149,727,o),
(75,633,o),
(75,416,cs),
(75,195,o),
(145,86,o),
(250,47,c),
(264,55,l),
(66,55,l),
(66,0,l),
(372,0,l),
(372,53,l),
(218,57,o),
(139,171,o),
(139,413,cs),
(139,601,o),
(190,669,o),
(279,669,cs),
(352,669,o),
(402,609,o),
(402,489,cs),
(402,405,l),
(463,405,l),
(463,489,ls),
(463,609,o),
(513,669,o),
(586,669,cs),
(676,669,o),
(727,601,o),
(727,413,cs),
(727,171,o),
(648,57,o),
(493,53,c),
(493,0,l),
(790,0,l),
(790,-86,l)
);
}
);
width = 888;
}
);
metricLeft = "tluCarrier-canadian";
metricRight = "tlhuCarrier-canadian";
note = uni163B;
unicode = 5691;
},
{
color = 9;
glyphname = "tleCarrier-canadian";
lastChange = "2023-01-13 15:30:50 +0000";
layers = (
{
anchors = (
{
name = middle_center_can;
pos = (279,357);
}
);
layerId = "C6C6CC8B-76AD-4983-B2A6-35FF5D496205";
shapes = (
{
closed = 1;
nodes = (
(574,-13,o),
(651,70,o),
(651,188,cs),
(651,277,o),
(600,344,o),
(508,364,c),
(508,350,l),
(600,369,o),
(651,436,o),
(651,526,cs),
(651,644,o),
(574,727,o),
(410,727,cs),
(252,727,o),
(164,653,o),
(133,548,c),
(140,537,l),
(140,728,l),
(220,728,l),
(220,776,l),
(10,776,l),
(10,728,l),
(90,728,l),
(90,434,l),
(144,434,l),
(148,571,o),
(221,669,o),
(399,669,cs),
(532,669,o),
(588,612,o),
(588,521,cs),
(588,434,o),
(529,385,o),
(425,385,cs),
(382,385,l),
(382,330,l),
(425,330,ls),
(533,330,o),
(588,280,o),
(588,193,cs),
(588,102,o),
(527,45,o),
(399,45,cs),
(221,45,o),
(148,143,o),
(144,280,c),
(90,280,l),
(90,0,l),
(148,0,l),
(148,168,l),
(140,157,l),
(172,57,o),
(255,-13,o),
(410,-13,cs)
);
}
);
width = 730;
}
);
metricLeft = "dleCarrier-canadian";
metricRight = "geCarrier-canadian";
note = uni163C;
unicode = 5692;
},
{
color = 9;
glyphname = "tlaCarrier-canadian";
lastChange = "2023-01-13 15:28:13 +0000";
layers = (
{
layerId = "C6C6CC8B-76AD-4983-B2A6-35FF5D496205";
shapes = (
{
closed = 1;
nodes = (
(476,-13,o),
(558,57,o),
(591,157,c),
(583,168,l),
(583,0,l),
(640,0,l),
(640,280,l),
(587,280,l),
(582,143,o),
(510,45,o),
(332,45,cs),
(204,45,o),
(143,102,o),
(143,193,cs),
(143,280,o),
(198,330,o),
(305,330,cs),
(368,330,l),
(368,385,l),
(305,385,ls),
(202,385,o),
(143,434,o),
(143,521,cs),
(143,612,o),
(199,669,o),
(331,669,cs),
(510,669,o),
(582,571,o),
(587,434,c),
(640,434,l),
(640,728,l),
(721,728,l),
(721,776,l),
(510,776,l),
(510,728,l),
(591,728,l),
(591,537,l),
(597,548,l),
(566,653,o),
(479,727,o),
(320,727,cs),
(156,727,o),
(79,644,o),
(79,526,cs),
(79,436,o),
(130,369,o),
(222,350,c),
(222,364,l),
(131,344,o),
(79,277,o),
(79,188,cs),
(79,70,o),
(156,-13,o),
(320,-13,cs)
);
}
);
width = 731;
}
);
metricLeft = "=|geCarrier-canadian";
metricRight = "=|dleCarrier-canadian";
note = uni163F;
unicode = 5695;
},
{
color = 9;
glyphname = "zuCarrier-canadian";
lastChange = "2023-01-13 15:28:13 +0000";
layers = (
{
layerId = "C6C6CC8B-76AD-4983-B2A6-35FF5D496205";
shapes = (
{
closed = 1;
nodes = (
(560,-13,o),
(675,90,o),
(675,249,cs),
(675,378,o),
(573,507,o),
(573,589,cs),
(573,625,o),
(590,658,o),
(652,658,cs),
(684,658,l),
(684,714,l),
(640,714,ls),
(549,714,o),
(511,664,o),
(511,595,cs),
(511,499,o),
(611,380,o),
(611,257,cs),
(611,125,o),
(524,46,o),
(373,46,cs),
(223,46,o),
(136,125,o),
(136,257,cs),
(136,380,o),
(236,499,o),
(236,595,cs),
(236,664,o),
(198,714,o),
(107,714,cs),
(63,714,l),
(63,658,l),
(95,658,ls),
(157,658,o),
(174,625,o),
(174,589,cs),
(174,507,o),
(72,378,o),
(72,249,cs),
(72,90,o),
(187,-13,o),
(373,-13,cs)
);
}
);
width = 747;
}
);
metricRight = "=|";
note = uni1640;
unicode = 5696;
},
{
color = 9;
glyphname = "zoCarrier-canadian";
lastChange = "2023-01-13 15:28:13 +0000";
layers = (
{
layerId = "C6C6CC8B-76AD-4983-B2A6-35FF5D496205";
shapes = (
{
closed = 1;
nodes = (
(107,0,ls),
(198,0,o),
(236,50,o),
(236,119,cs),
(236,215,o),
(136,334,o),
(136,457,cs),
(136,589,o),
(223,668,o),
(374,668,cs),
(525,668,o),
(611,589,o),
(611,457,cs),
(611,334,o),
(511,215,o),
(511,119,cs),
(511,50,o),
(549,0,o),
(640,0,cs),
(684,0,l),
(684,56,l),
(653,56,ls),
(590,56,o),
(573,89,o),
(573,125,cs),
(573,207,o),
(675,336,o),
(675,465,cs),
(675,624,o),
(561,727,o),
(374,727,cs),
(187,727,o),
(72,624,o),
(72,465,cs),
(72,336,o),
(174,207,o),
(174,125,cs),
(174,89,o),
(157,56,o),
(95,56,cs),
(63,56,l),
(63,0,l)
);
}
);
width = 747;
}
);
metricLeft = "zuCarrier-canadian";
metricRight = "zuCarrier-canadian";
note = uni1641;
unicode = 5697;
},
